<svg width="152" height="47" viewBox="0 0 152 47" fill="none" xmlns="http://www.w3.org/2000/svg">
<g filter="url(#filter0_d_571_39)">
<rect x="4" width="143.773" height="45" rx="4" fill="white"/>
</g>
<path d="M46.9898 26.1428V19.5974H51.183V20.5913H48.1756V22.3683H50.8954V23.3623H48.1756V26.1428H46.9898ZM53.5808 26.2419C53.2698 26.2419 52.9896 26.1865 52.7403 26.0757C52.4931 25.9628 52.2971 25.7966 52.1522 25.5771C52.0095 25.3577 51.9381 25.0871 51.9381 24.7653C51.9381 24.4883 51.9892 24.2593 52.0915 24.0782C52.1938 23.8971 52.3333 23.7522 52.5102 23.6435C52.687 23.5349 52.8862 23.4528 53.1078 23.3974C53.3315 23.3399 53.5627 23.2984 53.8014 23.2728C54.089 23.243 54.3223 23.2163 54.5013 23.1929C54.6803 23.1673 54.8102 23.129 54.8912 23.0778C54.9743 23.0246 55.0158 22.9425 55.0158 22.8317V22.8126C55.0158 22.5718 54.9445 22.3854 54.8017 22.2533C54.659 22.1212 54.4533 22.0551 54.1849 22.0551C53.9015 22.0551 53.6767 22.1169 53.5105 22.2405C53.3465 22.3641 53.2357 22.51 53.1781 22.6783L52.0979 22.5249C52.1831 22.2266 52.3237 21.9773 52.5198 21.7771C52.7158 21.5746 52.9555 21.4234 53.2389 21.3232C53.5222 21.2209 53.8354 21.1698 54.1785 21.1698C54.415 21.1698 54.6504 21.1975 54.8848 21.2529C55.1192 21.3083 55.3333 21.3999 55.5272 21.5278C55.7211 21.6535 55.8766 21.825 55.9938 22.0423C56.1131 22.2597 56.1728 22.5313 56.1728 22.8573V26.1428H55.0606V25.4685H55.0222C54.9519 25.6048 54.8528 25.7327 54.725 25.852C54.5993 25.9692 54.4406 26.064 54.2488 26.1364C54.0592 26.2067 53.8365 26.2419 53.5808 26.2419ZM53.8813 25.3918C54.1135 25.3918 54.3149 25.3459 54.4853 25.2543C54.6558 25.1606 54.7868 25.037 54.8784 24.8836C54.9722 24.7302 55.019 24.5629 55.019 24.3818V23.8033C54.9828 23.8332 54.921 23.8609 54.8337 23.8864C54.7484 23.912 54.6526 23.9344 54.546 23.9535C54.4395 23.9727 54.334 23.9898 54.2296 24.0047C54.1252 24.0196 54.0347 24.0324 53.958 24.043C53.7854 24.0665 53.6309 24.1048 53.4945 24.1581C53.3582 24.2114 53.2506 24.2859 53.1717 24.3818C53.0929 24.4756 53.0535 24.597 53.0535 24.7462C53.0535 24.9592 53.1313 25.1201 53.2868 25.2288C53.4423 25.3374 53.6405 25.3918 53.8813 25.3918ZM59.4775 26.2387C58.9874 26.2387 58.5666 26.1311 58.2151 25.9159C57.8656 25.7007 57.5961 25.4035 57.4065 25.0242C57.219 24.6428 57.1252 24.2039 57.1252 23.7075C57.1252 23.2089 57.2211 22.7689 57.4129 22.3875C57.6046 22.004 57.8752 21.7057 58.2247 21.4926C58.5762 21.2774 58.9917 21.1698 59.4711 21.1698C59.8695 21.1698 60.2222 21.2433 60.529 21.3903C60.8379 21.5352 61.084 21.7408 61.2673 22.0072C61.4505 22.2714 61.5549 22.5803 61.5805 22.934H60.4747C60.4299 22.6975 60.3234 22.5004 60.1551 22.3428C59.9889 22.1829 59.7662 22.103 59.4871 22.103C59.2506 22.103 59.0428 22.167 58.8639 22.2948C58.6849 22.4205 58.5453 22.6016 58.4452 22.8381C58.3472 23.0746 58.2982 23.358 58.2982 23.6883C58.2982 24.0228 58.3472 24.3104 58.4452 24.5512C58.5432 24.7898 58.6806 24.9741 58.8575 25.1041C59.0364 25.232 59.2463 25.2959 59.4871 25.2959C59.6575 25.2959 59.8099 25.2639 59.9441 25.2C60.0805 25.1339 60.1945 25.0391 60.2861 24.9155C60.3777 24.792 60.4406 24.6418 60.4747 24.4649H61.5805C61.5528 24.8122 61.4505 25.1201 61.2737 25.3886C61.0968 25.6549 60.856 25.8637 60.5514 26.015C60.2467 26.1641 59.8887 26.2387 59.4775 26.2387ZM64.7038 26.2387C64.2116 26.2387 63.7865 26.1364 63.4286 25.9319C63.0728 25.7252 62.799 25.4333 62.6072 25.0562C62.4154 24.6769 62.3196 24.2305 62.3196 23.717C62.3196 23.2121 62.4154 22.7689 62.6072 22.3875C62.8011 22.004 63.0717 21.7057 63.419 21.4926C63.7663 21.2774 64.1743 21.1698 64.6431 21.1698C64.9456 21.1698 65.2311 21.2188 65.4996 21.3168C65.7702 21.4127 66.0088 21.5619 66.2155 21.7643C66.4243 21.9667 66.5884 22.2245 66.7077 22.5377C66.827 22.8488 66.8867 23.2195 66.8867 23.6499V24.0047H62.8629V23.2249H65.7777C65.7755 23.0033 65.7276 22.8062 65.6338 22.6336C65.5401 22.4589 65.409 22.3214 65.2407 22.2213C65.0745 22.1212 64.8806 22.0711 64.659 22.0711C64.4225 22.0711 64.2148 22.1286 64.0358 22.2437C63.8568 22.3566 63.7173 22.5057 63.6171 22.6911C63.5191 22.8744 63.4691 23.0757 63.4669 23.2952V23.9759C63.4669 24.2614 63.5191 24.5065 63.6235 24.711C63.7279 24.9134 63.8739 25.069 64.0614 25.1776C64.2489 25.2842 64.4684 25.3374 64.7198 25.3374C64.8881 25.3374 65.0404 25.314 65.1768 25.2671C65.3132 25.2181 65.4314 25.1467 65.5316 25.053C65.6317 24.9592 65.7073 24.8431 65.7585 24.7046L66.8387 24.8261C66.7706 25.1116 66.6406 25.3609 66.4488 25.5739C66.2592 25.7849 66.0163 25.9489 65.7201 26.0661C65.424 26.1812 65.0852 26.2387 64.7038 26.2387ZM67.9166 26.1428V19.5974H69.0736V22.0455H69.1215C69.1812 21.9262 69.2653 21.7994 69.374 21.6652C69.4826 21.5288 69.6297 21.4127 69.815 21.3168C70.0004 21.2188 70.2369 21.1698 70.5245 21.1698C70.9038 21.1698 71.2458 21.2668 71.5505 21.4606C71.8573 21.6524 72.1002 21.9369 72.2792 22.314C72.4603 22.689 72.5508 23.1492 72.5508 23.6947C72.5508 24.2337 72.4624 24.6918 72.2856 25.069C72.1087 25.4461 71.8679 25.7337 71.5633 25.9319C71.2586 26.13 70.9134 26.2291 70.5277 26.2291C70.2465 26.2291 70.0132 26.1822 69.8278 26.0885C69.6424 25.9947 69.4933 25.8818 69.3804 25.7497C69.2696 25.6155 69.1833 25.4887 69.1215 25.3694H69.0544V26.1428H67.9166ZM69.0512 23.6883C69.0512 24.0057 69.0959 24.2838 69.1854 24.5224C69.277 24.7611 69.4081 24.9475 69.5785 25.0817C69.7511 25.2138 69.9599 25.2799 70.2049 25.2799C70.4606 25.2799 70.6748 25.2117 70.8473 25.0754C71.0199 24.9369 71.1499 24.7483 71.2373 24.5097C71.3267 24.2689 71.3715 23.9951 71.3715 23.6883C71.3715 23.3836 71.3278 23.113 71.2405 22.8765C71.1531 22.64 71.0231 22.4546 70.8505 22.3204C70.678 22.1861 70.4628 22.119 70.2049 22.119C69.9578 22.119 69.7479 22.184 69.5753 22.314C69.4027 22.444 69.2717 22.6261 69.1822 22.8605C69.0949 23.0949 69.0512 23.3708 69.0512 23.6883ZM75.6757 26.2387C75.1963 26.2387 74.7809 26.1332 74.4293 25.9223C74.0777 25.7114 73.805 25.4163 73.6111 25.037C73.4193 24.6577 73.3235 24.2146 73.3235 23.7075C73.3235 23.2004 73.4193 22.7561 73.6111 22.3747C73.805 21.9933 74.0777 21.6972 74.4293 21.4862C74.7809 21.2753 75.1963 21.1698 75.6757 21.1698C76.1551 21.1698 76.5706 21.2753 76.9222 21.4862C77.2737 21.6972 77.5454 21.9933 77.7372 22.3747C77.9311 22.7561 78.028 23.2004 78.028 23.7075C78.028 24.2146 77.9311 24.6577 77.7372 25.037C77.5454 25.4163 77.2737 25.7114 76.9222 25.9223C76.5706 26.1332 76.1551 26.2387 75.6757 26.2387ZM75.6821 25.3119C75.9421 25.3119 76.1594 25.2405 76.3341 25.0977C76.5088 24.9528 76.6388 24.7589 76.724 24.516C76.8114 24.2731 76.8551 24.0026 76.8551 23.7043C76.8551 23.4038 76.8114 23.1322 76.724 22.8893C76.6388 22.6442 76.5088 22.4493 76.3341 22.3044C76.1594 22.1595 75.9421 22.0871 75.6821 22.0871C75.4158 22.0871 75.1942 22.1595 75.0174 22.3044C74.8426 22.4493 74.7116 22.6442 74.6242 22.8893C74.539 23.1322 74.4964 23.4038 74.4964 23.7043C74.4964 24.0026 74.539 24.2731 74.6242 24.516C74.7116 24.7589 74.8426 24.9528 75.0174 25.0977C75.1942 25.2405 75.4158 25.3119 75.6821 25.3119ZM81.1513 26.2387C80.6719 26.2387 80.2564 26.1332 79.9049 25.9223C79.5533 25.7114 79.2806 25.4163 79.0867 25.037C78.8949 24.6577 78.7991 24.2146 78.7991 23.7075C78.7991 23.2004 78.8949 22.7561 79.0867 22.3747C79.2806 21.9933 79.5533 21.6972 79.9049 21.4862C80.2564 21.2753 80.6719 21.1698 81.1513 21.1698C81.6307 21.1698 82.0462 21.2753 82.3978 21.4862C82.7493 21.6972 83.021 21.9933 83.2128 22.3747C83.4066 22.7561 83.5036 23.2004 83.5036 23.7075C83.5036 24.2146 83.4066 24.6577 83.2128 25.037C83.021 25.4163 82.7493 25.7114 82.3978 25.9223C82.0462 26.1332 81.6307 26.2387 81.1513 26.2387ZM81.1577 25.3119C81.4177 25.3119 81.635 25.2405 81.8097 25.0977C81.9844 24.9528 82.1144 24.7589 82.1996 24.516C82.287 24.2731 82.3307 24.0026 82.3307 23.7043C82.3307 23.4038 82.287 23.1322 82.1996 22.8893C82.1144 22.6442 81.9844 22.4493 81.8097 22.3044C81.635 22.1595 81.4177 22.0871 81.1577 22.0871C80.8914 22.0871 80.6698 22.1595 80.4929 22.3044C80.3182 22.4493 80.1872 22.6442 80.0998 22.8893C80.0146 23.1322 79.972 23.4038 79.972 23.7043C79.972 24.0026 80.0146 24.2731 80.0998 24.516C80.1872 24.7589 80.3182 24.9528 80.4929 25.0977C80.6698 25.2405 80.8914 25.3119 81.1577 25.3119ZM85.5403 24.6023L85.5371 23.2057H85.7224L87.4866 21.2337H88.8386L86.6685 23.6499H86.4288L85.5403 24.6023ZM84.4856 26.1428V19.5974H85.6425V26.1428H84.4856ZM87.5665 26.1428L85.9685 23.9088L86.7484 23.0938L88.9504 26.1428H87.5665ZM91.8932 26.1428V19.5974H94.3477C94.8505 19.5974 95.2724 19.6911 95.6133 19.8786C95.9564 20.0661 96.2152 20.3239 96.39 20.6521C96.5668 20.978 96.6552 21.3488 96.6552 21.7643C96.6552 22.184 96.5668 22.5569 96.39 22.8829C96.2131 23.2089 95.9521 23.4656 95.6069 23.6531C95.2618 23.8385 94.8367 23.9312 94.3317 23.9312H92.7049V22.9564H94.1719C94.466 22.9564 94.7067 22.9053 94.8942 22.803C95.0817 22.7007 95.2202 22.5601 95.3097 22.3811C95.4013 22.2021 95.4471 21.9965 95.4471 21.7643C95.4471 21.532 95.4013 21.3275 95.3097 21.1506C95.2202 20.9738 95.0807 20.8364 94.891 20.7383C94.7035 20.6382 94.4617 20.5881 94.1655 20.5881H93.0789V26.1428H91.8932ZM99.705 26.2387C99.2256 26.2387 98.8101 26.1332 98.4586 25.9223C98.107 25.7114 97.8343 25.4163 97.6404 25.037C97.4486 24.6577 97.3528 24.2146 97.3528 23.7075C97.3528 23.2004 97.4486 22.7561 97.6404 22.3747C97.8343 21.9933 98.107 21.6972 98.4586 21.4862C98.8101 21.2753 99.2256 21.1698 99.705 21.1698C100.184 21.1698 100.6 21.2753 100.951 21.4862C101.303 21.6972 101.575 21.9933 101.766 22.3747C101.96 22.7561 102.057 23.2004 102.057 23.7075C102.057 24.2146 101.96 24.6577 101.766 25.037C101.575 25.4163 101.303 25.7114 100.951 25.9223C100.6 26.1332 100.184 26.2387 99.705 26.2387ZM99.7114 25.3119C99.9714 25.3119 100.189 25.2405 100.363 25.0977C100.538 24.9528 100.668 24.7589 100.753 24.516C100.841 24.2731 100.884 24.0026 100.884 23.7043C100.884 23.4038 100.841 23.1322 100.753 22.8893C100.668 22.6442 100.538 22.4493 100.363 22.3044C100.189 22.1595 99.9714 22.0871 99.7114 22.0871C99.4451 22.0871 99.2235 22.1595 99.0467 22.3044C98.8719 22.4493 98.7409 22.6442 98.6535 22.8893C98.5683 23.1322 98.5257 23.4038 98.5257 23.7043C98.5257 24.0026 98.5683 24.2731 98.6535 24.516C98.7409 24.7589 98.8719 24.9528 99.0467 25.0977C99.2235 25.2405 99.4451 25.3119 99.7114 25.3119ZM106.919 22.5313L105.865 22.6464C105.835 22.5398 105.783 22.4397 105.708 22.3459C105.636 22.2522 105.538 22.1766 105.414 22.119C105.29 22.0615 105.139 22.0327 104.96 22.0327C104.719 22.0327 104.517 22.0849 104.353 22.1893C104.191 22.2937 104.111 22.429 104.113 22.5952C104.111 22.738 104.163 22.8541 104.27 22.9436C104.378 23.0331 104.557 23.1066 104.807 23.1641L105.644 23.3431C106.109 23.4432 106.454 23.602 106.68 23.8193C106.908 24.0366 107.023 24.3211 107.025 24.6727C107.023 24.9816 106.932 25.2543 106.753 25.4908C106.576 25.7252 106.33 25.9084 106.015 26.0405C105.699 26.1727 105.337 26.2387 104.928 26.2387C104.327 26.2387 103.844 26.113 103.477 25.8616C103.111 25.608 102.892 25.2554 102.822 24.8037L103.95 24.695C104.001 24.9166 104.11 25.0839 104.276 25.1968C104.442 25.3097 104.659 25.3662 104.925 25.3662C105.2 25.3662 105.42 25.3097 105.587 25.1968C105.755 25.0839 105.839 24.9443 105.839 24.7781C105.839 24.6375 105.785 24.5214 105.676 24.4298C105.569 24.3381 105.403 24.2678 105.177 24.2188L104.34 24.043C103.869 23.945 103.521 23.7799 103.295 23.5477C103.069 23.3133 102.957 23.0171 102.959 22.6592C102.957 22.3566 103.039 22.0945 103.205 21.8729C103.374 21.6492 103.607 21.4766 103.905 21.3552C104.206 21.2316 104.552 21.1698 104.944 21.1698C105.519 21.1698 105.972 21.2923 106.302 21.5374C106.635 21.7824 106.84 22.1137 106.919 22.5313ZM110.43 21.2337V22.1286H107.608V21.2337H110.43ZM108.305 20.0576H109.462V24.6663C109.462 24.8218 109.485 24.9411 109.532 25.0242C109.581 25.1052 109.645 25.1606 109.724 25.1904C109.803 25.2202 109.89 25.2352 109.986 25.2352C110.058 25.2352 110.124 25.2298 110.184 25.2192C110.246 25.2085 110.293 25.1989 110.325 25.1904L110.52 26.0949C110.458 26.1162 110.369 26.1396 110.254 26.1652C110.141 26.1908 110.003 26.2057 109.839 26.2099C109.549 26.2185 109.288 26.1748 109.056 26.0789C108.824 25.9809 108.639 25.8296 108.503 25.6251C108.369 25.4205 108.303 25.1648 108.305 24.858V20.0576ZM114.522 26.1428H113.256L115.561 19.5974H117.024L119.332 26.1428H118.066L116.318 20.9397H116.267L114.522 26.1428ZM114.563 23.5764H118.015V24.5288H114.563V23.5764ZM120.194 26.1428V19.5974H122.648C123.151 19.5974 123.573 19.6911 123.914 19.8786C124.257 20.0661 124.516 20.3239 124.691 20.6521C124.868 20.978 124.956 21.3488 124.956 21.7643C124.956 22.184 124.868 22.5569 124.691 22.8829C124.514 23.2089 124.253 23.4656 123.908 23.6531C123.563 23.8385 123.137 23.9312 122.633 23.9312H121.006V22.9564H122.473C122.767 22.9564 123.008 22.9053 123.195 22.803C123.383 22.7007 123.521 22.5601 123.61 22.3811C123.702 22.2021 123.748 21.9965 123.748 21.7643C123.748 21.532 123.702 21.3275 123.61 21.1506C123.521 20.9738 123.381 20.8364 123.192 20.7383C123.004 20.6382 122.762 20.5881 122.466 20.5881H121.38V26.1428H120.194ZM127.172 19.5974V26.1428H125.986V19.5974H127.172Z" fill="black"/>
<path d="M17.7865 29.5968V31.4733C17.7865 33.0245 21.0946 34.2858 25.1721 34.2858C29.2496 34.2858 32.5577 33.0245 32.5577 31.4733V29.5968C30.9691 30.8756 28.0648 31.4733 25.1721 31.4733C22.2794 31.4733 19.3752 30.8756 17.7865 29.5968ZM30.0959 17.4108C34.1733 17.4108 37.4815 16.1495 37.4815 14.5983C37.4815 13.047 34.1733 11.7858 30.0959 11.7858C26.0184 11.7858 22.7102 13.047 22.7102 14.5983C22.7102 16.1495 26.0184 17.4108 30.0959 17.4108ZM17.7865 24.9869V27.2545C17.7865 28.8058 21.0946 30.067 25.1721 30.067C29.2496 30.067 32.5577 28.8058 32.5577 27.2545V24.9869C30.9691 26.4811 28.061 27.2545 25.1721 27.2545C22.2833 27.2545 19.3752 26.4811 17.7865 24.9869ZM33.7887 25.4703C35.9928 24.9825 37.4815 24.0773 37.4815 23.0358V21.1593C36.5891 21.88 35.2773 22.3722 33.7887 22.6754V25.4703ZM25.1721 18.817C21.0946 18.817 17.7865 20.3903 17.7865 22.3326C17.7865 24.275 21.0946 25.8483 25.1721 25.8483C29.2496 25.8483 32.5577 24.275 32.5577 22.3326C32.5577 20.3903 29.2496 18.817 25.1721 18.817ZM33.6079 21.2911C35.9159 20.8165 37.4815 19.8849 37.4815 18.817V16.9406C36.1159 18.0436 33.7694 18.6368 31.2999 18.7775C32.4346 19.4059 33.2694 20.2496 33.6079 21.2911Z" fill="#3BB44A"/>
<defs>
<filter id="filter0_d_571_39" x="0" y="-4" width="151.773" height="53" filterUnits="userSpaceOnUse" color-interpolation-filters="sRGB">
<feFlood flood-opacity="0" result="BackgroundImageFix"/>
<feColorMatrix in="SourceAlpha" type="matrix" values="0 0 0 0 0 0 0 0 0 0 0 0 0 0 0 0 0 0 127 0" result="hardAlpha"/>
<feOffset/>
<feGaussianBlur stdDeviation="2"/>
<feComposite in2="hardAlpha" operator="out"/>
<feColorMatrix type="matrix" values="0 0 0 0 0 0 0 0 0 0 0 0 0 0 0 0 0 0 0.25 0"/>
<feBlend mode="normal" in2="BackgroundImageFix" result="effect1_dropShadow_571_39"/>
<feBlend mode="normal" in="SourceGraphic" in2="effect1_dropShadow_571_39" result="shape"/>
</filter>
</defs>
</svg>
