<svg width="153" height="53" viewBox="0 0 153 53" fill="none" xmlns="http://www.w3.org/2000/svg">
<g filter="url(#filter0_d_406_245)">
<rect x="4.62091" y="4" width="143.773" height="45" rx="4" fill="white"/>
</g>
<path d="M52.9897 23.5974V30.1428H51.935L48.8508 25.6844H48.7965V30.1428H47.6107V23.5974H48.6718L51.7528 28.059H51.8103V23.5974H52.9897ZM56.4038 30.2387C55.9116 30.2387 55.4865 30.1364 55.1286 29.9319C54.7728 29.7252 54.499 29.4333 54.3072 29.0562C54.1155 28.6769 54.0196 28.2305 54.0196 27.717C54.0196 27.2121 54.1155 26.7689 54.3072 26.3875C54.5011 26.004 54.7717 25.7057 55.119 25.4926C55.4663 25.2774 55.8743 25.1698 56.3431 25.1698C56.6456 25.1698 56.9311 25.2188 57.1996 25.3168C57.4702 25.4127 57.7088 25.5619 57.9155 25.7643C58.1243 25.9667 58.2884 26.2245 58.4077 26.5377C58.527 26.8488 58.5867 27.2195 58.5867 27.6499V28.0047H54.5629V27.2249H57.4777C57.4755 27.0033 57.4276 26.8062 57.3338 26.6336C57.2401 26.4589 57.1091 26.3214 56.9407 26.2213C56.7745 26.1212 56.5806 26.0711 56.3591 26.0711C56.1226 26.0711 55.9148 26.1286 55.7358 26.2437C55.5569 26.3566 55.4173 26.5057 55.3172 26.6911C55.2191 26.8744 55.1691 27.0757 55.1669 27.2952V27.9759C55.1669 28.2614 55.2191 28.5065 55.3235 28.711C55.428 28.9134 55.5739 29.069 55.7614 29.1776C55.9489 29.2842 56.1684 29.3374 56.4198 29.3374C56.5881 29.3374 56.7405 29.314 56.8768 29.2671C57.0132 29.2181 57.1314 29.1467 57.2316 29.053C57.3317 28.9592 57.4074 28.8431 57.4585 28.7046L58.5387 28.8261C58.4706 29.1116 58.3406 29.3609 58.1488 29.5739C57.9592 29.7849 57.7163 29.9489 57.4201 30.0661C57.124 30.1812 56.7852 30.2387 56.4038 30.2387ZM60.5522 30.1428L59.1652 25.2337H60.3445L61.2074 28.6854H61.2522L62.1343 25.2337H63.3008L64.1829 28.6663H64.2309L65.081 25.2337H66.2635L64.8733 30.1428H63.6684L62.7479 26.8254H62.6808L61.7603 30.1428H60.5522ZM69.3549 30.1428V23.5974H71.8094C72.3123 23.5974 72.7341 23.6911 73.0751 23.8786C73.4181 24.0661 73.677 24.3239 73.8517 24.6521C74.0285 24.978 74.117 25.3488 74.117 25.7643C74.117 26.184 74.0285 26.5569 73.8517 26.8829C73.6748 27.2089 73.4138 27.4656 73.0687 27.6531C72.7235 27.8385 72.2984 27.9312 71.7935 27.9312H70.1667V26.9564H71.6337C71.9277 26.9564 72.1685 26.9053 72.356 26.803C72.5435 26.7007 72.6819 26.5601 72.7714 26.3811C72.8631 26.2021 72.9089 25.9965 72.9089 25.7643C72.9089 25.532 72.8631 25.3275 72.7714 25.1506C72.6819 24.9738 72.5424 24.8364 72.3528 24.7383C72.1653 24.6382 71.9234 24.5881 71.6273 24.5881H70.5406V30.1428H69.3549ZM77.1668 30.2387C76.6874 30.2387 76.2719 30.1332 75.9203 29.9223C75.5688 29.7114 75.296 29.4163 75.1021 29.037C74.9104 28.6577 74.8145 28.2146 74.8145 27.7075C74.8145 27.2004 74.9104 26.7561 75.1021 26.3747C75.296 25.9933 75.5688 25.6972 75.9203 25.4862C76.2719 25.2753 76.6874 25.1698 77.1668 25.1698C77.6462 25.1698 78.0617 25.2753 78.4132 25.4862C78.7648 25.6972 79.0364 25.9933 79.2282 26.3747C79.4221 26.7561 79.519 27.2004 79.519 27.7075C79.519 28.2146 79.4221 28.6577 79.2282 29.037C79.0364 29.4163 78.7648 29.7114 78.4132 29.9223C78.0617 30.1332 77.6462 30.2387 77.1668 30.2387ZM77.1732 29.3119C77.4331 29.3119 77.6504 29.2405 77.8251 29.0977C77.9999 28.9528 78.1298 28.7589 78.2151 28.516C78.3024 28.2731 78.3461 28.0026 78.3461 27.7043C78.3461 27.4038 78.3024 27.1322 78.2151 26.8893C78.1298 26.6442 77.9999 26.4493 77.8251 26.3044C77.6504 26.1595 77.4331 26.0871 77.1732 26.0871C76.9068 26.0871 76.6852 26.1595 76.5084 26.3044C76.3337 26.4493 76.2026 26.6442 76.1153 26.8893C76.03 27.1322 75.9874 27.4038 75.9874 27.7043C75.9874 28.0026 76.03 28.2731 76.1153 28.516C76.2026 28.7589 76.3337 28.9528 76.5084 29.0977C76.6852 29.2405 76.9068 29.3119 77.1732 29.3119ZM84.381 26.5313L83.3263 26.6464C83.2965 26.5398 83.2443 26.4397 83.1697 26.3459C83.0973 26.2522 82.9992 26.1766 82.8757 26.119C82.7521 26.0615 82.6008 26.0327 82.4218 26.0327C82.1811 26.0327 81.9786 26.0849 81.8146 26.1893C81.6526 26.2937 81.5727 26.429 81.5749 26.5952C81.5727 26.738 81.625 26.8541 81.7315 26.9436C81.8401 27.0331 82.0191 27.1066 82.2684 27.1641L83.1058 27.3431C83.5703 27.4432 83.9154 27.602 84.1413 27.8193C84.3693 28.0366 84.4843 28.3211 84.4865 28.6727C84.4843 28.9816 84.3938 29.2543 84.2148 29.4908C84.0379 29.7252 83.7919 29.9084 83.4765 30.0405C83.1612 30.1727 82.799 30.2387 82.3899 30.2387C81.789 30.2387 81.3053 30.113 80.9389 29.8616C80.5724 29.608 80.354 29.2554 80.2837 28.8037L81.4119 28.695C81.463 28.9166 81.5717 29.0839 81.7379 29.1968C81.9041 29.3097 82.1203 29.3662 82.3867 29.3662C82.6615 29.3662 82.8821 29.3097 83.0482 29.1968C83.2166 29.0839 83.3007 28.9443 83.3007 28.7781C83.3007 28.6375 83.2464 28.5214 83.1377 28.4298C83.0312 28.3381 82.865 28.2678 82.6392 28.2188L81.8018 28.043C81.3309 27.945 80.9825 27.7799 80.7567 27.5477C80.5308 27.3133 80.419 27.0171 80.4211 26.6592C80.419 26.3566 80.501 26.0945 80.6672 25.8729C80.8355 25.6492 81.0688 25.4766 81.3671 25.3552C81.6676 25.2316 82.0138 25.1698 82.4058 25.1698C82.9811 25.1698 83.4339 25.2923 83.7642 25.5374C84.0965 25.7824 84.3022 26.1137 84.381 26.5313ZM87.8918 25.2337V26.1286H85.0697V25.2337H87.8918ZM85.7665 24.0576H86.9234V28.6663C86.9234 28.8218 86.9469 28.9411 86.9937 29.0242C87.0427 29.1052 87.1067 29.1606 87.1855 29.1904C87.2643 29.2202 87.3517 29.2352 87.4476 29.2352C87.52 29.2352 87.5861 29.2298 87.6457 29.2192C87.7075 29.2085 87.7544 29.1989 87.7863 29.1904L87.9813 30.0949C87.9195 30.1162 87.8311 30.1396 87.716 30.1652C87.6031 30.1908 87.4646 30.2057 87.3006 30.2099C87.0108 30.2185 86.7498 30.1748 86.5175 30.0789C86.2853 29.9809 86.101 29.8296 85.9646 29.6251C85.8304 29.4205 85.7643 29.1648 85.7665 28.858V24.0576ZM91.9835 30.1428H90.7179L93.0222 23.5974H94.486L96.7935 30.1428H95.5279L93.7797 24.9397H93.7286L91.9835 30.1428ZM92.0251 27.5764H95.4768V28.5288H92.0251V27.5764ZM97.6557 30.1428V23.5974H100.11C100.613 23.5974 101.035 23.6911 101.376 23.8786C101.719 24.0661 101.978 24.3239 102.152 24.6521C102.329 24.978 102.418 25.3488 102.418 25.7643C102.418 26.184 102.329 26.5569 102.152 26.8829C101.976 27.2089 101.715 27.4656 101.369 27.6531C101.024 27.8385 100.599 27.9312 100.094 27.9312H98.4675V26.9564H99.9344C100.228 26.9564 100.469 26.9053 100.657 26.803C100.844 26.7007 100.983 26.5601 101.072 26.3811C101.164 26.2021 101.21 25.9965 101.21 25.7643C101.21 25.532 101.164 25.3275 101.072 25.1506C100.983 24.9738 100.843 24.8364 100.654 24.7383C100.466 24.6382 100.224 24.5881 99.928 24.5881H98.8414V30.1428H97.6557ZM104.633 23.5974V30.1428H103.448V23.5974H104.633Z" fill="black"/>
<path d="M17.4227 32.7487V34.5358C17.4227 36.0132 20.8962 37.2143 25.1776 37.2143C29.4589 37.2143 32.9325 36.0132 32.9325 34.5358V32.7487C31.2644 33.9666 28.2149 34.5358 25.1776 34.5358C22.1402 34.5358 19.0908 33.9666 17.4227 32.7487ZM30.3475 21.1429C34.6289 21.1429 38.1024 19.9417 38.1024 18.4643C38.1024 16.9869 34.6289 15.7858 30.3475 15.7858C26.0662 15.7858 22.5926 16.9869 22.5926 18.4643C22.5926 19.9417 26.0662 21.1429 30.3475 21.1429ZM17.4227 28.3583V30.5179C17.4227 31.9953 20.8962 33.1965 25.1776 33.1965C29.4589 33.1965 32.9325 31.9953 32.9325 30.5179V28.3583C31.2644 29.7813 28.2109 30.5179 25.1776 30.5179C22.1443 30.5179 19.0908 29.7813 17.4227 28.3583ZM34.225 28.8187C36.5393 28.3541 38.1024 27.492 38.1024 26.5001V24.7129C37.1654 25.3993 35.7881 25.8681 34.225 26.1569V28.8187ZM25.1776 22.4822C20.8962 22.4822 17.4227 23.9805 17.4227 25.8304C17.4227 27.6803 20.8962 29.1786 25.1776 29.1786C29.4589 29.1786 32.9325 27.6803 32.9325 25.8304C32.9325 23.9805 29.4589 22.4822 25.1776 22.4822ZM34.0351 24.8385C36.4585 24.3865 38.1024 23.4992 38.1024 22.4822V20.6951C36.6686 21.7456 34.2048 22.3106 31.6117 22.4445C32.8032 23.043 33.6797 23.8466 34.0351 24.8385Z" fill="#3BB44A"/>
<defs>
<filter id="filter0_d_406_245" x="0.620911" y="0" width="151.773" height="53" filterUnits="userSpaceOnUse" color-interpolation-filters="sRGB">
<feFlood flood-opacity="0" result="BackgroundImageFix"/>
<feColorMatrix in="SourceAlpha" type="matrix" values="0 0 0 0 0 0 0 0 0 0 0 0 0 0 0 0 0 0 127 0" result="hardAlpha"/>
<feOffset/>
<feGaussianBlur stdDeviation="2"/>
<feComposite in2="hardAlpha" operator="out"/>
<feColorMatrix type="matrix" values="0 0 0 0 0 0 0 0 0 0 0 0 0 0 0 0 0 0 0.25 0"/>
<feBlend mode="normal" in2="BackgroundImageFix" result="effect1_dropShadow_406_245"/>
<feBlend mode="normal" in="SourceGraphic" in2="effect1_dropShadow_406_245" result="shape"/>
</filter>
</defs>
</svg>
