<svg width="152" height="53" viewBox="0 0 152 53" fill="none" xmlns="http://www.w3.org/2000/svg">
<g filter="url(#filter0_d_406_251)">
<rect x="4.22659" y="4" width="143.773" height="45" rx="4" fill="white"/>
</g>
<path d="M47.2164 30.1428V23.5974H49.7221C50.1951 23.5974 50.5882 23.6719 50.9014 23.8211C51.2168 23.9681 51.4522 24.1695 51.6077 24.4251C51.7654 24.6808 51.8442 24.9706 51.8442 25.2945C51.8442 25.5608 51.7931 25.7888 51.6908 25.9784C51.5886 26.1659 51.4511 26.3182 51.2785 26.4354C51.106 26.5526 50.9131 26.6368 50.7001 26.6879V26.7518C50.9323 26.7646 51.155 26.836 51.368 26.966C51.5832 27.0938 51.759 27.2749 51.8954 27.5093C52.0317 27.7437 52.0999 28.0271 52.0999 28.3594C52.0999 28.6982 52.0179 29.0029 51.8538 29.2735C51.6898 29.542 51.4426 29.754 51.1123 29.9095C50.7821 30.0651 50.3666 30.1428 49.8659 30.1428H47.2164ZM48.4021 29.1521H49.6773C50.1077 29.1521 50.4177 29.07 50.6074 28.906C50.7991 28.7398 50.895 28.5267 50.895 28.2668C50.895 28.0729 50.8471 27.8981 50.7512 27.7426C50.6553 27.5849 50.519 27.4614 50.3421 27.3719C50.1653 27.2803 49.9543 27.2344 49.7093 27.2344H48.4021V29.1521ZM48.4021 26.3811H49.5751C49.7796 26.3811 49.9639 26.3438 50.128 26.2692C50.292 26.1925 50.4209 26.0849 50.5147 25.9464C50.6106 25.8058 50.6585 25.6396 50.6585 25.4479C50.6585 25.1943 50.569 24.9855 50.39 24.8214C50.2132 24.6574 49.9501 24.5754 49.6006 24.5754H48.4021V26.3811ZM54.2373 23.5974V30.1428H53.0803V23.5974H54.2373ZM57.5683 30.2387C57.0889 30.2387 56.6734 30.1332 56.3219 29.9223C55.9703 29.7114 55.6976 29.4163 55.5037 29.037C55.3119 28.6577 55.216 28.2146 55.216 27.7075C55.216 27.2004 55.3119 26.7561 55.5037 26.3747C55.6976 25.9933 55.9703 25.6972 56.3219 25.4862C56.6734 25.2753 57.0889 25.1698 57.5683 25.1698C58.0477 25.1698 58.4632 25.2753 58.8148 25.4862C59.1663 25.6972 59.438 25.9933 59.6297 26.3747C59.8236 26.7561 59.9206 27.2004 59.9206 27.7075C59.9206 28.2146 59.8236 28.6577 59.6297 29.037C59.438 29.4163 59.1663 29.7114 58.8148 29.9223C58.4632 30.1332 58.0477 30.2387 57.5683 30.2387ZM57.5747 29.3119C57.8347 29.3119 58.052 29.2405 58.2267 29.0977C58.4014 28.9528 58.5314 28.7589 58.6166 28.516C58.704 28.2731 58.7476 28.0026 58.7476 27.7043C58.7476 27.4038 58.704 27.1322 58.6166 26.8893C58.5314 26.6442 58.4014 26.4493 58.2267 26.3044C58.052 26.1595 57.8347 26.0871 57.5747 26.0871C57.3084 26.0871 57.0868 26.1595 56.9099 26.3044C56.7352 26.4493 56.6042 26.6442 56.5168 26.8893C56.4316 27.1322 56.389 27.4038 56.389 27.7043C56.389 28.0026 56.4316 28.2731 56.5168 28.516C56.6042 28.7589 56.7352 28.9528 56.9099 29.0977C57.0868 29.2405 57.3084 29.3119 57.5747 29.3119ZM63.0375 32.086C62.622 32.086 62.2651 32.0295 61.9668 31.9166C61.6685 31.8058 61.4288 31.6567 61.2477 31.4692C61.0666 31.2817 60.9409 31.0739 60.8706 30.8459L61.9125 30.5935C61.9594 30.6893 62.0276 30.7842 62.1171 30.8779C62.2065 30.9738 62.3269 31.0526 62.4782 31.1144C62.6316 31.1783 62.8244 31.2103 63.0567 31.2103C63.3848 31.2103 63.6565 31.1304 63.8717 30.9706C64.0869 30.8129 64.1945 30.553 64.1945 30.1908V29.2607H64.1369C64.0773 29.38 63.9899 29.5026 63.8749 29.6283C63.7619 29.754 63.6117 29.8594 63.4242 29.9447C63.2389 30.0299 63.0055 30.0725 62.7243 30.0725C62.3472 30.0725 62.0052 29.9841 61.6984 29.8072C61.3937 29.6283 61.1508 29.3619 60.9697 29.0082C60.7907 28.6524 60.7012 28.2071 60.7012 27.6723C60.7012 27.1332 60.7907 26.6783 60.9697 26.3076C61.1508 25.9347 61.3948 25.6524 61.7016 25.4606C62.0084 25.2668 62.3504 25.1698 62.7275 25.1698C63.0151 25.1698 63.2516 25.2188 63.437 25.3168C63.6245 25.4127 63.7737 25.5288 63.8845 25.6652C63.9953 25.7994 64.0794 25.9262 64.1369 26.0455H64.2009V25.2337H65.3418V30.2227C65.3418 30.6425 65.2417 30.9898 65.0414 31.2646C64.8411 31.5395 64.5673 31.7451 64.22 31.8815C63.8727 32.0178 63.4786 32.086 63.0375 32.086ZM63.0471 29.1648C63.2921 29.1648 63.5009 29.1052 63.6735 28.9859C63.8461 28.8665 63.9771 28.695 64.0666 28.4713C64.1561 28.2476 64.2009 27.9791 64.2009 27.6659C64.2009 27.357 64.1561 27.0864 64.0666 26.8541C63.9793 26.6219 63.8493 26.4418 63.6767 26.314C63.5063 26.184 63.2964 26.119 63.0471 26.119C62.7893 26.119 62.5741 26.1861 62.4015 26.3204C62.2289 26.4546 62.0989 26.6389 62.0116 26.8733C61.9242 27.1055 61.8805 27.3697 61.8805 27.6659C61.8805 27.9663 61.9242 28.2295 62.0116 28.4553C62.1011 28.679 62.2321 28.8538 62.4047 28.9795C62.5794 29.103 62.7935 29.1648 63.0471 29.1648ZM68.8111 30.1428V23.5974H71.2657C71.7685 23.5974 72.1904 23.6911 72.5313 23.8786C72.8743 24.0661 73.1332 24.3239 73.3079 24.6521C73.4848 24.978 73.5732 25.3488 73.5732 25.7643C73.5732 26.184 73.4848 26.5569 73.3079 26.8829C73.1311 27.2089 72.8701 27.4656 72.5249 27.6531C72.1797 27.8385 71.7547 27.9312 71.2497 27.9312H69.6229V26.9564H71.0899C71.3839 26.9564 71.6247 26.9053 71.8122 26.803C71.9997 26.7007 72.1382 26.5601 72.2277 26.3811C72.3193 26.2021 72.3651 25.9965 72.3651 25.7643C72.3651 25.532 72.3193 25.3275 72.2277 25.1506C72.1382 24.9738 71.9986 24.8364 71.809 24.7383C71.6215 24.6382 71.3797 24.5881 71.0835 24.5881H69.9968V30.1428H68.8111ZM76.623 30.2387C76.1436 30.2387 75.7281 30.1332 75.3766 29.9223C75.025 29.7114 74.7523 29.4163 74.5584 29.037C74.3666 28.6577 74.2707 28.2146 74.2707 27.7075C74.2707 27.2004 74.3666 26.7561 74.5584 26.3747C74.7523 25.9933 75.025 25.6972 75.3766 25.4862C75.7281 25.2753 76.1436 25.1698 76.623 25.1698C77.1024 25.1698 77.5179 25.2753 77.8695 25.4862C78.221 25.6972 78.4927 25.9933 78.6844 26.3747C78.8783 26.7561 78.9753 27.2004 78.9753 27.7075C78.9753 28.2146 78.8783 28.6577 78.6844 29.037C78.4927 29.4163 78.221 29.7114 77.8695 29.9223C77.5179 30.1332 77.1024 30.2387 76.623 30.2387ZM76.6294 29.3119C76.8893 29.3119 77.1067 29.2405 77.2814 29.0977C77.4561 28.9528 77.5861 28.7589 77.6713 28.516C77.7587 28.2731 77.8023 28.0026 77.8023 27.7043C77.8023 27.4038 77.7587 27.1322 77.6713 26.8893C77.5861 26.6442 77.4561 26.4493 77.2814 26.3044C77.1067 26.1595 76.8893 26.0871 76.6294 26.0871C76.3631 26.0871 76.1415 26.1595 75.9646 26.3044C75.7899 26.4493 75.6589 26.6442 75.5715 26.8893C75.4863 27.1322 75.4437 27.4038 75.4437 27.7043C75.4437 28.0026 75.4863 28.2731 75.5715 28.516C75.6589 28.7589 75.7899 28.9528 75.9646 29.0977C76.1415 29.2405 76.3631 29.3119 76.6294 29.3119ZM83.8372 26.5313L82.7825 26.6464C82.7527 26.5398 82.7005 26.4397 82.6259 26.3459C82.5535 26.2522 82.4555 26.1766 82.3319 26.119C82.2083 26.0615 82.057 26.0327 81.8781 26.0327C81.6373 26.0327 81.4349 26.0849 81.2708 26.1893C81.1089 26.2937 81.029 26.429 81.0311 26.5952C81.029 26.738 81.0812 26.8541 81.1877 26.9436C81.2964 27.0331 81.4754 27.1066 81.7247 27.1641L82.562 27.3431C83.0265 27.4432 83.3717 27.602 83.5975 27.8193C83.8255 28.0366 83.9406 28.3211 83.9427 28.6727C83.9406 28.9816 83.85 29.2543 83.671 29.4908C83.4942 29.7252 83.2481 29.9084 82.9328 30.0405C82.6174 30.1727 82.2552 30.2387 81.8461 30.2387C81.2453 30.2387 80.7616 30.113 80.3951 29.8616C80.0286 29.608 79.8102 29.2554 79.7399 28.8037L80.8681 28.695C80.9193 28.9166 81.0279 29.0839 81.1941 29.1968C81.3603 29.3097 81.5766 29.3662 81.8429 29.3662C82.1178 29.3662 82.3383 29.3097 82.5045 29.1968C82.6728 29.0839 82.757 28.9443 82.757 28.7781C82.757 28.6375 82.7026 28.5214 82.594 28.4298C82.4874 28.3381 82.3212 28.2678 82.0954 28.2188L81.258 28.043C80.7872 27.945 80.4388 27.7799 80.2129 27.5477C79.9871 27.3133 79.8752 27.0171 79.8774 26.6592C79.8752 26.3566 79.9573 26.0945 80.1234 25.8729C80.2918 25.6492 80.5251 25.4766 80.8234 25.3552C81.1238 25.2316 81.47 25.1698 81.8621 25.1698C82.4374 25.1698 82.8901 25.2923 83.2204 25.5374C83.5528 25.7824 83.7584 26.1137 83.8372 26.5313ZM87.3481 25.2337V26.1286H84.526V25.2337H87.3481ZM85.2227 24.0576H86.3797V28.6663C86.3797 28.8218 86.4031 28.9411 86.45 29.0242C86.499 29.1052 86.5629 29.1606 86.6417 29.1904C86.7206 29.2202 86.8079 29.2352 86.9038 29.2352C86.9763 29.2352 87.0423 29.2298 87.102 29.2192C87.1638 29.2085 87.2106 29.1989 87.2426 29.1904L87.4375 30.0949C87.3758 30.1162 87.2873 30.1396 87.1723 30.1652C87.0593 30.1908 86.9209 30.2057 86.7568 30.2099C86.467 30.2185 86.206 30.1748 85.9738 30.0789C85.7415 29.9809 85.5572 29.8296 85.4209 29.6251C85.2866 29.4205 85.2206 29.1648 85.2227 28.858V24.0576ZM91.4398 30.1428H90.1741L92.4785 23.5974H93.9422L96.2498 30.1428H94.9842L93.2359 24.9397H93.1848L91.4398 30.1428ZM91.4813 27.5764H94.933V28.5288H91.4813V27.5764ZM97.1119 30.1428V23.5974H99.5665C100.069 23.5974 100.491 23.6911 100.832 23.8786C101.175 24.0661 101.434 24.3239 101.609 24.6521C101.786 24.978 101.874 25.3488 101.874 25.7643C101.874 26.184 101.786 26.5569 101.609 26.8829C101.432 27.2089 101.171 27.4656 100.826 27.6531C100.481 27.8385 100.055 27.9312 99.5505 27.9312H97.9237V26.9564H99.3907C99.6847 26.9564 99.9255 26.9053 100.113 26.803C100.3 26.7007 100.439 26.5601 100.528 26.3811C100.62 26.2021 100.666 25.9965 100.666 25.7643C100.666 25.532 100.62 25.3275 100.528 25.1506C100.439 24.9738 100.299 24.8364 100.11 24.7383C99.9223 24.6382 99.6804 24.5881 99.3843 24.5881H98.2976V30.1428H97.1119ZM104.09 23.5974V30.1428H102.904V23.5974H104.09Z" fill="black"/>
<path d="M18.9978 32.9719V34.6697C18.9978 36.0732 22.1406 37.2143 26.0142 37.2143C29.8878 37.2143 33.0305 36.0732 33.0305 34.6697V32.9719C31.5213 34.1289 28.7622 34.6697 26.0142 34.6697C23.2661 34.6697 20.5071 34.1289 18.9978 32.9719ZM30.6917 21.9465C34.5653 21.9465 37.7081 20.8054 37.7081 19.4018C37.7081 17.9983 34.5653 16.8572 30.6917 16.8572C26.8181 16.8572 23.6754 17.9983 23.6754 19.4018C23.6754 20.8054 26.8181 21.9465 30.6917 21.9465ZM18.9978 28.8011V30.8527C18.9978 32.2562 22.1406 33.3974 26.0142 33.3974C29.8878 33.3974 33.0305 32.2562 33.0305 30.8527V28.8011C31.5213 30.1529 28.7586 30.8527 26.0142 30.8527C23.2698 30.8527 20.5071 30.1529 18.9978 28.8011ZM34.1999 29.2385C36.2938 28.7971 37.7081 27.9781 37.7081 27.0358V25.338C36.8603 25.9901 35.6141 26.4354 34.1999 26.7097V29.2385ZM26.0142 23.2188C22.1406 23.2188 18.9978 24.6422 18.9978 26.3996C18.9978 28.157 22.1406 29.5804 26.0142 29.5804C29.8878 29.5804 33.0305 28.157 33.0305 26.3996C33.0305 24.6422 29.8878 23.2188 26.0142 23.2188ZM34.0281 25.4573C36.2208 25.0279 37.7081 24.185 37.7081 23.2188V21.521C36.4108 22.519 34.1816 23.0558 31.8355 23.183C32.9136 23.7516 33.7066 24.515 34.0281 25.4573Z" fill="#3BB44A"/>
<defs>
<filter id="filter0_d_406_251" x="0.226593" y="0" width="151.773" height="53" filterUnits="userSpaceOnUse" color-interpolation-filters="sRGB">
<feFlood flood-opacity="0" result="BackgroundImageFix"/>
<feColorMatrix in="SourceAlpha" type="matrix" values="0 0 0 0 0 0 0 0 0 0 0 0 0 0 0 0 0 0 127 0" result="hardAlpha"/>
<feOffset/>
<feGaussianBlur stdDeviation="2"/>
<feComposite in2="hardAlpha" operator="out"/>
<feColorMatrix type="matrix" values="0 0 0 0 0 0 0 0 0 0 0 0 0 0 0 0 0 0 0.25 0"/>
<feBlend mode="normal" in2="BackgroundImageFix" result="effect1_dropShadow_406_251"/>
<feBlend mode="normal" in="SourceGraphic" in2="effect1_dropShadow_406_251" result="shape"/>
</filter>
</defs>
</svg>
