<svg width="120" height="198" viewBox="0 0 120 198" fill="none" xmlns="http://www.w3.org/2000/svg">
<path d="M43.1838 26.7789L43.1838 83.1519M43.1838 109.245L43.1838 165.618" stroke="black" stroke-opacity="0.29"/>
<ellipse cx="43.1838" cy="11.3139" rx="11.477" ry="10.9753" fill="black" fill-opacity="0.65"/>
<ellipse rx="11.0606" ry="10.2669" transform="matrix(1.00048 -0.00427806 -0.00430139 0.999497 43.4728 95.6237)" fill="black" fill-opacity="0.29"/>
<ellipse rx="11.0593" ry="10.777" transform="matrix(1.00048 -0.00427927 -0.00430051 0.999497 43.2445 178.626)" fill="#BFB2F3"/>
<path d="M43.1701 177.672C42.5727 178.232 42.1982 179.025 42.1963 179.904C42.1948 180.595 42.4239 181.231 42.8099 181.742L41.6318 182.918C41.5274 182.881 41.4158 182.86 41.2994 182.86C41.0429 182.861 40.8028 182.96 40.6219 183.14C40.441 183.319 40.3407 183.56 40.3402 183.815C40.3397 184.069 40.4389 184.307 40.619 184.486C40.7992 184.665 41.0412 184.758 41.2954 184.758C41.5519 184.757 41.792 184.665 41.9752 184.483C42.1561 184.303 42.2564 184.063 42.2569 183.81C42.2571 183.711 42.2431 183.617 42.2124 183.525L43.4025 182.339C43.9241 182.737 44.5744 182.971 45.2846 182.969C46.9923 182.966 48.3752 181.589 48.3787 179.893C48.382 178.356 47.2518 177.086 45.7678 176.865L45.7709 175.413C46.1869 175.237 46.4418 174.85 46.4428 174.4C46.4441 173.785 45.9488 173.272 45.3289 173.273C44.709 173.274 44.2186 173.789 44.2173 174.405C44.2163 174.855 44.4697 175.241 44.8849 175.415L44.8819 176.857C44.5208 176.908 44.1785 177.017 43.867 177.18C43.2125 176.689 41.0805 175.166 39.8617 174.247C39.8904 174.143 39.9096 174.034 39.9099 173.921C39.9113 173.242 39.3543 172.692 38.6679 172.693C37.9839 172.695 37.4269 173.247 37.4255 173.926C37.4241 174.608 37.9787 175.158 38.6627 175.157C38.8955 175.156 39.1117 175.087 39.2996 174.976L43.1701 177.672ZM45.2876 181.524C44.3827 181.526 43.6504 180.799 43.6523 179.901C43.6542 179.003 44.3896 178.273 45.2945 178.271C46.1995 178.269 46.9318 178.996 46.9299 179.894C46.928 180.792 46.1926 181.522 45.2876 181.524Z" fill="white"/>
<path d="M48.5849 93.4288C48.5871 92.3864 47.7539 91.5439 46.723 91.5461C45.692 91.5483 44.8553 92.3944 44.8531 93.4367C44.8512 94.2952 45.4165 95.018 46.1904 95.2451C46.1756 95.6248 46.091 95.9174 45.932 96.1158C45.5718 96.5694 44.781 96.6465 43.9435 96.7261C43.2856 96.7889 42.6044 96.8563 42.0464 97.1287L42.0535 93.7328C42.8121 93.4906 43.3617 92.7749 43.3635 91.9306C43.3657 90.8882 42.5325 90.0457 41.5016 90.0479C40.4706 90.0501 39.6338 90.8962 39.6316 91.9385C39.6298 92.7828 40.1764 93.4962 40.934 93.7351L40.924 98.4353C40.1655 98.6798 39.6159 99.3955 39.6141 100.24C39.6119 101.282 40.4451 102.125 41.476 102.122C42.5069 102.12 43.3437 101.274 43.3459 100.232C43.3476 99.43 42.8546 98.7448 42.1555 98.4751C42.228 98.3523 42.3379 98.2436 42.5037 98.1583C42.8819 97.9642 43.4465 97.9111 44.046 97.8532C45.0305 97.7591 46.1456 97.6506 46.8051 96.8238C47.1325 96.4128 47.2992 95.8842 47.3123 95.2215C48.0499 94.9652 48.5832 94.2589 48.5849 93.4288ZM41.4984 91.5572C41.7036 91.5568 41.8712 91.7262 41.8707 91.9338C41.8703 92.1413 41.702 92.3115 41.4968 92.3119C41.2915 92.3123 41.1239 92.1429 41.1244 91.9354C41.1248 91.7278 41.2931 91.5577 41.4984 91.5572ZM41.4792 100.613C41.2739 100.614 41.1064 100.444 41.1068 100.237C41.1073 100.029 41.2755 99.8589 41.4808 99.8585C41.6861 99.8581 41.8536 100.027 41.8532 100.235C41.8527 100.443 41.6845 100.613 41.4792 100.613ZM46.7198 93.0554C46.925 93.055 47.0926 93.2244 47.0922 93.432C47.0917 93.6395 46.9234 93.8097 46.7182 93.8101C46.5129 93.8105 46.3454 93.6411 46.3458 93.4336C46.3462 93.226 46.5145 93.0559 46.7198 93.0554Z" fill="white"/>
<path d="M48.5849 93.4288C48.5871 92.3864 47.7539 91.5439 46.723 91.5461C45.692 91.5483 44.8553 92.3944 44.8531 93.4367C44.8512 94.2952 45.4165 95.018 46.1904 95.2451C46.1756 95.6248 46.091 95.9174 45.932 96.1158C45.5718 96.5694 44.781 96.6465 43.9435 96.7261C43.2856 96.7889 42.6044 96.8563 42.0464 97.1287L42.0535 93.7328C42.8121 93.4906 43.3617 92.7749 43.3635 91.9306C43.3657 90.8882 42.5325 90.0457 41.5016 90.0479C40.4706 90.0501 39.6338 90.8962 39.6316 91.9385C39.6298 92.7828 40.1764 93.4962 40.934 93.7351L40.924 98.4353C40.1655 98.6798 39.6159 99.3955 39.6141 100.24C39.6119 101.282 40.4451 102.125 41.476 102.122C42.5069 102.12 43.3437 101.274 43.3459 100.232C43.3476 99.43 42.8546 98.7448 42.1555 98.4751C42.228 98.3523 42.3379 98.2436 42.5037 98.1583C42.8819 97.9642 43.4465 97.9111 44.046 97.8532C45.0305 97.7591 46.1456 97.6506 46.8051 96.8238C47.1325 96.4128 47.2992 95.8842 47.3123 95.2215C48.0499 94.9652 48.5832 94.2589 48.5849 93.4288ZM41.4984 91.5572C41.7036 91.5568 41.8712 91.7262 41.8707 91.9338C41.8703 92.1413 41.702 92.3115 41.4968 92.3119C41.2915 92.3123 41.1239 92.1429 41.1244 91.9354C41.1248 91.7278 41.2931 91.5577 41.4984 91.5572ZM41.4792 100.613C41.2739 100.614 41.1064 100.444 41.1068 100.237C41.1073 100.029 41.2755 99.8589 41.4808 99.8585C41.6861 99.8581 41.8536 100.027 41.8532 100.235C41.8527 100.443 41.6845 100.613 41.4792 100.613ZM46.7198 93.0554C46.925 93.055 47.0926 93.2244 47.0922 93.432C47.0917 93.6395 46.9234 93.8097 46.7182 93.8101C46.5129 93.8105 46.3454 93.6411 46.3458 93.4336C46.3462 93.226 46.5145 93.0559 46.7198 93.0554Z" fill="white"/>
<path d="M40.952 15.1115C40.9519 15.1614 40.8918 15.2014 40.8161 15.2016C40.7299 15.2092 40.67 15.1694 40.6701 15.1121C40.6702 15.0621 40.7303 15.0221 40.806 15.0219C40.8844 15.0143 40.9522 15.0541 40.952 15.1115ZM40.1404 15.0009C40.122 15.0508 40.1741 15.1081 40.2524 15.1229C40.3202 15.1477 40.3986 15.1226 40.4143 15.0727C40.4301 15.0227 40.3806 14.9655 40.3024 14.9432C40.2345 14.9258 40.1588 14.951 40.1404 15.0009ZM41.2943 14.956C41.2186 14.9737 41.1663 15.0212 41.174 15.0785C41.1817 15.1284 41.2495 15.1607 41.3279 15.1431C41.4036 15.1255 41.4559 15.0779 41.4482 15.0281C41.4405 14.9807 41.3701 14.9484 41.2943 14.956ZM43.0324 5.39146C39.4115 5.39915 36.6361 8.03229 36.6288 11.4929C36.6229 14.2599 38.4401 16.6238 41.0411 17.4516C41.3751 17.5083 41.493 17.3109 41.4933 17.1487C41.4937 16.994 41.4876 16.1408 41.4887 15.6168C41.4887 15.6168 39.6605 15.9949 39.2792 14.878C39.2792 14.878 38.9831 14.1526 38.5553 13.9663C38.5553 13.9663 37.9584 13.5759 38.5979 13.582C38.5979 13.582 39.2479 13.6305 39.6042 14.2236C40.1739 15.1855 41.1326 14.9065 41.5063 14.741C41.5671 14.3417 41.7374 14.0644 41.9257 13.8993C40.4667 13.7477 38.9948 13.5487 38.9999 11.1485C39.0013 10.4624 39.2005 10.1177 39.6191 9.67765C39.5516 9.51562 39.3311 8.84742 39.6906 7.98339C40.2365 7.82005 41.4904 8.65322 41.4904 8.65322C42.0128 8.51239 42.5743 8.43884 43.1303 8.43766C43.6864 8.43648 44.2475 8.50765 44.7693 8.64626C44.7693 8.64626 46.0268 7.80526 46.5721 7.96878C46.9279 8.83379 46.7046 9.50043 46.6363 9.66275C47.0531 10.1035 47.3082 10.4473 47.3068 11.1309C47.3017 13.5386 45.7636 13.734 44.304 13.8943C44.5437 14.0909 44.7466 14.4647 44.7453 15.051C44.7435 15.8918 44.7335 16.9323 44.7331 17.1369C44.7327 17.299 44.8524 17.4959 45.1841 17.4378C47.7964 16.6039 49.5714 14.2324 49.5772 11.4654C49.5846 8.0048 46.6532 5.38377 43.0324 5.39146ZM39.1609 14.005C39.1269 14.03 39.1346 14.0874 39.1789 14.1347C39.2206 14.1745 39.2806 14.1918 39.3146 14.1593C39.3486 14.1343 39.3409 14.0769 39.2966 14.0296C39.2549 13.9898 39.1949 13.9725 39.1609 14.005ZM38.8794 13.8035C38.8611 13.8359 38.8871 13.8758 38.9392 13.9007C38.981 13.9255 39.0332 13.9179 39.0515 13.883C39.0699 13.8505 39.0439 13.8106 38.9917 13.7858C38.9395 13.7709 38.8977 13.7785 38.8794 13.8035ZM39.7233 14.6899C39.6815 14.7224 39.697 14.7972 39.757 14.8445C39.8169 14.9018 39.8926 14.9091 39.9266 14.8691C39.9606 14.8366 39.9451 14.7618 39.893 14.7145C39.8357 14.6572 39.7574 14.6499 39.7233 14.6899ZM39.4265 14.3238C39.3847 14.3488 39.3846 14.4137 39.4262 14.471C39.4679 14.5283 39.5383 14.5531 39.5723 14.5281C39.6141 14.4955 39.6143 14.4307 39.5726 14.3734C39.5362 14.3161 39.4684 14.2912 39.4265 14.3238Z" fill="white"/>
</svg>
