<svg width="38" height="114" viewBox="0 0 38 114" fill="none" xmlns="http://www.w3.org/2000/svg">
<path d="M18.5 26.5L18.5 83" stroke="black" stroke-opacity="0.29"/>
<ellipse cx="18.5" cy="11" rx="11.5" ry="11" fill="#3BB44A"/>
<ellipse rx="11.0692" ry="10.2649" transform="matrix(0.999981 -0.00610463 -0.00617151 0.999981 18.7895 95.4999)" fill="#E31E25"/>
<path d="M24 11C24 14.3144 21.3135 17 18 17C14.6865 17 12 14.3144 12 11C12 7.68749 14.6865 5 18 5C21.3135 5 24 7.68749 24 11ZM18.161 6.98387C16.8425 6.98387 16.0016 7.53928 15.3413 8.5264C15.2557 8.65429 15.2843 8.82677 15.407 8.91974L16.2465 9.55627C16.3724 9.65177 16.5518 9.62905 16.6496 9.50494C17.0818 8.95676 17.3782 8.63888 18.036 8.63888C18.5303 8.63888 19.1416 8.95698 19.1416 9.43625C19.1416 9.79857 18.8425 9.98464 18.3545 10.2582C17.7854 10.5773 17.0323 10.9744 17.0323 11.9677V12.0645C17.0323 12.2248 17.1623 12.3548 17.3226 12.3548H18.6774C18.8377 12.3548 18.9677 12.2248 18.9677 12.0645V12.0323C18.9677 11.3437 20.9803 11.315 20.9803 9.45161C20.9803 8.04834 19.5247 6.98387 18.161 6.98387ZM18 12.9839C17.3863 12.9839 16.8871 13.4831 16.8871 14.0968C16.8871 14.7104 17.3863 15.2097 18 15.2097C18.6137 15.2097 19.1129 14.7104 19.1129 14.0968C19.1129 13.4831 18.6137 12.9839 18 12.9839Z" fill="white"/>
<path d="M25 92.6562C25 91.534 23.9745 90.625 22.7083 90.625C21.4422 90.625 20.4167 91.534 20.4167 92.6562C20.4167 93.5805 21.1128 94.36 22.0638 94.6063C22.0466 95.015 21.9435 95.3299 21.7487 95.5432C21.3076 96.0307 20.3365 96.1119 19.3081 96.1957C18.5003 96.2617 17.6638 96.3328 16.9792 96.6248V92.9686C17.9102 92.7096 18.5833 91.9402 18.5833 91.0312C18.5833 89.909 17.5578 89 16.2917 89C15.0255 89 14 89.909 14 91.0312C14 91.9402 14.6732 92.7096 15.6042 92.9686V98.0289C14.6732 98.2904 14 99.0598 14 99.9688C14 101.091 15.0255 102 16.2917 102C17.5578 102 18.5833 101.091 18.5833 99.9688C18.5833 99.1055 17.976 98.3666 17.1167 98.0746C17.2055 97.9426 17.3401 97.8258 17.5435 97.7344C18.0076 97.5262 18.7008 97.4703 19.437 97.4094C20.6458 97.3104 22.0151 97.1961 22.8229 96.3074C23.224 95.8656 23.4273 95.2969 23.4417 94.5834C24.3469 94.3092 25 93.55 25 92.6562ZM16.2917 90.625C16.5438 90.625 16.75 90.8078 16.75 91.0312C16.75 91.2547 16.5438 91.4375 16.2917 91.4375C16.0396 91.4375 15.8333 91.2547 15.8333 91.0312C15.8333 90.8078 16.0396 90.625 16.2917 90.625ZM16.2917 100.375C16.0396 100.375 15.8333 100.192 15.8333 99.9688C15.8333 99.7453 16.0396 99.5625 16.2917 99.5625C16.5438 99.5625 16.75 99.7453 16.75 99.9688C16.75 100.192 16.5438 100.375 16.2917 100.375ZM22.7083 92.25C22.9604 92.25 23.1667 92.4328 23.1667 92.6562C23.1667 92.8797 22.9604 93.0625 22.7083 93.0625C22.4563 93.0625 22.25 92.8797 22.25 92.6562C22.25 92.4328 22.4563 92.25 22.7083 92.25Z" fill="white"/>
</svg>
