<svg width="39" height="114" viewBox="0 0 39 114" fill="none" xmlns="http://www.w3.org/2000/svg">
<path d="M19.4377 26.4899L19.4377 82.6113" stroke="black" stroke-opacity="0.29"/>
<ellipse cx="19.4378" cy="11.0938" rx="11.4911" ry="10.9263" fill="#3BB44A"/>
<path d="M16.812 13.4352H20.7515C21.8389 13.4352 22.7212 12.3864 22.7212 11.0938H23.3778C24.8263 11.0938 26.0041 9.69389 26.0041 7.97202C26.0041 6.25015 24.8263 4.85022 23.3778 4.85022H15.3347C15.0618 4.85022 14.8423 5.11118 14.8423 5.43556V11.0938C14.8423 12.3864 15.7246 13.4352 16.812 13.4352ZM23.3778 6.41112C24.1021 6.41112 24.6909 7.11109 24.6909 7.97202C24.6909 8.83295 24.1021 9.53292 23.3778 9.53292H22.7212V6.41112H23.3778ZM24.3565 15.7765H13.8636C12.8869 15.7765 12.612 14.2156 13.1249 14.2156H25.0931C25.606 14.2156 25.3352 15.7765 24.3565 15.7765Z" fill="white"/>
<ellipse rx="11.0568" ry="10.2376" transform="matrix(1.00205 -0.00426119 -0.00431807 0.997885 19.727 95.0274)" fill="#E31E25"/>
<path d="M21.3567 90.5577H15.8534C15.3496 90.5577 14.9412 91.0006 14.9412 91.5469V97.515C14.9412 98.0613 15.3496 98.5041 15.8534 98.5041H21.3567C21.8605 98.5041 22.2689 98.0613 22.2689 97.515V91.5469C22.2689 91.0006 21.8605 90.5577 21.3567 90.5577ZM24.971 91.3379L22.8795 92.9023V96.1595L24.971 97.7219C25.3755 98.024 25.9327 97.7157 25.9327 97.188V91.8718C25.9327 91.3462 25.3774 91.0358 24.971 91.3379Z" fill="white"/>
</svg>
