<svg width="90" height="97" viewBox="0 0 90 97" fill="none" xmlns="http://www.w3.org/2000/svg">
<rect width="90" height="97" rx="4" fill="black" fill-opacity="0.65"/>
<path d="M0.15 4C0.15 1.8737 1.8737 0.15 4 0.15H86C88.1263 0.15 89.85 1.8737 89.85 4V93C89.85 95.1263 88.1263 96.85 86 96.85H4C1.8737 96.85 0.15 95.1263 0.15 93V4Z" stroke="#D9D9D9" stroke-width="0.3"/>
<path d="M10.5876 42.5137H11.5024V46.0933C11.5007 46.4214 11.4311 46.704 11.2936 46.9409C11.156 47.1763 10.9638 47.3577 10.7168 47.4853C10.4716 47.6113 10.1857 47.6742 9.85925 47.6742C9.56095 47.6742 9.29249 47.6212 9.05385 47.5152C8.81687 47.4074 8.62878 47.2483 8.48958 47.0379C8.35037 46.8274 8.28077 46.5656 8.28077 46.2524H9.19803C9.19969 46.3899 9.22952 46.5084 9.28752 46.6078C9.34718 46.7073 9.42921 46.7835 9.53361 46.8365C9.63801 46.8896 9.75816 46.9161 9.89405 46.9161C10.0415 46.9161 10.1667 46.8854 10.2694 46.8241C10.3722 46.7611 10.45 46.6683 10.5031 46.5457C10.5578 46.4231 10.5859 46.2723 10.5876 46.0933V42.5137ZM13.5618 47.6817C13.3199 47.6817 13.102 47.6386 12.9081 47.5524C12.7158 47.4646 12.5634 47.3354 12.4507 47.1647C12.3397 46.994 12.2841 46.7835 12.2841 46.5333C12.2841 46.3178 12.3239 46.1397 12.4035 45.9988C12.483 45.858 12.5916 45.7453 12.7291 45.6608C12.8666 45.5762 13.0216 45.5124 13.1939 45.4693C13.368 45.4246 13.5478 45.3923 13.7334 45.3724C13.9571 45.3492 14.1385 45.3285 14.2778 45.3103C14.417 45.2904 14.518 45.2605 14.581 45.2208C14.6456 45.1793 14.678 45.1155 14.678 45.0294V45.0144C14.678 44.8272 14.6224 44.6822 14.5114 44.5794C14.4004 44.4767 14.2405 44.4253 14.0317 44.4253C13.8113 44.4253 13.6364 44.4734 13.5072 44.5695C13.3796 44.6656 13.2934 44.7791 13.2486 44.91L12.4084 44.7907C12.4747 44.5587 12.5841 44.3648 12.7366 44.209C12.889 44.0516 13.0755 43.934 13.2959 43.8561C13.5163 43.7765 13.7599 43.7367 14.0267 43.7367C14.2106 43.7367 14.3938 43.7583 14.576 43.8014C14.7583 43.8445 14.9249 43.9157 15.0757 44.0152C15.2265 44.1129 15.3475 44.2463 15.4386 44.4154C15.5314 44.5844 15.5778 44.7957 15.5778 45.0492V47.6046H14.7128V47.0801H14.6829C14.6282 47.1862 14.5512 47.2856 14.4518 47.3784C14.354 47.4696 14.2305 47.5433 14.0814 47.5997C13.9339 47.6544 13.7607 47.6817 13.5618 47.6817ZM13.7955 47.0205C13.9761 47.0205 14.1327 46.9849 14.2653 46.9136C14.3979 46.8407 14.4998 46.7446 14.5711 46.6252C14.644 46.5059 14.6805 46.3758 14.6805 46.235V45.785C14.6523 45.8082 14.6042 45.8298 14.5363 45.8497C14.47 45.8696 14.3954 45.887 14.3126 45.9019C14.2297 45.9168 14.1477 45.93 14.0665 45.9416C13.9853 45.9532 13.9148 45.9632 13.8552 45.9715C13.7209 45.9897 13.6008 46.0195 13.4947 46.061C13.3887 46.1024 13.305 46.1604 13.2437 46.235C13.1823 46.3079 13.1517 46.4023 13.1517 46.5184C13.1517 46.6841 13.2122 46.8092 13.3331 46.8937C13.4541 46.9782 13.6082 47.0205 13.7955 47.0205ZM19.7564 43.7865L18.3967 47.6046H17.4024L16.0427 43.7865H17.0022L17.8797 46.6228H17.9194L18.7994 43.7865H19.7564ZM21.3685 47.6817C21.1265 47.6817 20.9086 47.6386 20.7147 47.5524C20.5225 47.4646 20.37 47.3354 20.2573 47.1647C20.1463 46.994 20.0908 46.7835 20.0908 46.5333C20.0908 46.3178 20.1306 46.1397 20.2101 45.9988C20.2896 45.858 20.3982 45.7453 20.5357 45.6608C20.6733 45.5762 20.8282 45.5124 21.0006 45.4693C21.1746 45.4246 21.3544 45.3923 21.54 45.3724C21.7637 45.3492 21.9452 45.3285 22.0844 45.3103C22.2236 45.2904 22.3247 45.2605 22.3877 45.2208C22.4523 45.1793 22.4846 45.1155 22.4846 45.0294V45.0144C22.4846 44.8272 22.4291 44.6822 22.3181 44.5794C22.207 44.4767 22.0471 44.4253 21.8383 44.4253C21.6179 44.4253 21.4431 44.4734 21.3138 44.5695C21.1862 44.6656 21.1 44.7791 21.0553 44.91L20.2151 44.7907C20.2814 44.5587 20.3907 44.3648 20.5432 44.209C20.6957 44.0516 20.8821 43.934 21.1025 43.8561C21.3229 43.7765 21.5665 43.7367 21.8333 43.7367C22.0173 43.7367 22.2004 43.7583 22.3827 43.8014C22.565 43.8445 22.7315 43.9157 22.8823 44.0152C23.0331 44.1129 23.1541 44.2463 23.2453 44.4154C23.3381 44.5844 23.3845 44.7957 23.3845 45.0492V47.6046H22.5194V47.0801H22.4896C22.4349 47.1862 22.3578 47.2856 22.2584 47.3784C22.1606 47.4696 22.0372 47.5433 21.888 47.5997C21.7405 47.6544 21.5673 47.6817 21.3685 47.6817ZM21.6021 47.0205C21.7828 47.0205 21.9394 46.9849 22.072 46.9136C22.2045 46.8407 22.3065 46.7446 22.3777 46.6252C22.4506 46.5059 22.4871 46.3758 22.4871 46.235V45.785C22.4589 45.8082 22.4109 45.8298 22.3429 45.8497C22.2766 45.8696 22.2021 45.887 22.1192 45.9019C22.0363 45.9168 21.9543 45.93 21.8731 45.9416C21.7919 45.9532 21.7215 45.9632 21.6618 45.9715C21.5276 45.9897 21.4074 46.0195 21.3014 46.061C21.1953 46.1024 21.1116 46.1604 21.0503 46.235C20.989 46.3079 20.9583 46.4023 20.9583 46.5184C20.9583 46.6841 21.0188 46.8092 21.1398 46.8937C21.2608 46.9782 21.4149 47.0205 21.6021 47.0205Z" fill="#F0DB4F"/>
<path d="M27.0958 43.9132C27.0726 43.6961 26.9748 43.5271 26.8024 43.4061C26.6317 43.2852 26.4097 43.2247 26.1362 43.2247C25.944 43.2247 25.7791 43.2537 25.6416 43.3117C25.504 43.3697 25.3988 43.4484 25.3259 43.5478C25.253 43.6473 25.2157 43.7608 25.214 43.8884C25.214 43.9944 25.238 44.0864 25.2861 44.1643C25.3358 44.2422 25.4029 44.3085 25.4874 44.3632C25.572 44.4162 25.6656 44.4609 25.7683 44.4974C25.8711 44.5339 25.9747 44.5645 26.0791 44.5894L26.5563 44.7087C26.7486 44.7534 26.9334 44.8139 27.1107 44.8902C27.2896 44.9664 27.4496 45.0625 27.5904 45.1785C27.7329 45.2945 27.8456 45.4345 27.9285 45.5986C28.0114 45.7627 28.0528 45.9549 28.0528 46.1753C28.0528 46.4736 27.9766 46.7363 27.8241 46.9633C27.6716 47.1887 27.4512 47.3652 27.1629 47.4928C26.8762 47.6187 26.529 47.6817 26.1213 47.6817C25.7253 47.6817 25.3814 47.6204 25.0897 47.4978C24.7997 47.3751 24.5727 47.1961 24.4086 46.9608C24.2462 46.7255 24.1584 46.4388 24.1451 46.1007H25.0524C25.0657 46.2781 25.1204 46.4255 25.2165 46.5432C25.3126 46.6609 25.4377 46.7487 25.5918 46.8067C25.7476 46.8647 25.9216 46.8937 26.1139 46.8937C26.3144 46.8937 26.4901 46.8639 26.6409 46.8042C26.7933 46.7429 26.9126 46.6584 26.9988 46.5507C27.085 46.4413 27.1289 46.3137 27.1306 46.1679C27.1289 46.0353 27.09 45.9259 27.0137 45.8397C26.9375 45.7519 26.8306 45.679 26.6931 45.621C26.5572 45.5613 26.3981 45.5083 26.2158 45.4619L25.6366 45.3127C25.2173 45.205 24.8859 45.0418 24.6423 44.823C24.4003 44.6026 24.2793 44.3101 24.2793 43.9456C24.2793 43.6456 24.3606 43.3829 24.523 43.1576C24.687 42.9322 24.9099 42.7573 25.1916 42.6331C25.4734 42.5071 25.7924 42.4441 26.1487 42.4441C26.5099 42.4441 26.8265 42.5071 27.0982 42.6331C27.3717 42.7573 27.5863 42.9305 27.7421 43.1526C27.8978 43.373 27.9782 43.6265 27.9832 43.9132H27.0958ZM30.5007 47.6792C30.1195 47.6792 29.7922 47.5955 29.5188 47.4282C29.247 47.2608 29.0374 47.0296 28.8899 46.7346C28.744 46.438 28.6711 46.0966 28.6711 45.7105C28.6711 45.3227 28.7457 44.9805 28.8949 44.6838C29.044 44.3855 29.2545 44.1535 29.5262 43.9878C29.7997 43.8204 30.1228 43.7367 30.4957 43.7367C30.8056 43.7367 31.0799 43.7939 31.3185 43.9083C31.5588 44.021 31.7502 44.1809 31.8927 44.388C32.0352 44.5935 32.1164 44.8338 32.1363 45.1089H31.2762C31.2414 44.925 31.1586 44.7717 31.0277 44.649C30.8984 44.5247 30.7252 44.4626 30.5081 44.4626C30.3242 44.4626 30.1626 44.5123 30.0234 44.6117C29.8842 44.7095 29.7757 44.8504 29.6978 45.0343C29.6215 45.2183 29.5834 45.4387 29.5834 45.6956C29.5834 45.9557 29.6215 46.1795 29.6978 46.3667C29.774 46.5523 29.8809 46.6957 30.0184 46.7968C30.1576 46.8962 30.3209 46.9459 30.5081 46.9459C30.6407 46.9459 30.7592 46.9211 30.8636 46.8713C30.9697 46.82 31.0583 46.7462 31.1296 46.6501C31.2008 46.554 31.2497 46.4371 31.2762 46.2996H32.1363C32.1148 46.5697 32.0352 46.8092 31.8977 47.018C31.7601 47.2251 31.5729 47.3876 31.3359 47.5052C31.0989 47.6212 30.8205 47.6792 30.5007 47.6792ZM32.8752 47.6046V43.7865H33.7477V44.4228H33.7875C33.8571 44.2024 33.9764 44.0326 34.1455 43.9132C34.3162 43.7923 34.5109 43.7318 34.7296 43.7318C34.7793 43.7318 34.8349 43.7343 34.8962 43.7392C34.9592 43.7425 35.0114 43.7483 35.0528 43.7566V44.5844C35.0147 44.5711 34.9542 44.5595 34.8713 44.5496C34.7901 44.538 34.7114 44.5322 34.6352 44.5322C34.4711 44.5322 34.3236 44.5678 34.1927 44.6391C34.0634 44.7087 33.9615 44.8056 33.8869 44.9299C33.8124 45.0542 33.7751 45.1976 33.7751 45.36V47.6046H32.8752ZM35.6506 47.6046V43.7865H36.5505V47.6046H35.6506ZM36.103 43.2446C35.9605 43.2446 35.8379 43.1973 35.7351 43.1029C35.6324 43.0068 35.581 42.8916 35.581 42.7573C35.581 42.6215 35.6324 42.5063 35.7351 42.4118C35.8379 42.3157 35.9605 42.2676 36.103 42.2676C36.2472 42.2676 36.3698 42.3157 36.4709 42.4118C36.5737 42.5063 36.6251 42.6215 36.6251 42.7573C36.6251 42.8916 36.5737 43.0068 36.4709 43.1029C36.3698 43.1973 36.2472 43.2446 36.103 43.2446ZM37.4758 49.0365V43.7865H38.3608V44.4179H38.413C38.4594 44.3251 38.5248 44.2264 38.6093 44.122C38.6939 44.016 38.8082 43.9257 38.9524 43.8511C39.0966 43.7749 39.2805 43.7367 39.5042 43.7367C39.7992 43.7367 40.0652 43.8121 40.3022 43.963C40.5408 44.1121 40.7297 44.3333 40.8689 44.6267C41.0098 44.9183 41.0802 45.2763 41.0802 45.7005C41.0802 46.1198 41.0114 46.4761 40.8739 46.7694C40.7364 47.0627 40.5491 47.2865 40.3121 47.4406C40.0751 47.5947 39.8067 47.6718 39.5067 47.6718C39.288 47.6718 39.1065 47.6353 38.9623 47.5624C38.8181 47.4895 38.7021 47.4016 38.6143 47.2989C38.5281 47.1945 38.461 47.0959 38.413 47.0031H38.3757V49.0365H37.4758ZM38.3583 45.6956C38.3583 45.9425 38.3931 46.1587 38.4627 46.3443C38.5339 46.53 38.6359 46.675 38.7684 46.7794C38.9027 46.8821 39.0651 46.9335 39.2556 46.9335C39.4545 46.9335 39.6211 46.8804 39.7553 46.7744C39.8895 46.6667 39.9906 46.52 40.0586 46.3344C40.1282 46.1471 40.163 45.9342 40.163 45.6956C40.163 45.4586 40.129 45.2481 40.061 45.0642C39.9931 44.8802 39.892 44.736 39.7578 44.6316C39.6235 44.5272 39.4562 44.475 39.2556 44.475C39.0634 44.475 38.9002 44.5256 38.7659 44.6267C38.6317 44.7278 38.5298 44.8694 38.4602 45.0517C38.3922 45.234 38.3583 45.4486 38.3583 45.6956ZM43.7574 43.7865V44.4825H41.5625V43.7865H43.7574ZM42.1044 42.8717H43.0042V46.4562C43.0042 46.5772 43.0225 46.67 43.0589 46.7346C43.097 46.7976 43.1467 46.8407 43.2081 46.8639C43.2694 46.8871 43.3373 46.8987 43.4119 46.8987C43.4682 46.8987 43.5196 46.8945 43.566 46.8862C43.6141 46.878 43.6505 46.8705 43.6754 46.8639L43.827 47.5674C43.779 47.5839 43.7102 47.6022 43.6207 47.622C43.5329 47.6419 43.4252 47.6535 43.2975 47.6568C43.0722 47.6635 42.8692 47.6295 42.6885 47.5549C42.5079 47.4787 42.3645 47.361 42.2585 47.2019C42.1541 47.0429 42.1027 46.844 42.1044 46.6054V42.8717Z" fill="white"/>
<path d="M8.51728 61.3953V57.759H8.95762V61.0047H10.648V61.3953H8.51728ZM12.4164 61.4522C12.1536 61.4522 11.927 61.3942 11.7364 61.2782C11.547 61.161 11.4008 60.9976 11.2978 60.7881C11.196 60.5774 11.1451 60.3324 11.1451 60.053C11.1451 59.7737 11.196 59.5274 11.2978 59.3144C11.4008 59.1001 11.544 58.9332 11.7275 58.8137C11.9122 58.6929 12.1276 58.6326 12.3738 58.6326C12.5159 58.6326 12.6561 58.6562 12.7946 58.7036C12.9331 58.7509 13.0592 58.8279 13.1728 58.9344C13.2865 59.0398 13.377 59.1794 13.4445 59.3534C13.5119 59.5274 13.5457 59.7417 13.5457 59.9962V60.1737H11.4434V59.8115H13.1195C13.1195 59.6577 13.0888 59.5203 13.0272 59.3996C12.9668 59.2789 12.8804 59.1836 12.768 59.1137C12.6567 59.0439 12.5253 59.009 12.3738 59.009C12.2069 59.009 12.0625 59.0504 11.9406 59.1333C11.8198 59.2149 11.7269 59.3215 11.6618 59.4529C11.5967 59.5843 11.5642 59.7251 11.5642 59.8755V60.1169C11.5642 60.3229 11.5997 60.4975 11.6707 60.6407C11.7429 60.7828 11.8429 60.8911 11.9708 60.9657C12.0986 61.039 12.2472 61.0757 12.4164 61.0757C12.5265 61.0757 12.6259 61.0603 12.7147 61.0296C12.8047 60.9976 12.8822 60.9503 12.9473 60.8875C13.0124 60.8236 13.0627 60.7443 13.0982 60.6496L13.5031 60.7632C13.4605 60.9005 13.3888 61.0213 13.2882 61.1255C13.1876 61.2284 13.0633 61.3089 12.9154 61.3669C12.7674 61.4237 12.6011 61.4522 12.4164 61.4522ZM14.9857 61.4593C14.8128 61.4593 14.656 61.4267 14.5151 61.3616C14.3743 61.2953 14.2624 61.2 14.1796 61.0757C14.0967 60.9503 14.0553 60.7987 14.0553 60.6212C14.0553 60.4649 14.086 60.3383 14.1476 60.2412C14.2092 60.143 14.2914 60.066 14.3944 60.0104C14.4974 59.9548 14.611 59.9133 14.7353 59.8861C14.8608 59.8577 14.9869 59.8352 15.1135 59.8186C15.2792 59.7973 15.4136 59.7813 15.5166 59.7707C15.6207 59.7589 15.6965 59.7393 15.7438 59.7121C15.7924 59.6849 15.8166 59.6375 15.8166 59.5701V59.5559C15.8166 59.3807 15.7687 59.2445 15.6728 59.1475C15.5781 59.0504 15.4343 59.0019 15.2414 59.0019C15.0413 59.0019 14.8845 59.0457 14.7708 59.1333C14.6572 59.2209 14.5773 59.3144 14.5311 59.4138L14.1334 59.2718C14.2044 59.106 14.2991 58.977 14.4175 58.8847C14.537 58.7912 14.6673 58.7261 14.8081 58.6894C14.9502 58.6515 15.0898 58.6326 15.2271 58.6326C15.3147 58.6326 15.4154 58.6432 15.529 58.6645C15.6438 58.6846 15.7545 58.7267 15.861 58.7906C15.9687 58.8545 16.0581 58.951 16.1291 59.08C16.2002 59.209 16.2357 59.3818 16.2357 59.5985V61.3953H15.8166V61.026H15.7953C15.7669 61.0852 15.7196 61.1485 15.6533 61.216C15.587 61.2835 15.4988 61.3409 15.3887 61.3882C15.2786 61.4356 15.1443 61.4593 14.9857 61.4593ZM15.0496 61.0828C15.2153 61.0828 15.355 61.0503 15.4686 60.9852C15.5834 60.9201 15.6699 60.836 15.7279 60.7331C15.787 60.6301 15.8166 60.5218 15.8166 60.4081V60.0246C15.7989 60.0459 15.7598 60.0654 15.6994 60.0832C15.6403 60.0998 15.5716 60.1146 15.4935 60.1276C15.4165 60.1394 15.3414 60.1501 15.268 60.1595C15.1958 60.1678 15.1372 60.1749 15.0922 60.1809C14.9833 60.1951 14.8815 60.2181 14.7868 60.2501C14.6933 60.2809 14.6175 60.3276 14.5595 60.3904C14.5027 60.4519 14.4743 60.536 14.4743 60.6425C14.4743 60.7881 14.5282 60.8982 14.6359 60.9728C14.7448 61.0461 14.8827 61.0828 15.0496 61.0828ZM17.0005 61.3953V58.6681H17.4053V59.08H17.4337C17.4835 58.9451 17.5734 58.8356 17.7036 58.7515C17.8338 58.6675 17.9806 58.6255 18.144 58.6255C18.1747 58.6255 18.2132 58.626 18.2594 58.6272C18.3055 58.6284 18.3405 58.6302 18.3641 58.6326V59.0587C18.3499 59.0551 18.3174 59.0498 18.2665 59.0427C18.2168 59.0344 18.1641 59.0303 18.1085 59.0303C17.9759 59.0303 17.8575 59.0581 17.7533 59.1137C17.6504 59.1682 17.5687 59.2439 17.5083 59.341C17.4491 59.4369 17.4195 59.5464 17.4195 59.6695V61.3953H17.0005ZM19.2799 59.7547V61.3953H18.8608V58.6681H19.2657V59.0942H19.3012C19.3651 58.9557 19.4622 58.8444 19.5924 58.7604C19.7226 58.6752 19.8907 58.6326 20.0966 58.6326C20.2813 58.6326 20.4429 58.6704 20.5814 58.7462C20.7199 58.8208 20.8276 58.9344 20.9045 59.0871C20.9815 59.2386 21.0199 59.4304 21.0199 59.6624V61.3953H20.6009V59.6908C20.6009 59.4765 20.5453 59.3096 20.434 59.1901C20.3227 59.0693 20.17 59.009 19.9759 59.009C19.8421 59.009 19.7226 59.038 19.6172 59.096C19.5131 59.154 19.4308 59.2386 19.3704 59.3499C19.3101 59.4612 19.2799 59.5961 19.2799 59.7547ZM24.6408 57.759H25.0811V60.3584C25.0811 60.5904 25.0385 60.7875 24.9533 60.9497C24.868 61.1118 24.7479 61.2349 24.5928 61.319C24.4378 61.403 24.2549 61.4451 24.0442 61.4451C23.8453 61.4451 23.6683 61.409 23.5133 61.3367C23.3582 61.2634 23.2363 61.1592 23.1475 61.0242C23.0587 60.8893 23.0143 60.7289 23.0143 60.5431H23.4476C23.4476 60.6461 23.473 60.736 23.5239 60.813C23.576 60.8887 23.647 60.9479 23.737 60.9905C23.827 61.0331 23.9294 61.0544 24.0442 61.0544C24.1708 61.0544 24.2786 61.0278 24.3673 60.9745C24.4561 60.9213 24.5236 60.8431 24.5697 60.7402C24.6171 60.636 24.6408 60.5087 24.6408 60.3584V57.759ZM26.7093 61.4593C26.5365 61.4593 26.3796 61.4267 26.2388 61.3616C26.0979 61.2953 25.9861 61.2 25.9032 61.0757C25.8203 60.9503 25.7789 60.7987 25.7789 60.6212C25.7789 60.4649 25.8097 60.3383 25.8712 60.2412C25.9328 60.143 26.0151 60.066 26.118 60.0104C26.221 59.9548 26.3347 59.9133 26.4589 59.8861C26.5844 59.8577 26.7105 59.8352 26.8371 59.8186C27.0029 59.7973 27.1372 59.7813 27.2402 59.7707C27.3444 59.7589 27.4201 59.7393 27.4675 59.7121C27.516 59.6849 27.5403 59.6375 27.5403 59.5701V59.5559C27.5403 59.3807 27.4923 59.2445 27.3964 59.1475C27.3018 59.0504 27.1579 59.0019 26.965 59.0019C26.7649 59.0019 26.6081 59.0457 26.4945 59.1333C26.3808 59.2209 26.3009 59.3144 26.2548 59.4138L25.857 59.2718C25.9281 59.106 26.0228 58.977 26.1411 58.8847C26.2607 58.7912 26.3909 58.7261 26.5317 58.6894C26.6738 58.6515 26.8135 58.6326 26.9508 58.6326C27.0384 58.6326 27.139 58.6432 27.2526 58.6645C27.3674 58.6846 27.4781 58.7267 27.5847 58.7906C27.6924 58.8545 27.7817 58.951 27.8528 59.08C27.9238 59.209 27.9593 59.3818 27.9593 59.5985V61.3953H27.5403V61.026H27.519C27.4906 61.0852 27.4432 61.1485 27.3769 61.216C27.3106 61.2835 27.2224 61.3409 27.1124 61.3882C27.0023 61.4356 26.8679 61.4593 26.7093 61.4593ZM26.7732 61.0828C26.9389 61.0828 27.0786 61.0503 27.1923 60.9852C27.3071 60.9201 27.3935 60.836 27.4515 60.7331C27.5107 60.6301 27.5403 60.5218 27.5403 60.4081V60.0246C27.5225 60.0459 27.4835 60.0654 27.4231 60.0832C27.3639 60.0998 27.2952 60.1146 27.2171 60.1276C27.1402 60.1394 27.065 60.1501 26.9916 60.1595C26.9194 60.1678 26.8608 60.1749 26.8158 60.1809C26.7069 60.1951 26.6051 60.2181 26.5104 60.2501C26.4169 60.2809 26.3412 60.3276 26.2832 60.3904C26.2263 60.4519 26.1979 60.536 26.1979 60.6425C26.1979 60.7881 26.2518 60.8982 26.3595 60.9728C26.4684 61.0461 26.6063 61.0828 26.7732 61.0828ZM30.8566 58.6681L29.8481 61.3953H29.4219L28.4134 58.6681H28.868L29.6208 60.8414H29.6492L30.402 58.6681H30.8566ZM32.1292 61.4593C31.9564 61.4593 31.7996 61.4267 31.6587 61.3616C31.5178 61.2953 31.406 61.2 31.3231 61.0757C31.2403 60.9503 31.1988 60.7987 31.1988 60.6212C31.1988 60.4649 31.2296 60.3383 31.2912 60.2412C31.3527 60.143 31.435 60.066 31.538 60.0104C31.6409 59.9548 31.7546 59.9133 31.8789 59.8861C32.0043 59.8577 32.1304 59.8352 32.2571 59.8186C32.4228 59.7973 32.5571 59.7813 32.6601 59.7707C32.7643 59.7589 32.84 59.7393 32.8874 59.7121C32.9359 59.6849 32.9602 59.6375 32.9602 59.5701V59.5559C32.9602 59.3807 32.9123 59.2445 32.8164 59.1475C32.7217 59.0504 32.5779 59.0019 32.3849 59.0019C32.1849 59.0019 32.028 59.0457 31.9144 59.1333C31.8007 59.2209 31.7208 59.3144 31.6747 59.4138L31.277 59.2718C31.348 59.106 31.4427 58.977 31.561 58.8847C31.6806 58.7912 31.8108 58.7261 31.9517 58.6894C32.0937 58.6515 32.2334 58.6326 32.3707 58.6326C32.4583 58.6326 32.5589 58.6432 32.6725 58.6645C32.7874 58.6846 32.898 58.7267 33.0046 58.7906C33.1123 58.8545 33.2017 58.951 33.2727 59.08C33.3437 59.209 33.3792 59.3818 33.3792 59.5985V61.3953H32.9602V61.026H32.9389C32.9105 61.0852 32.8631 61.1485 32.7968 61.216C32.7306 61.2835 32.6424 61.3409 32.5323 61.3882C32.4222 61.4356 32.2878 61.4593 32.1292 61.4593ZM32.1931 61.0828C32.3589 61.0828 32.4985 61.0503 32.6122 60.9852C32.727 60.9201 32.8134 60.836 32.8714 60.7331C32.9306 60.6301 32.9602 60.5218 32.9602 60.4081V60.0246C32.9424 60.0459 32.9034 60.0654 32.843 60.0832C32.7838 60.0998 32.7152 60.1146 32.637 60.1276C32.5601 60.1394 32.4849 60.1501 32.4115 60.1595C32.3393 60.1678 32.2807 60.1749 32.2358 60.1809C32.1269 60.1951 32.0251 60.2181 31.9304 60.2501C31.8368 60.2809 31.7611 60.3276 31.7031 60.3904C31.6463 60.4519 31.6179 60.536 31.6179 60.6425C31.6179 60.7881 31.6717 60.8982 31.7794 60.9728C31.8883 61.0461 32.0262 61.0828 32.1931 61.0828ZM36.1895 58.6681C36.1682 58.4881 36.0818 58.3485 35.9303 58.249C35.7788 58.1496 35.5929 58.0999 35.3727 58.0999C35.2118 58.0999 35.0709 58.1259 34.9502 58.178C34.8306 58.2301 34.7371 58.3017 34.6696 58.3929C34.6033 58.484 34.5702 58.5876 34.5702 58.7036C34.5702 58.8006 34.5933 58.8841 34.6394 58.9539C34.6868 59.0226 34.7472 59.08 34.8205 59.1262C34.8939 59.1711 34.9709 59.2084 35.0514 59.238C35.1319 59.2664 35.2058 59.2895 35.2733 59.3073L35.6426 59.4067C35.7373 59.4316 35.8427 59.4659 35.9587 59.5097C36.0759 59.5535 36.1877 59.6133 36.2943 59.689C36.402 59.7636 36.4908 59.8595 36.5606 59.9767C36.6304 60.0938 36.6654 60.2377 36.6654 60.4081C36.6654 60.6046 36.6139 60.7822 36.5109 60.9408C36.4091 61.0994 36.2599 61.2255 36.0634 61.319C35.8681 61.4125 35.6308 61.4593 35.3514 61.4593C35.091 61.4593 34.8655 61.4172 34.6749 61.3332C34.4856 61.2492 34.3364 61.132 34.2275 60.9816C34.1198 60.8313 34.0588 60.6567 34.0446 60.4578H34.4992C34.511 60.5952 34.5572 60.7088 34.6377 60.7987C34.7193 60.8875 34.8223 60.9538 34.9466 60.9976C35.0721 61.0402 35.207 61.0615 35.3514 61.0615C35.5195 61.0615 35.6704 61.0343 35.8042 60.9799C35.938 60.9242 36.0439 60.8473 36.122 60.749C36.2002 60.6496 36.2392 60.5336 36.2392 60.401C36.2392 60.2803 36.2055 60.182 36.138 60.1063C36.0705 60.0305 35.9818 59.969 35.8717 59.9216C35.7616 59.8743 35.6426 59.8328 35.5148 59.7973L35.0673 59.6695C34.7833 59.5878 34.5584 59.4712 34.3926 59.3197C34.2269 59.1682 34.1441 58.9699 34.1441 58.7249C34.1441 58.5213 34.1991 58.3437 34.3092 58.1922C34.4204 58.0395 34.5696 57.9211 34.7566 57.8371C34.9448 57.7519 35.1549 57.7093 35.3869 57.7093C35.6213 57.7093 35.8297 57.7513 36.0119 57.8353C36.1942 57.9182 36.3387 58.0318 36.4452 58.1762C36.5529 58.3206 36.6097 58.4846 36.6156 58.6681H36.1895ZM38.4405 61.4522C38.1848 61.4522 37.9646 61.3918 37.78 61.2711C37.5953 61.1503 37.4533 60.984 37.3538 60.7721C37.2544 60.5602 37.2047 60.3182 37.2047 60.0459C37.2047 59.7689 37.2556 59.5245 37.3574 59.3126C37.4604 59.0995 37.6036 58.9332 37.7871 58.8137C37.9717 58.6929 38.1872 58.6326 38.4334 58.6326C38.6251 58.6326 38.798 58.6681 38.9518 58.7391C39.1057 58.8101 39.2318 58.9095 39.33 59.0374C39.4283 59.1652 39.4893 59.3144 39.5129 59.4848H39.0939C39.0619 59.3605 38.9909 59.2505 38.8808 59.1546C38.7719 59.0575 38.6251 59.009 38.4405 59.009C38.2771 59.009 38.1339 59.0516 38.0108 59.1368C37.8889 59.2209 37.7936 59.3398 37.7249 59.4937C37.6575 59.6464 37.6237 59.8257 37.6237 60.0317C37.6237 60.2424 37.6569 60.4259 37.7232 60.5821C37.7906 60.7384 37.8853 60.8597 38.0072 60.9461C38.1303 61.0325 38.2748 61.0757 38.4405 61.0757C38.5494 61.0757 38.6482 61.0568 38.737 61.0189C38.8258 60.981 38.9009 60.9266 38.9625 60.8556C39.0241 60.7845 39.0678 60.6993 39.0939 60.5999H39.5129C39.4893 60.7609 39.4307 60.9059 39.3371 61.0349C39.2448 61.1627 39.1223 61.2645 38.9696 61.3403C38.8181 61.4149 38.6417 61.4522 38.4405 61.4522ZM40.1255 61.3953V58.6681H40.5303V59.08H40.5587C40.6085 58.9451 40.6984 58.8356 40.8286 58.7515C40.9588 58.6675 41.1056 58.6255 41.269 58.6255C41.2997 58.6255 41.3382 58.626 41.3844 58.6272C41.4305 58.6284 41.4655 58.6302 41.4891 58.6326V59.0587C41.4749 59.0551 41.4424 59.0498 41.3915 59.0427C41.3418 59.0344 41.2891 59.0303 41.2335 59.0303C41.1009 59.0303 40.9825 59.0581 40.8783 59.1137C40.7754 59.1682 40.6937 59.2439 40.6333 59.341C40.5741 59.4369 40.5445 59.5464 40.5445 59.6695V61.3953H40.1255ZM41.9858 61.3953V58.6681H42.4049V61.3953H41.9858ZM42.1989 58.2135C42.1172 58.2135 42.0468 58.1857 41.9876 58.1301C41.9296 58.0744 41.9006 58.0076 41.9006 57.9294C41.9006 57.8513 41.9296 57.7844 41.9876 57.7288C42.0468 57.6732 42.1172 57.6453 42.1989 57.6453C42.2806 57.6453 42.3504 57.6732 42.4084 57.7288C42.4676 57.7844 42.4972 57.8513 42.4972 57.9294C42.4972 58.0076 42.4676 58.0744 42.4084 58.1301C42.3504 58.1857 42.2806 58.2135 42.1989 58.2135ZM43.1724 62.4181V58.6681H43.5772V59.1013H43.6269C43.6577 59.054 43.7003 58.9936 43.7548 58.9202C43.8104 58.8456 43.8897 58.7793 43.9927 58.7213C44.0969 58.6621 44.2377 58.6326 44.4153 58.6326C44.6449 58.6326 44.8473 58.69 45.0225 58.8048C45.1977 58.9196 45.3344 59.0824 45.4327 59.2931C45.5309 59.5038 45.58 59.7523 45.58 60.0388C45.58 60.3276 45.5309 60.578 45.4327 60.7899C45.3344 61.0006 45.1983 61.1639 45.0243 61.2799C44.8503 61.3947 44.6496 61.4522 44.4224 61.4522C44.2472 61.4522 44.1069 61.4232 44.0016 61.3652C43.8962 61.306 43.8151 61.2391 43.7583 61.1645C43.7015 61.0888 43.6577 61.026 43.6269 60.9763H43.5914V62.4181H43.1724ZM43.5843 60.0317C43.5843 60.2377 43.6145 60.4194 43.6749 60.5768C43.7352 60.7331 43.8234 60.8556 43.9394 60.9443C44.0554 61.0319 44.1975 61.0757 44.3656 61.0757C44.5407 61.0757 44.6869 61.0296 44.8041 60.9372C44.9225 60.8437 45.0113 60.7183 45.0705 60.5608C45.1308 60.4022 45.161 60.2258 45.161 60.0317C45.161 59.8399 45.1314 59.6671 45.0722 59.5132C45.0142 59.3582 44.926 59.2357 44.8077 59.1457C44.6905 59.0545 44.5431 59.009 44.3656 59.009C44.1951 59.009 44.0519 59.0522 43.9359 59.1386C43.8199 59.2238 43.7323 59.3434 43.6731 59.4973C43.6139 59.65 43.5843 59.8281 43.5843 60.0317ZM47.4053 58.6681V59.0232H45.992V58.6681H47.4053ZM46.4039 58.0147H46.8229V60.6141C46.8229 60.7325 46.8401 60.8212 46.8744 60.8804C46.9099 60.9384 46.9549 60.9775 47.0094 60.9976C47.065 61.0166 47.1236 61.026 47.1852 61.026C47.2313 61.026 47.2692 61.0237 47.2988 61.0189C47.3284 61.013 47.3521 61.0083 47.3698 61.0047L47.455 61.3811C47.4266 61.3918 47.387 61.4024 47.3361 61.4131C47.2852 61.4249 47.2207 61.4309 47.1425 61.4309C47.0242 61.4309 46.9082 61.4054 46.7945 61.3545C46.6821 61.3036 46.5886 61.2261 46.514 61.1219C46.4406 61.0177 46.4039 60.8863 46.4039 60.7277V58.0147ZM50.0598 61.3953L49.2288 58.6681H49.6692L50.2587 60.7561H50.2871L50.8695 58.6681H51.3169L51.8922 60.749H51.9206L52.5101 58.6681H52.9504L52.1195 61.3953H51.7075L51.1109 59.3002H51.0683L50.4717 61.3953H50.0598ZM53.5044 61.3953V58.6681H53.9234V61.3953H53.5044ZM53.7175 58.2135C53.6358 58.2135 53.5654 58.1857 53.5062 58.1301C53.4482 58.0744 53.4192 58.0076 53.4192 57.9294C53.4192 57.8513 53.4482 57.7844 53.5062 57.7288C53.5654 57.6732 53.6358 57.6453 53.7175 57.6453C53.7991 57.6453 53.869 57.6732 53.927 57.7288C53.9862 57.7844 54.0158 57.8513 54.0158 57.9294C54.0158 58.0076 53.9862 58.0744 53.927 58.1301C53.869 58.1857 53.7991 58.2135 53.7175 58.2135ZM55.877 58.6681V59.0232H54.4637V58.6681H55.877ZM54.8756 58.0147H55.2946V60.6141C55.2946 60.7325 55.3118 60.8212 55.3461 60.8804C55.3816 60.9384 55.4266 60.9775 55.4811 60.9976C55.5367 61.0166 55.5953 61.026 55.6568 61.026C55.703 61.026 55.7409 61.0237 55.7705 61.0189C55.8001 61.013 55.8237 61.0083 55.8415 61.0047L55.9267 61.3811C55.8983 61.3918 55.8587 61.4024 55.8078 61.4131C55.7569 61.4249 55.6923 61.4309 55.6142 61.4309C55.4959 61.4309 55.3798 61.4054 55.2662 61.3545C55.1538 61.3036 55.0602 61.2261 54.9857 61.1219C54.9123 61.0177 54.8756 60.8863 54.8756 60.7277V58.0147ZM56.985 59.7547V61.3953H56.5659V57.759H56.985V59.0942H57.0205C57.0844 58.9533 57.1803 58.8415 57.3081 58.7586C57.4371 58.6746 57.6088 58.6326 57.823 58.6326C58.0089 58.6326 58.1716 58.6698 58.3113 58.7444C58.451 58.8178 58.5593 58.9309 58.6362 59.0836C58.7144 59.2351 58.7534 59.428 58.7534 59.6624V61.3953H58.3344V59.6908C58.3344 59.4742 58.2782 59.3067 58.1657 59.1883C58.0544 59.0688 57.9 59.009 57.7023 59.009C57.565 59.009 57.4419 59.038 57.333 59.096C57.2253 59.154 57.14 59.2386 57.0773 59.3499C57.0157 59.4612 56.985 59.5961 56.985 59.7547ZM62.0697 61.4522C61.807 61.4522 61.5803 61.3942 61.3897 61.2782C61.2003 61.161 61.0541 60.9976 60.9511 60.7881C60.8493 60.5774 60.7984 60.3324 60.7984 60.053C60.7984 59.7737 60.8493 59.5274 60.9511 59.3144C61.0541 59.1001 61.1973 58.9332 61.3808 58.8137C61.5655 58.6929 61.7809 58.6326 62.0271 58.6326C62.1692 58.6326 62.3094 58.6562 62.4479 58.7036C62.5864 58.7509 62.7125 58.8279 62.8261 58.9344C62.9398 59.0398 63.0303 59.1794 63.0978 59.3534C63.1653 59.5274 63.199 59.7417 63.199 59.9962V60.1737H61.0967V59.8115H62.7729C62.7729 59.6577 62.7421 59.5203 62.6805 59.3996C62.6202 59.2789 62.5338 59.1836 62.4213 59.1137C62.31 59.0439 62.1786 59.009 62.0271 59.009C61.8602 59.009 61.7158 59.0504 61.5939 59.1333C61.4732 59.2149 61.3802 59.3215 61.3151 59.4529C61.25 59.5843 61.2175 59.7251 61.2175 59.8755V60.1169C61.2175 60.3229 61.253 60.4975 61.324 60.6407C61.3962 60.7828 61.4962 60.8911 61.6241 60.9657C61.7519 61.039 61.9005 61.0757 62.0697 61.0757C62.1798 61.0757 62.2793 61.0603 62.368 61.0296C62.458 60.9976 62.5355 60.9503 62.6006 60.8875C62.6657 60.8236 62.7161 60.7443 62.7516 60.6496L63.1564 60.7632C63.1138 60.9005 63.0422 61.0213 62.9415 61.1255C62.8409 61.2284 62.7166 61.3089 62.5687 61.3669C62.4207 61.4237 62.2544 61.4522 62.0697 61.4522ZM64.639 61.4593C64.4662 61.4593 64.3093 61.4267 64.1685 61.3616C64.0276 61.2953 63.9157 61.2 63.8329 61.0757C63.75 60.9503 63.7086 60.7987 63.7086 60.6212C63.7086 60.4649 63.7394 60.3383 63.8009 60.2412C63.8625 60.143 63.9447 60.066 64.0477 60.0104C64.1507 59.9548 64.2643 59.9133 64.3886 59.8861C64.5141 59.8577 64.6402 59.8352 64.7668 59.8186C64.9326 59.7973 65.0669 59.7813 65.1699 59.7707C65.2741 59.7589 65.3498 59.7393 65.3972 59.7121C65.4457 59.6849 65.47 59.6375 65.47 59.5701V59.5559C65.47 59.3807 65.422 59.2445 65.3261 59.1475C65.2314 59.0504 65.0876 59.0019 64.8947 59.0019C64.6946 59.0019 64.5378 59.0457 64.4241 59.1333C64.3105 59.2209 64.2306 59.3144 64.1844 59.4138L63.7867 59.2718C63.8577 59.106 63.9524 58.977 64.0708 58.8847C64.1904 58.7912 64.3206 58.7261 64.4614 58.6894C64.6035 58.6515 64.7432 58.6326 64.8805 58.6326C64.9681 58.6326 65.0687 58.6432 65.1823 58.6645C65.2971 58.6846 65.4078 58.7267 65.5143 58.7906C65.6221 58.8545 65.7114 58.951 65.7825 59.08C65.8535 59.209 65.889 59.3818 65.889 59.5985V61.3953H65.47V61.026H65.4487C65.4202 61.0852 65.3729 61.1485 65.3066 61.216C65.2403 61.2835 65.1521 61.3409 65.042 61.3882C64.932 61.4356 64.7976 61.4593 64.639 61.4593ZM64.7029 61.0828C64.8686 61.0828 65.0083 61.0503 65.1219 60.9852C65.2368 60.9201 65.3232 60.836 65.3812 60.7331C65.4404 60.6301 65.47 60.5218 65.47 60.4081V60.0246C65.4522 60.0459 65.4131 60.0654 65.3528 60.0832C65.2936 60.0998 65.2249 60.1146 65.1468 60.1276C65.0699 60.1394 64.9947 60.1501 64.9213 60.1595C64.8491 60.1678 64.7905 60.1749 64.7455 60.1809C64.6366 60.1951 64.5348 60.2181 64.4401 60.2501C64.3466 60.2809 64.2709 60.3276 64.2129 60.3904C64.156 60.4519 64.1276 60.536 64.1276 60.6425C64.1276 60.7881 64.1815 60.8982 64.2892 60.9728C64.3981 61.0461 64.536 61.0828 64.7029 61.0828ZM68.5856 59.2789L68.2092 59.3854C68.1855 59.3227 68.1506 59.2617 68.1045 59.2025C68.0595 59.1421 67.9979 59.0924 67.9198 59.0534C67.8417 59.0143 67.7416 58.9948 67.6197 58.9948C67.4528 58.9948 67.3137 59.0332 67.2025 59.1102C67.0924 59.1859 67.0373 59.2824 67.0373 59.3996C67.0373 59.5038 67.0752 59.586 67.151 59.6464C67.2267 59.7068 67.3451 59.7571 67.5061 59.7973L67.9109 59.8968C68.1548 59.9559 68.3365 60.0465 68.456 60.1684C68.5756 60.2892 68.6354 60.4448 68.6354 60.6354C68.6354 60.7916 68.5904 60.9313 68.5004 61.0544C68.4116 61.1775 68.2873 61.2746 68.1275 61.3456C67.9677 61.4166 67.7819 61.4522 67.57 61.4522C67.2918 61.4522 67.0616 61.3918 66.8793 61.2711C66.697 61.1503 66.5816 60.9739 66.5331 60.7419L66.9308 60.6425C66.9687 60.7893 67.0403 60.8994 67.1456 60.9728C67.2522 61.0461 67.3913 61.0828 67.5629 61.0828C67.7582 61.0828 67.9133 61.0414 68.0281 60.9586C68.1441 60.8745 68.2021 60.7739 68.2021 60.6567C68.2021 60.562 68.169 60.4827 68.1027 60.4188C68.0364 60.3537 67.9346 60.3051 67.7973 60.2732L67.3427 60.1666C67.093 60.1075 66.9095 60.0157 66.7923 59.8914C66.6763 59.766 66.6183 59.6091 66.6183 59.4209C66.6183 59.267 66.6615 59.1309 66.7479 59.0125C66.8355 58.8942 66.9545 58.8012 67.1048 58.7338C67.2563 58.6663 67.428 58.6326 67.6197 58.6326C67.8896 58.6326 68.1015 58.6917 68.2554 58.8101C68.4104 58.9285 68.5205 59.0847 68.5856 59.2789ZM69.536 62.4181C69.465 62.4181 69.4017 62.4121 69.346 62.4003C69.2904 62.3897 69.2519 62.379 69.2306 62.3684L69.3371 61.999C69.4389 62.0251 69.5289 62.0345 69.607 62.0274C69.6852 62.0203 69.7544 61.9854 69.8148 61.9227C69.8763 61.8611 69.9326 61.7611 69.9835 61.6226L70.0616 61.4095L69.0531 58.6681H69.5076L70.2604 60.8414H70.2888L71.0417 58.6681H71.4962L70.3386 61.7931C70.2865 61.9339 70.222 62.0505 70.145 62.1429C70.0681 62.2364 69.9787 62.3056 69.8769 62.3506C69.7763 62.3956 69.6627 62.4181 69.536 62.4181ZM9.26301 67.4593C9.09019 67.4593 8.93335 67.4267 8.79249 67.3616C8.65163 67.2953 8.53977 67.2 8.45691 67.0757C8.37405 66.9503 8.33262 66.7987 8.33262 66.6212C8.33262 66.4649 8.36339 66.3383 8.42495 66.2412C8.4865 66.143 8.56877 66.066 8.67175 66.0104C8.77473 65.9548 8.88837 65.9133 9.01266 65.8861C9.13813 65.8577 9.2642 65.8352 9.39086 65.8186C9.55657 65.7973 9.69093 65.7813 9.79391 65.7707C9.89808 65.7589 9.97383 65.7393 10.0212 65.7121C10.0697 65.6849 10.094 65.6375 10.094 65.5701V65.5559C10.094 65.3807 10.046 65.2445 9.95016 65.1475C9.85546 65.0504 9.71164 65.0019 9.5187 65.0019C9.31865 65.0019 9.16181 65.0457 9.04817 65.1333C8.93453 65.2209 8.85463 65.3144 8.80847 65.4138L8.41074 65.2718C8.48176 65.106 8.57646 64.977 8.69483 64.8847C8.81439 64.7912 8.9446 64.7261 9.08546 64.6894C9.2275 64.6515 9.36718 64.6326 9.50449 64.6326C9.59209 64.6326 9.6927 64.6432 9.80634 64.6645C9.92116 64.6846 10.0318 64.7267 10.1384 64.7906C10.2461 64.8545 10.3355 64.951 10.4065 65.08C10.4775 65.209 10.513 65.3818 10.513 65.5985V67.3953H10.094V67.026H10.0727C10.0443 67.0852 9.99692 67.1485 9.93063 67.216C9.86434 67.2835 9.77615 67.3409 9.66607 67.3882C9.55598 67.4356 9.42163 67.4593 9.26301 67.4593ZM9.32693 67.0828C9.49265 67.0828 9.63233 67.0503 9.74597 66.9852C9.86079 66.9201 9.9472 66.836 10.0052 66.7331C10.0644 66.6301 10.094 66.5218 10.094 66.4081V66.0246C10.0762 66.0459 10.0372 66.0654 9.97679 66.0832C9.91761 66.0998 9.84895 66.1146 9.77083 66.1276C9.69389 66.1394 9.61872 66.1501 9.54533 66.1595C9.47312 66.1678 9.41453 66.1749 9.36955 66.1809C9.26065 66.1951 9.15885 66.2181 9.06415 66.2501C8.97064 66.2809 8.89488 66.3276 8.83688 66.3904C8.78006 66.4519 8.75165 66.536 8.75165 66.6425C8.75165 66.7881 8.80551 66.8982 8.91323 66.9728C9.02213 67.0461 9.16003 67.0828 9.32693 67.0828ZM11.6969 65.7547V67.3953H11.2778V64.6681H11.6827V65.0942H11.7182C11.7821 64.9557 11.8792 64.8444 12.0094 64.7604C12.1396 64.6752 12.3077 64.6326 12.5136 64.6326C12.6983 64.6326 12.8599 64.6704 12.9984 64.7462C13.1369 64.8208 13.2446 64.9344 13.3215 65.0871C13.3985 65.2386 13.4369 65.4304 13.4369 65.6624V67.3953H13.0179V65.6908C13.0179 65.4765 12.9623 65.3096 12.851 65.1901C12.7397 65.0693 12.587 65.009 12.3929 65.009C12.2591 65.009 12.1396 65.038 12.0342 65.096C11.9301 65.154 11.8478 65.2386 11.7874 65.3499C11.7271 65.4612 11.6969 65.5961 11.6969 65.7547ZM15.2325 67.4522C15.0052 67.4522 14.8046 67.3947 14.6306 67.2799C14.4566 67.1639 14.3204 67.0006 14.2222 66.7899C14.1239 66.578 14.0748 66.3276 14.0748 66.0388C14.0748 65.7523 14.1239 65.5038 14.2222 65.2931C14.3204 65.0824 14.4571 64.9196 14.6323 64.8048C14.8075 64.69 15.0099 64.6326 15.2396 64.6326C15.4171 64.6326 15.5574 64.6621 15.6604 64.7213C15.7646 64.7793 15.8439 64.8456 15.8983 64.9202C15.9539 64.9936 15.9972 65.054 16.0279 65.1013H16.0634V63.759H16.4825V67.3953H16.0776V66.9763H16.0279C15.9972 67.026 15.9534 67.0888 15.8965 67.1645C15.8397 67.2391 15.7586 67.306 15.6533 67.3652C15.5479 67.4232 15.4077 67.4522 15.2325 67.4522ZM15.2893 67.0757C15.4574 67.0757 15.5994 67.0319 15.7154 66.9443C15.8314 66.8556 15.9196 66.7331 15.98 66.5768C16.0404 66.4194 16.0705 66.2377 16.0705 66.0317C16.0705 65.8281 16.041 65.65 15.9818 65.4973C15.9226 65.3434 15.835 65.2238 15.719 65.1386C15.603 65.0522 15.4597 65.009 15.2893 65.009C15.1117 65.009 14.9638 65.0545 14.8454 65.1457C14.7282 65.2357 14.64 65.3582 14.5808 65.5132C14.5228 65.6671 14.4938 65.8399 14.4938 66.0317C14.4938 66.2258 14.5234 66.4022 14.5826 66.5608C14.643 66.7183 14.7318 66.8437 14.849 66.9372C14.9673 67.0296 15.1141 67.0757 15.2893 67.0757ZM18.7712 67.3953V63.759H19.1902V65.1013H19.2257C19.2565 65.054 19.2991 64.9936 19.3536 64.9202C19.4092 64.8456 19.4885 64.7793 19.5915 64.7213C19.6957 64.6621 19.8365 64.6326 20.0141 64.6326C20.2437 64.6326 20.4461 64.69 20.6213 64.8048C20.7965 64.9196 20.9332 65.0824 21.0315 65.2931C21.1297 65.5038 21.1789 65.7523 21.1789 66.0388C21.1789 66.3276 21.1297 66.578 21.0315 66.7899C20.9332 67.0006 20.7971 67.1639 20.6231 67.2799C20.4491 67.3947 20.2485 67.4522 20.0212 67.4522C19.846 67.4522 19.7057 67.4232 19.6004 67.3652C19.495 67.306 19.4139 67.2391 19.3571 67.1645C19.3003 67.0888 19.2565 67.026 19.2257 66.9763H19.176V67.3953H18.7712ZM19.1831 66.0317C19.1831 66.2377 19.2133 66.4194 19.2737 66.5768C19.334 66.7331 19.4222 66.8556 19.5382 66.9443C19.6542 67.0319 19.7963 67.0757 19.9644 67.0757C20.1396 67.0757 20.2857 67.0296 20.4029 66.9372C20.5213 66.8437 20.6101 66.7183 20.6693 66.5608C20.7296 66.4022 20.7598 66.2258 20.7598 66.0317C20.7598 65.8399 20.7302 65.6671 20.671 65.5132C20.613 65.3582 20.5249 65.2357 20.4065 65.1457C20.2893 65.0545 20.1419 65.009 19.9644 65.009C19.7939 65.009 19.6507 65.0522 19.5347 65.1386C19.4187 65.2238 19.3311 65.3434 19.2719 65.4973C19.2127 65.65 19.1831 65.8281 19.1831 66.0317ZM22.9633 67.4522C22.7005 67.4522 22.4738 67.3942 22.2833 67.2782C22.0939 67.161 21.9477 66.9976 21.8447 66.7881C21.7429 66.5774 21.692 66.3324 21.692 66.053C21.692 65.7737 21.7429 65.5274 21.8447 65.3144C21.9477 65.1001 22.0909 64.9332 22.2744 64.8137C22.459 64.6929 22.6745 64.6326 22.9207 64.6326C23.0627 64.6326 23.203 64.6562 23.3415 64.7036C23.48 64.7509 23.6061 64.8279 23.7197 64.9344C23.8333 65.0398 23.9239 65.1794 23.9914 65.3534C24.0588 65.5274 24.0926 65.7417 24.0926 65.9962V66.1737H21.9903V65.8115H23.6664C23.6664 65.6577 23.6356 65.5203 23.5741 65.3996C23.5137 65.2789 23.4273 65.1836 23.3149 65.1137C23.2036 65.0439 23.0722 65.009 22.9207 65.009C22.7538 65.009 22.6094 65.0504 22.4874 65.1333C22.3667 65.2149 22.2738 65.3215 22.2087 65.4529C22.1436 65.5843 22.111 65.7251 22.111 65.8755V66.1169C22.111 66.3229 22.1465 66.4975 22.2176 66.6407C22.2898 66.7828 22.3898 66.8911 22.5176 66.9657C22.6455 67.039 22.794 67.0757 22.9633 67.0757C23.0734 67.0757 23.1728 67.0603 23.2616 67.0296C23.3516 66.9976 23.4291 66.9503 23.4942 66.8875C23.5593 66.8236 23.6096 66.7443 23.6451 66.6496L24.0499 66.7632C24.0073 66.9005 23.9357 67.0213 23.8351 67.1255C23.7345 67.2284 23.6102 67.3089 23.4622 67.3669C23.3143 67.4237 23.148 67.4522 22.9633 67.4522ZM26.6618 65.2789L26.2854 65.3854C26.2617 65.3227 26.2268 65.2617 26.1806 65.2025C26.1356 65.1421 26.0741 65.0924 25.996 65.0534C25.9178 65.0143 25.8178 64.9948 25.6959 64.9948C25.529 64.9948 25.3899 65.0332 25.2786 65.1102C25.1686 65.1859 25.1135 65.2824 25.1135 65.3996C25.1135 65.5038 25.1514 65.586 25.2271 65.6464C25.3029 65.7068 25.4213 65.7571 25.5823 65.7973L25.9871 65.8968C26.2309 65.9559 26.4126 66.0465 26.5322 66.1684C26.6517 66.2892 26.7115 66.4448 26.7115 66.6354C26.7115 66.7916 26.6665 66.9313 26.5766 67.0544C26.4878 67.1775 26.3635 67.2746 26.2037 67.3456C26.0439 67.4166 25.8581 67.4522 25.6462 67.4522C25.368 67.4522 25.1378 67.3918 24.9555 67.2711C24.7732 67.1503 24.6578 66.9739 24.6093 66.7419L25.007 66.6425C25.0449 66.7893 25.1165 66.8994 25.2218 66.9728C25.3284 67.0461 25.4674 67.0828 25.6391 67.0828C25.8344 67.0828 25.9895 67.0414 26.1043 66.9586C26.2203 66.8745 26.2783 66.7739 26.2783 66.6567C26.2783 66.562 26.2451 66.4827 26.1789 66.4188C26.1126 66.3537 26.0108 66.3051 25.8735 66.2732L25.4189 66.1666C25.1691 66.1075 24.9857 66.0157 24.8685 65.8914C24.7525 65.766 24.6945 65.6091 24.6945 65.4209C24.6945 65.267 24.7377 65.1309 24.8241 65.0125C24.9117 64.8942 25.0307 64.8012 25.181 64.7338C25.3325 64.6663 25.5041 64.6326 25.6959 64.6326C25.9658 64.6326 26.1777 64.6917 26.3316 64.8101C26.4866 64.9285 26.5967 65.0847 26.6618 65.2789ZM28.5284 64.6681V65.0232H27.115V64.6681H28.5284ZM27.527 64.0147H27.946V66.6141C27.946 66.7325 27.9632 66.8212 27.9975 66.8804C28.033 66.9384 28.078 66.9775 28.1324 66.9976C28.1881 67.0166 28.2466 67.026 28.3082 67.026C28.3544 67.026 28.3922 67.0237 28.4218 67.0189C28.4514 67.013 28.4751 67.0083 28.4929 67.0047L28.5781 67.3811C28.5497 67.3918 28.51 67.4024 28.4591 67.4131C28.4082 67.4249 28.3437 67.4309 28.2656 67.4309C28.1472 67.4309 28.0312 67.4054 27.9176 67.3545C27.8051 67.3036 27.7116 67.2261 27.637 67.1219C27.5636 67.0177 27.527 66.8863 27.527 66.7277V64.0147ZM31.751 64.6681V65.0232H30.3377V64.6681H31.751ZM30.7496 64.0147H31.1686V66.6141C31.1686 66.7325 31.1858 66.8212 31.2201 66.8804C31.2556 66.9384 31.3006 66.9775 31.3551 66.9976C31.4107 67.0166 31.4693 67.026 31.5309 67.026C31.577 67.026 31.6149 67.0237 31.6445 67.0189C31.6741 67.013 31.6978 67.0083 31.7155 67.0047L31.8007 67.3811C31.7723 67.3918 31.7327 67.4024 31.6818 67.4131C31.6309 67.4249 31.5664 67.4309 31.4882 67.4309C31.3699 67.4309 31.2539 67.4054 31.1402 67.3545C31.0278 67.3036 30.9343 67.2261 30.8597 67.1219C30.7863 67.0177 30.7496 66.8863 30.7496 66.7277V64.0147ZM34.1001 66.2803V64.6681H34.5191V67.3953H34.1001V66.9337H34.0717C34.0078 67.0722 33.9083 67.19 33.7734 67.287C33.6385 67.3829 33.468 67.4309 33.262 67.4309C33.0916 67.4309 32.9401 67.3936 32.8075 67.319C32.6749 67.2432 32.5707 67.1296 32.495 66.9781C32.4192 66.8254 32.3814 66.633 32.3814 66.401V64.6681H32.8004V66.3726C32.8004 66.5715 32.856 66.7301 32.9673 66.8485C33.0797 66.9668 33.223 67.026 33.397 67.026C33.5011 67.026 33.6071 66.9994 33.7148 66.9461C33.8237 66.8929 33.9149 66.8112 33.9882 66.7011C34.0628 66.591 34.1001 66.4507 34.1001 66.2803ZM36.4727 64.6681V65.0232H35.0594V64.6681H36.4727ZM35.4713 64.0147H35.8903V66.6141C35.8903 66.7325 35.9075 66.8212 35.9418 66.8804C35.9773 66.9384 36.0223 66.9775 36.0768 66.9976C36.1324 67.0166 36.191 67.026 36.2525 67.026C36.2987 67.026 36.3366 67.0237 36.3662 67.0189C36.3958 67.013 36.4194 67.0083 36.4372 67.0047L36.5224 67.3811C36.494 67.3918 36.4544 67.4024 36.4035 67.4131C36.3526 67.4249 36.288 67.4309 36.2099 67.4309C36.0916 67.4309 35.9755 67.4054 35.8619 67.3545C35.7495 67.3036 35.6559 67.2261 35.5814 67.1219C35.508 67.0177 35.4713 66.8863 35.4713 66.7277V64.0147ZM38.1817 67.4522C37.9355 67.4522 37.7195 67.3936 37.5336 67.2764C37.349 67.1592 37.2045 66.9952 37.1004 66.7845C36.9974 66.5738 36.9459 66.3276 36.9459 66.0459C36.9459 65.7618 36.9974 65.5138 37.1004 65.3019C37.2045 65.0901 37.349 64.9255 37.5336 64.8083C37.7195 64.6911 37.9355 64.6326 38.1817 64.6326C38.4279 64.6326 38.6433 64.6911 38.828 64.8083C39.0138 64.9255 39.1583 65.0901 39.2612 65.3019C39.3654 65.5138 39.4175 65.7618 39.4175 66.0459C39.4175 66.3276 39.3654 66.5738 39.2612 66.7845C39.1583 66.9952 39.0138 67.1592 38.828 67.2764C38.6433 67.3936 38.4279 67.4522 38.1817 67.4522ZM38.1817 67.0757C38.3687 67.0757 38.5226 67.0278 38.6433 66.9319C38.7641 66.836 38.8535 66.71 38.9115 66.5537C38.9695 66.3975 38.9985 66.2282 38.9985 66.0459C38.9985 65.8636 38.9695 65.6938 38.9115 65.5363C38.8535 65.3789 38.7641 65.2516 38.6433 65.1546C38.5226 65.0575 38.3687 65.009 38.1817 65.009C37.9947 65.009 37.8408 65.0575 37.72 65.1546C37.5993 65.2516 37.5099 65.3789 37.4519 65.5363C37.3939 65.6938 37.3649 65.8636 37.3649 66.0459C37.3649 66.2282 37.3939 66.3975 37.4519 66.5537C37.5099 66.71 37.5993 66.836 37.72 66.9319C37.8408 67.0278 37.9947 67.0757 38.1817 67.0757ZM40.0571 67.3953V64.6681H40.462V65.08H40.4904C40.5401 64.9451 40.6301 64.8356 40.7603 64.7515C40.8905 64.6675 41.0373 64.6255 41.2006 64.6255C41.2314 64.6255 41.2699 64.626 41.316 64.6272C41.3622 64.6284 41.3971 64.6302 41.4208 64.6326V65.0587C41.4066 65.0551 41.374 65.0498 41.3231 65.0427C41.2734 65.0344 41.2207 65.0303 41.1651 65.0303C41.0325 65.0303 40.9141 65.0581 40.81 65.1137C40.707 65.1682 40.6253 65.2439 40.5649 65.341C40.5058 65.4369 40.4762 65.5464 40.4762 65.6695V67.3953H40.0571ZM41.9175 67.3953V64.6681H42.3365V67.3953H41.9175ZM42.1306 64.2135C42.0489 64.2135 41.9784 64.1857 41.9193 64.1301C41.8613 64.0744 41.8323 64.0076 41.8323 63.9294C41.8323 63.8513 41.8613 63.7844 41.9193 63.7288C41.9784 63.6732 42.0489 63.6453 42.1306 63.6453C42.2122 63.6453 42.2821 63.6732 42.3401 63.7288C42.3993 63.7844 42.4289 63.8513 42.4289 63.9294C42.4289 64.0076 42.3993 64.0744 42.3401 64.1301C42.2821 64.1857 42.2122 64.2135 42.1306 64.2135ZM43.9066 67.4593C43.7337 67.4593 43.5769 67.4267 43.436 67.3616C43.2952 67.2953 43.1833 67.2 43.1005 67.0757C43.0176 66.9503 42.9762 66.7987 42.9762 66.6212C42.9762 66.4649 43.0069 66.3383 43.0685 66.2412C43.1301 66.143 43.2123 66.066 43.3153 66.0104C43.4183 65.9548 43.5319 65.9133 43.6562 65.8861C43.7817 65.8577 43.9078 65.8352 44.0344 65.8186C44.2001 65.7973 44.3345 65.7813 44.4375 65.7707C44.5416 65.7589 44.6174 65.7393 44.6647 65.7121C44.7133 65.6849 44.7375 65.6375 44.7375 65.5701V65.5559C44.7375 65.3807 44.6896 65.2445 44.5937 65.1475C44.499 65.0504 44.3552 65.0019 44.1623 65.0019C43.9622 65.0019 43.8054 65.0457 43.6917 65.1333C43.5781 65.2209 43.4982 65.3144 43.452 65.4138L43.0543 65.2718C43.1253 65.106 43.22 64.977 43.3384 64.8847C43.4579 64.7912 43.5882 64.7261 43.729 64.6894C43.8711 64.6515 44.0107 64.6326 44.148 64.6326C44.2356 64.6326 44.3363 64.6432 44.4499 64.6645C44.5647 64.6846 44.6754 64.7267 44.7819 64.7906C44.8896 64.8545 44.979 64.951 45.05 65.08C45.1211 65.209 45.1566 65.3818 45.1566 65.5985V67.3953H44.7375V67.026H44.7162C44.6878 67.0852 44.6405 67.1485 44.5742 67.216C44.5079 67.2835 44.4197 67.3409 44.3096 67.3882C44.1995 67.4356 44.0652 67.4593 43.9066 67.4593ZM43.9705 67.0828C44.1362 67.0828 44.2759 67.0503 44.3895 66.9852C44.5043 66.9201 44.5908 66.836 44.6488 66.7331C44.7079 66.6301 44.7375 66.5218 44.7375 66.4081V66.0246C44.7198 66.0459 44.6807 66.0654 44.6203 66.0832C44.5612 66.0998 44.4925 66.1146 44.4144 66.1276C44.3374 66.1394 44.2623 66.1501 44.1889 66.1595C44.1167 66.1678 44.0581 66.1749 44.0131 66.1809C43.9042 66.1951 43.8024 66.2181 43.7077 66.2501C43.6142 66.2809 43.5384 66.3276 43.4804 66.3904C43.4236 66.4519 43.3952 66.536 43.3952 66.6425C43.3952 66.7881 43.4491 66.8982 43.5568 66.9728C43.6657 67.0461 43.8036 67.0828 43.9705 67.0828ZM46.3404 63.759V67.3953H45.9214V63.759H46.3404ZM49.6221 67.4522C49.3759 67.4522 49.1599 67.3936 48.974 67.2764C48.7894 67.1592 48.645 66.9952 48.5408 66.7845C48.4378 66.5738 48.3863 66.3276 48.3863 66.0459C48.3863 65.7618 48.4378 65.5138 48.5408 65.3019C48.645 65.0901 48.7894 64.9255 48.974 64.8083C49.1599 64.6911 49.3759 64.6326 49.6221 64.6326C49.8683 64.6326 50.0838 64.6911 50.2684 64.8083C50.4543 64.9255 50.5987 65.0901 50.7017 65.3019C50.8058 65.5138 50.8579 65.7618 50.8579 66.0459C50.8579 66.3276 50.8058 66.5738 50.7017 66.7845C50.5987 66.9952 50.4543 67.1592 50.2684 67.2764C50.0838 67.3936 49.8683 67.4522 49.6221 67.4522ZM49.6221 67.0757C49.8091 67.0757 49.963 67.0278 50.0838 66.9319C50.2045 66.836 50.2939 66.71 50.3519 66.5537C50.4099 66.3975 50.4389 66.2282 50.4389 66.0459C50.4389 65.8636 50.4099 65.6938 50.3519 65.5363C50.2939 65.3789 50.2045 65.2516 50.0838 65.1546C49.963 65.0575 49.8091 65.009 49.6221 65.009C49.4351 65.009 49.2812 65.0575 49.1605 65.1546C49.0397 65.2516 48.9504 65.3789 48.8924 65.5363C48.8344 65.6938 48.8054 65.8636 48.8054 66.0459C48.8054 66.2282 48.8344 66.3975 48.8924 66.5537C48.9504 66.71 49.0397 66.836 49.1605 66.9319C49.2812 67.0278 49.4351 67.0757 49.6221 67.0757ZM51.4976 67.3953V64.6681H51.9024V65.08H51.9308C51.9805 64.9451 52.0705 64.8356 52.2007 64.7515C52.3309 64.6675 52.4777 64.6255 52.641 64.6255C52.6718 64.6255 52.7103 64.626 52.7564 64.6272C52.8026 64.6284 52.8375 64.6302 52.8612 64.6326V65.0587C52.847 65.0551 52.8144 65.0498 52.7635 65.0427C52.7138 65.0344 52.6612 65.0303 52.6055 65.0303C52.4729 65.0303 52.3546 65.0581 52.2504 65.1137C52.1474 65.1682 52.0657 65.2439 52.0054 65.341C51.9462 65.4369 51.9166 65.5464 51.9166 65.6695V67.3953H51.4976ZM54.7642 64.6681H55.1832V67.5942C55.1832 67.7623 55.1542 67.9079 55.0962 68.031C55.0394 68.1541 54.953 68.2494 54.837 68.3169C54.7221 68.3843 54.5771 68.4181 54.402 68.4181C54.3877 68.4181 54.3735 68.4181 54.3593 68.4181C54.3451 68.4181 54.3309 68.4181 54.3167 68.4181V68.0274C54.3309 68.0274 54.344 68.0274 54.3558 68.0274C54.3676 68.0274 54.3806 68.0274 54.3949 68.0274C54.5227 68.0274 54.6162 67.9896 54.6754 67.9138C54.7346 67.8392 54.7642 67.7327 54.7642 67.5942V64.6681ZM54.9701 64.2135C54.8885 64.2135 54.818 64.1857 54.7588 64.1301C54.7008 64.0744 54.6718 64.0076 54.6718 63.9294C54.6718 63.8513 54.7008 63.7844 54.7588 63.7288C54.818 63.6732 54.8885 63.6453 54.9701 63.6453C55.0518 63.6453 55.1216 63.6732 55.1797 63.7288C55.2388 63.7844 55.2684 63.8513 55.2684 63.9294C55.2684 64.0076 55.2388 64.0744 55.1797 64.1301C55.1216 64.1857 55.0518 64.2135 54.9701 64.2135ZM57.0586 67.4522C56.8124 67.4522 56.5964 67.3936 56.4106 67.2764C56.2259 67.1592 56.0815 66.9952 55.9773 66.7845C55.8743 66.5738 55.8229 66.3276 55.8229 66.0459C55.8229 65.7618 55.8743 65.5138 55.9773 65.3019C56.0815 65.0901 56.2259 64.9255 56.4106 64.8083C56.5964 64.6911 56.8124 64.6326 57.0586 64.6326C57.3049 64.6326 57.5203 64.6911 57.705 64.8083C57.8908 64.9255 58.0352 65.0901 58.1382 65.3019C58.2424 65.5138 58.2944 65.7618 58.2944 66.0459C58.2944 66.3276 58.2424 66.5738 58.1382 66.7845C58.0352 66.9952 57.8908 67.1592 57.705 67.2764C57.5203 67.3936 57.3049 67.4522 57.0586 67.4522ZM57.0586 67.0757C57.2457 67.0757 57.3996 67.0278 57.5203 66.9319C57.641 66.836 57.7304 66.71 57.7884 66.5537C57.8464 66.3975 57.8754 66.2282 57.8754 66.0459C57.8754 65.8636 57.8464 65.6938 57.7884 65.5363C57.7304 65.3789 57.641 65.2516 57.5203 65.1546C57.3996 65.0575 57.2457 65.009 57.0586 65.009C56.8716 65.009 56.7177 65.0575 56.597 65.1546C56.4763 65.2516 56.3869 65.3789 56.3289 65.5363C56.2709 65.6938 56.2419 65.8636 56.2419 66.0459C56.2419 66.2282 56.2709 66.3975 56.3289 66.5537C56.3869 66.71 56.4763 66.836 56.597 66.9319C56.7177 67.0278 56.8716 67.0757 57.0586 67.0757ZM58.9341 67.3953V64.6681H59.3531V67.3953H58.9341ZM59.1472 64.2135C59.0655 64.2135 58.9951 64.1857 58.9359 64.1301C58.8779 64.0744 58.8489 64.0076 58.8489 63.9294C58.8489 63.8513 58.8779 63.7844 58.9359 63.7288C58.9951 63.6732 59.0655 63.6453 59.1472 63.6453C59.2288 63.6453 59.2987 63.6732 59.3567 63.7288C59.4159 63.7844 59.4455 63.8513 59.4455 63.9294C59.4455 64.0076 59.4159 64.0744 59.3567 64.1301C59.2987 64.1857 59.2288 64.2135 59.1472 64.2135ZM60.5396 65.7547V67.3953H60.1206V64.6681H60.5254V65.0942H60.561C60.6249 64.9557 60.7219 64.8444 60.8521 64.7604C60.9824 64.6752 61.1504 64.6326 61.3564 64.6326C61.5411 64.6326 61.7026 64.6704 61.8411 64.7462C61.9796 64.8208 62.0874 64.9344 62.1643 65.0871C62.2412 65.2386 62.2797 65.4304 62.2797 65.6624V67.3953H61.8607V65.6908C61.8607 65.4765 61.805 65.3096 61.6938 65.1901C61.5825 65.0693 61.4298 65.009 61.2357 65.009C61.1019 65.009 60.9824 65.038 60.877 65.096C60.7728 65.154 60.6906 65.2386 60.6302 65.3499C60.5698 65.4612 60.5396 65.5961 60.5396 65.7547ZM9.26301 73.4593C9.09019 73.4593 8.93335 73.4267 8.79249 73.3616C8.65163 73.2953 8.53977 73.2 8.45691 73.0757C8.37405 72.9503 8.33262 72.7987 8.33262 72.6212C8.33262 72.4649 8.36339 72.3383 8.42495 72.2412C8.4865 72.143 8.56877 72.066 8.67175 72.0104C8.77473 71.9548 8.88837 71.9133 9.01266 71.8861C9.13813 71.8577 9.2642 71.8352 9.39086 71.8186C9.55657 71.7973 9.69093 71.7813 9.79391 71.7707C9.89808 71.7589 9.97383 71.7393 10.0212 71.7121C10.0697 71.6849 10.094 71.6375 10.094 71.5701V71.5559C10.094 71.3807 10.046 71.2445 9.95016 71.1475C9.85546 71.0504 9.71164 71.0019 9.5187 71.0019C9.31865 71.0019 9.16181 71.0457 9.04817 71.1333C8.93453 71.2209 8.85463 71.3144 8.80847 71.4138L8.41074 71.2718C8.48176 71.106 8.57646 70.977 8.69483 70.8847C8.81439 70.7912 8.9446 70.7261 9.08546 70.6894C9.2275 70.6515 9.36718 70.6326 9.50449 70.6326C9.59209 70.6326 9.6927 70.6432 9.80634 70.6645C9.92116 70.6846 10.0318 70.7267 10.1384 70.7906C10.2461 70.8545 10.3355 70.951 10.4065 71.08C10.4775 71.209 10.513 71.3818 10.513 71.5985V73.3953H10.094V73.026H10.0727C10.0443 73.0852 9.99692 73.1485 9.93063 73.216C9.86434 73.2835 9.77615 73.3409 9.66607 73.3882C9.55598 73.4356 9.42163 73.4593 9.26301 73.4593ZM9.32693 73.0828C9.49265 73.0828 9.63233 73.0503 9.74597 72.9852C9.86079 72.9201 9.9472 72.836 10.0052 72.7331C10.0644 72.6301 10.094 72.5218 10.094 72.4081V72.0246C10.0762 72.0459 10.0372 72.0654 9.97679 72.0832C9.91761 72.0998 9.84895 72.1146 9.77083 72.1276C9.69389 72.1394 9.61872 72.1501 9.54533 72.1595C9.47312 72.1678 9.41453 72.1749 9.36955 72.1809C9.26065 72.1951 9.15885 72.2181 9.06415 72.2501C8.97064 72.2809 8.89488 72.3276 8.83688 72.3904C8.78006 72.4519 8.75165 72.536 8.75165 72.6425C8.75165 72.7881 8.80551 72.8982 8.91323 72.9728C9.02213 73.0461 9.16003 73.0828 9.32693 73.0828ZM13.2097 71.2789L12.8332 71.3854C12.8096 71.3227 12.7746 71.2617 12.7285 71.2025C12.6835 71.1421 12.6219 71.0924 12.5438 71.0534C12.4657 71.0143 12.3657 70.9948 12.2437 70.9948C12.0768 70.9948 11.9378 71.0332 11.8265 71.1102C11.7164 71.1859 11.6614 71.2824 11.6614 71.3996C11.6614 71.5038 11.6992 71.586 11.775 71.6464C11.8508 71.7068 11.9691 71.7571 12.1301 71.7973L12.5349 71.8968C12.7788 71.9559 12.9605 72.0465 13.08 72.1684C13.1996 72.2892 13.2594 72.4448 13.2594 72.6354C13.2594 72.7916 13.2144 72.9313 13.1244 73.0544C13.0357 73.1775 12.9114 73.2746 12.7516 73.3456C12.5918 73.4166 12.4059 73.4522 12.194 73.4522C11.9159 73.4522 11.6856 73.3918 11.5033 73.2711C11.321 73.1503 11.2056 72.9739 11.1571 72.7419L11.5548 72.6425C11.5927 72.7893 11.6643 72.8994 11.7697 72.9728C11.8762 73.0461 12.0153 73.0828 12.1869 73.0828C12.3822 73.0828 12.5373 73.0414 12.6521 72.9586C12.7681 72.8745 12.8261 72.7739 12.8261 72.6567C12.8261 72.562 12.793 72.4827 12.7267 72.4188C12.6604 72.3537 12.5586 72.3051 12.4213 72.2732L11.9668 72.1666C11.717 72.1075 11.5335 72.0157 11.4163 71.8914C11.3003 71.766 11.2423 71.6091 11.2423 71.4209C11.2423 71.267 11.2855 71.1309 11.3719 71.0125C11.4595 70.8942 11.5785 70.8012 11.7288 70.7338C11.8803 70.6663 12.052 70.6326 12.2437 70.6326C12.5136 70.6326 12.7255 70.6917 12.8794 70.8101C13.0345 70.9285 13.1446 71.0847 13.2097 71.2789ZM14.3092 71.7547V73.3953H13.8901V69.759H14.3092V71.0942H14.3447C14.4086 70.9533 14.5045 70.8415 14.6323 70.7586C14.7614 70.6746 14.933 70.6326 15.1472 70.6326C15.3331 70.6326 15.4959 70.6698 15.6355 70.7444C15.7752 70.8178 15.8835 70.9309 15.9605 71.0836C16.0386 71.2351 16.0776 71.428 16.0776 71.6624V73.3953H15.6586V71.6908C15.6586 71.4742 15.6024 71.3067 15.4899 71.1883C15.3787 71.0688 15.2242 71.009 15.0265 71.009C14.8892 71.009 14.7661 71.038 14.6572 71.096C14.5495 71.154 14.4642 71.2386 14.4015 71.3499C14.34 71.4612 14.3092 71.5961 14.3092 71.7547ZM16.8442 73.3953V70.6681H17.2491V71.08H17.2775C17.3272 70.9451 17.4172 70.8356 17.5474 70.7515C17.6776 70.6675 17.8244 70.6255 17.9877 70.6255C18.0185 70.6255 18.057 70.626 18.1031 70.6272C18.1493 70.6284 18.1842 70.6302 18.2079 70.6326V71.0587C18.1937 71.0551 18.1611 71.0498 18.1102 71.0427C18.0605 71.0344 18.0078 71.0303 17.9522 71.0303C17.8196 71.0303 17.7013 71.0581 17.5971 71.1137C17.4941 71.1682 17.4124 71.2439 17.3521 71.341C17.2929 71.4369 17.2633 71.5464 17.2633 71.6695V73.3953H16.8442ZM19.5072 73.4593C19.3343 73.4593 19.1775 73.4267 19.0366 73.3616C18.8958 73.2953 18.7839 73.2 18.701 73.0757C18.6182 72.9503 18.5768 72.7987 18.5768 72.6212C18.5768 72.4649 18.6075 72.3383 18.6691 72.2412C18.7306 72.143 18.8129 72.066 18.9159 72.0104C19.0189 71.9548 19.1325 71.9133 19.2568 71.8861C19.3823 71.8577 19.5083 71.8352 19.635 71.8186C19.8007 71.7973 19.9351 71.7813 20.038 71.7707C20.1422 71.7589 20.218 71.7393 20.2653 71.7121C20.3139 71.6849 20.3381 71.6375 20.3381 71.5701V71.5559C20.3381 71.3807 20.2902 71.2445 20.1943 71.1475C20.0996 71.0504 19.9558 71.0019 19.7628 71.0019C19.5628 71.0019 19.4059 71.0457 19.2923 71.1333C19.1787 71.2209 19.0988 71.3144 19.0526 71.4138L18.6549 71.2718C18.7259 71.106 18.8206 70.977 18.939 70.8847C19.0585 70.7912 19.1887 70.7261 19.3296 70.6894C19.4716 70.6515 19.6113 70.6326 19.7486 70.6326C19.8362 70.6326 19.9368 70.6432 20.0505 70.6645C20.1653 70.6846 20.276 70.7267 20.3825 70.7906C20.4902 70.8545 20.5796 70.951 20.6506 71.08C20.7216 71.209 20.7572 71.3818 20.7572 71.5985V73.3953H20.3381V73.026H20.3168C20.2884 73.0852 20.2411 73.1485 20.1748 73.216C20.1085 73.2835 20.0203 73.3409 19.9102 73.3882C19.8001 73.4356 19.6658 73.4593 19.5072 73.4593ZM19.5711 73.0828C19.7368 73.0828 19.8765 73.0503 19.9901 72.9852C20.1049 72.9201 20.1913 72.836 20.2493 72.7331C20.3085 72.6301 20.3381 72.5218 20.3381 72.4081V72.0246C20.3204 72.0459 20.2813 72.0654 20.2209 72.0832C20.1617 72.0998 20.0931 72.1146 20.015 72.1276C19.938 72.1394 19.8629 72.1501 19.7895 72.1595C19.7173 72.1678 19.6587 72.1749 19.6137 72.1809C19.5048 72.1951 19.403 72.2181 19.3083 72.2501C19.2148 72.2809 19.139 72.3276 19.081 72.3904C19.0242 72.4519 18.9958 72.536 18.9958 72.6425C18.9958 72.7881 19.0497 72.8982 19.1574 72.9728C19.2663 73.0461 19.4042 73.0828 19.5711 73.0828ZM21.522 73.3953V70.6681H21.9268V71.0942H21.9623C22.0191 70.9486 22.1109 70.8356 22.2375 70.7551C22.3642 70.6734 22.5163 70.6326 22.6939 70.6326C22.8738 70.6326 23.0235 70.6734 23.1431 70.7551C23.2638 70.8356 23.3579 70.9486 23.4254 71.0942H23.4538C23.5236 70.9533 23.6284 70.8415 23.7681 70.7586C23.9078 70.6746 24.0752 70.6326 24.2706 70.6326C24.5144 70.6326 24.7139 70.7089 24.8689 70.8616C25.024 71.0131 25.1015 71.2493 25.1015 71.5701V73.3953H24.6825V71.5701C24.6825 71.3688 24.6274 71.225 24.5174 71.1386C24.4073 71.0522 24.2777 71.009 24.1285 71.009C23.9368 71.009 23.7882 71.067 23.6828 71.183C23.5775 71.2978 23.5248 71.4434 23.5248 71.6198V73.3953H23.0987V71.5274C23.0987 71.3724 23.0484 71.2475 22.9478 71.1528C22.8471 71.0569 22.7175 71.009 22.5589 71.009C22.45 71.009 22.3482 71.038 22.2535 71.096C22.16 71.154 22.0842 71.2345 22.0262 71.3375C21.9694 71.4393 21.941 71.557 21.941 71.6908V73.3953H21.522ZM28.4884 70.6681V71.0232H27.0183V70.6681H28.4884ZM27.4586 73.3953V70.2916C27.4586 70.1354 27.4953 70.0052 27.5687 69.901C27.6421 69.7969 27.7374 69.7187 27.8545 69.6666C27.9717 69.6146 28.0954 69.5885 28.2256 69.5885C28.3286 69.5885 28.4127 69.5968 28.4778 69.6134C28.5429 69.63 28.5914 69.6453 28.6234 69.6595L28.5026 70.0218C28.4813 70.0147 28.4517 70.0058 28.4138 69.9951C28.3772 69.9845 28.3286 69.9791 28.2683 69.9791C28.1298 69.9791 28.0297 70.0141 27.9682 70.0839C27.9078 70.1537 27.8776 70.2561 27.8776 70.3911V73.3953H27.4586ZM30.0713 73.4522C29.8251 73.4522 29.6091 73.3936 29.4233 73.2764C29.2386 73.1592 29.0942 72.9952 28.99 72.7845C28.887 72.5738 28.8355 72.3276 28.8355 72.0459C28.8355 71.7618 28.887 71.5138 28.99 71.3019C29.0942 71.0901 29.2386 70.9255 29.4233 70.8083C29.6091 70.6911 29.8251 70.6326 30.0713 70.6326C30.3176 70.6326 30.533 70.6911 30.7176 70.8083C30.9035 70.9255 31.0479 71.0901 31.1509 71.3019C31.2551 71.5138 31.3071 71.7618 31.3071 72.0459C31.3071 72.3276 31.2551 72.5738 31.1509 72.7845C31.0479 72.9952 30.9035 73.1592 30.7176 73.2764C30.533 73.3936 30.3176 73.4522 30.0713 73.4522ZM30.0713 73.0757C30.2584 73.0757 30.4123 73.0278 30.533 72.9319C30.6537 72.836 30.7431 72.71 30.8011 72.5537C30.8591 72.3975 30.8881 72.2282 30.8881 72.0459C30.8881 71.8636 30.8591 71.6938 30.8011 71.5363C30.7431 71.3789 30.6537 71.2516 30.533 71.1546C30.4123 71.0575 30.2584 71.009 30.0713 71.009C29.8843 71.009 29.7304 71.0575 29.6097 71.1546C29.489 71.2516 29.3996 71.3789 29.3416 71.5363C29.2836 71.6938 29.2546 71.8636 29.2546 72.0459C29.2546 72.2282 29.2836 72.3975 29.3416 72.5537C29.3996 72.71 29.489 72.836 29.6097 72.9319C29.7304 73.0278 29.8843 73.0757 30.0713 73.0757ZM31.9468 73.3953V70.6681H32.3516V71.08H32.38C32.4297 70.9451 32.5197 70.8356 32.6499 70.7515C32.7801 70.6675 32.9269 70.6255 33.0903 70.6255C33.121 70.6255 33.1595 70.626 33.2057 70.6272C33.2518 70.6284 33.2867 70.6302 33.3104 70.6326V71.0587C33.2962 71.0551 33.2637 71.0498 33.2128 71.0427C33.163 71.0344 33.1104 71.0303 33.0547 71.0303C32.9222 71.0303 32.8038 71.0581 32.6996 71.1137C32.5966 71.1682 32.515 71.2439 32.4546 71.341C32.3954 71.4369 32.3658 71.5464 32.3658 71.6695V73.3953H31.9468ZM36.3213 73.4522C36.0657 73.4522 35.8455 73.3918 35.6608 73.2711C35.4762 73.1503 35.3341 72.984 35.2347 72.7721C35.1353 72.5602 35.0855 72.3182 35.0855 72.0459C35.0855 71.7689 35.1364 71.5245 35.2382 71.3126C35.3412 71.0995 35.4845 70.9332 35.6679 70.8137C35.8526 70.6929 36.068 70.6326 36.3142 70.6326C36.506 70.6326 36.6788 70.6681 36.8327 70.7391C36.9866 70.8101 37.1127 70.9095 37.2109 71.0374C37.3091 71.1652 37.3701 71.3144 37.3938 71.4848H36.9748C36.9428 71.3605 36.8718 71.2505 36.7617 71.1546C36.6528 71.0575 36.506 71.009 36.3213 71.009C36.158 71.009 36.0148 71.0516 35.8917 71.1368C35.7697 71.2209 35.6744 71.3398 35.6058 71.4937C35.5383 71.6464 35.5046 71.8257 35.5046 72.0317C35.5046 72.2424 35.5377 72.4259 35.604 72.5821C35.6715 72.7384 35.7662 72.8597 35.8881 72.9461C36.0112 73.0325 36.1556 73.0757 36.3213 73.0757C36.4302 73.0757 36.5291 73.0568 36.6179 73.0189C36.7066 72.981 36.7818 72.9266 36.8434 72.8556C36.9049 72.7845 36.9487 72.6993 36.9748 72.5999H37.3938C37.3701 72.7609 37.3115 72.9059 37.218 73.0349C37.1257 73.1627 37.0032 73.2645 36.8505 73.3403C36.6989 73.4149 36.5226 73.4522 36.3213 73.4522ZM39.1143 73.4522C38.8681 73.4522 38.6521 73.3936 38.4662 73.2764C38.2816 73.1592 38.1372 72.9952 38.033 72.7845C37.93 72.5738 37.8785 72.3276 37.8785 72.0459C37.8785 71.7618 37.93 71.5138 38.033 71.3019C38.1372 71.0901 38.2816 70.9255 38.4662 70.8083C38.6521 70.6911 38.8681 70.6326 39.1143 70.6326C39.3605 70.6326 39.576 70.6911 39.7606 70.8083C39.9465 70.9255 40.0909 71.0901 40.1939 71.3019C40.298 71.5138 40.3501 71.7618 40.3501 72.0459C40.3501 72.3276 40.298 72.5738 40.1939 72.7845C40.0909 72.9952 39.9465 73.1592 39.7606 73.2764C39.576 73.3936 39.3605 73.4522 39.1143 73.4522ZM39.1143 73.0757C39.3013 73.0757 39.4552 73.0278 39.576 72.9319C39.6967 72.836 39.7861 72.71 39.8441 72.5537C39.9021 72.3975 39.9311 72.2282 39.9311 72.0459C39.9311 71.8636 39.9021 71.6938 39.8441 71.5363C39.7861 71.3789 39.6967 71.2516 39.576 71.1546C39.4552 71.0575 39.3013 71.009 39.1143 71.009C38.9273 71.009 38.7734 71.0575 38.6527 71.1546C38.5319 71.2516 38.4426 71.3789 38.3846 71.5363C38.3266 71.6938 38.2975 71.8636 38.2975 72.0459C38.2975 72.2282 38.3266 72.3975 38.3846 72.5537C38.4426 72.71 38.5319 72.836 38.6527 72.9319C38.7734 73.0278 38.9273 73.0757 39.1143 73.0757ZM41.7923 73.4593C41.6195 73.4593 41.4626 73.4267 41.3218 73.3616C41.1809 73.2953 41.0691 73.2 40.9862 73.0757C40.9033 72.9503 40.8619 72.7987 40.8619 72.6212C40.8619 72.4649 40.8927 72.3383 40.9542 72.2412C41.0158 72.143 41.0981 72.066 41.201 72.0104C41.304 71.9548 41.4177 71.9133 41.542 71.8861C41.6674 71.8577 41.7935 71.8352 41.9202 71.8186C42.0859 71.7973 42.2202 71.7813 42.3232 71.7707C42.4274 71.7589 42.5031 71.7393 42.5505 71.7121C42.599 71.6849 42.6233 71.6375 42.6233 71.5701V71.5559C42.6233 71.3807 42.5753 71.2445 42.4795 71.1475C42.3848 71.0504 42.2409 71.0019 42.048 71.0019C41.8479 71.0019 41.6911 71.0457 41.5775 71.1333C41.4638 71.2209 41.3839 71.3144 41.3378 71.4138L40.94 71.2718C41.0111 71.106 41.1058 70.977 41.2241 70.8847C41.3437 70.7912 41.4739 70.7261 41.6148 70.6894C41.7568 70.6515 41.8965 70.6326 42.0338 70.6326C42.1214 70.6326 42.222 70.6432 42.3356 70.6645C42.4505 70.6846 42.5611 70.7267 42.6677 70.7906C42.7754 70.8545 42.8648 70.951 42.9358 71.08C43.0068 71.209 43.0423 71.3818 43.0423 71.5985V73.3953H42.6233V73.026H42.602C42.5736 73.0852 42.5262 73.1485 42.4599 73.216C42.3936 73.2835 42.3055 73.3409 42.1954 73.3882C42.0853 73.4356 41.9509 73.4593 41.7923 73.4593ZM41.8562 73.0828C42.022 73.0828 42.1616 73.0503 42.2753 72.9852C42.3901 72.9201 42.4765 72.836 42.5345 72.7331C42.5937 72.6301 42.6233 72.5218 42.6233 72.4081V72.0246C42.6055 72.0459 42.5665 72.0654 42.5061 72.0832C42.4469 72.0998 42.3782 72.1146 42.3001 72.1276C42.2232 72.1394 42.148 72.1501 42.0746 72.1595C42.0024 72.1678 41.9438 72.1749 41.8988 72.1809C41.7899 72.1951 41.6881 72.2181 41.5934 72.2501C41.4999 72.2809 41.4242 72.3276 41.3662 72.3904C41.3094 72.4519 41.2809 72.536 41.2809 72.6425C41.2809 72.7881 41.3348 72.8982 41.4425 72.9728C41.5514 73.0461 41.6893 73.0828 41.8562 73.0828ZM44.9151 73.4522C44.6594 73.4522 44.4392 73.3918 44.2546 73.2711C44.0699 73.1503 43.9279 72.984 43.8284 72.7721C43.729 72.5602 43.6793 72.3182 43.6793 72.0459C43.6793 71.7689 43.7302 71.5245 43.832 71.3126C43.935 71.0995 44.0782 70.9332 44.2617 70.8137C44.4463 70.6929 44.6618 70.6326 44.908 70.6326C45.0998 70.6326 45.2726 70.6681 45.4265 70.7391C45.5803 70.8101 45.7064 70.9095 45.8047 71.0374C45.9029 71.1652 45.9639 71.3144 45.9875 71.4848H45.5685C45.5365 71.3605 45.4655 71.2505 45.3554 71.1546C45.2465 71.0575 45.0998 71.009 44.9151 71.009C44.7517 71.009 44.6085 71.0516 44.4854 71.1368C44.3635 71.2209 44.2682 71.3398 44.1995 71.4937C44.1321 71.6464 44.0983 71.8257 44.0983 72.0317C44.0983 72.2424 44.1315 72.4259 44.1978 72.5821C44.2652 72.7384 44.3599 72.8597 44.4819 72.9461C44.605 73.0325 44.7494 73.0757 44.9151 73.0757C45.024 73.0757 45.1228 73.0568 45.2116 73.0189C45.3004 72.981 45.3756 72.9266 45.4371 72.8556C45.4987 72.7845 45.5425 72.6993 45.5685 72.5999H45.9875C45.9639 72.7609 45.9053 72.9059 45.8118 73.0349C45.7194 73.1627 45.5969 73.2645 45.4442 73.3403C45.2927 73.4149 45.1163 73.4522 44.9151 73.4522ZM47.0191 71.7547V73.3953H46.6001V69.759H47.0191V71.0942H47.0547C47.1186 70.9533 47.2145 70.8415 47.3423 70.7586C47.4713 70.6746 47.643 70.6326 47.8572 70.6326C48.0431 70.6326 48.2058 70.6698 48.3455 70.7444C48.4852 70.8178 48.5935 70.9309 48.6704 71.0836C48.7485 71.2351 48.7876 71.428 48.7876 71.6624V73.3953H48.3686V71.6908C48.3686 71.4742 48.3123 71.3067 48.1999 71.1883C48.0886 71.0688 47.9341 71.009 47.7365 71.009C47.5992 71.009 47.4761 71.038 47.3672 71.096C47.2594 71.154 47.1742 71.2386 47.1115 71.3499C47.0499 71.4612 47.0191 71.5961 47.0191 71.7547ZM49.5542 73.3953V70.6681H49.9732V73.3953H49.5542ZM49.7673 70.2135C49.6856 70.2135 49.6152 70.1857 49.556 70.1301C49.498 70.0744 49.469 70.0076 49.469 69.9294C49.469 69.8513 49.498 69.7844 49.556 69.7288C49.6152 69.6732 49.6856 69.6453 49.7673 69.6453C49.849 69.6453 49.9188 69.6732 49.9768 69.7288C50.036 69.7844 50.0656 69.8513 50.0656 69.9294C50.0656 70.0076 50.036 70.0744 49.9768 70.1301C49.9188 70.1857 49.849 70.2135 49.7673 70.2135ZM51.1598 71.7547V73.3953H50.7407V70.6681H51.1456V71.0942H51.1811C51.245 70.9557 51.3421 70.8444 51.4723 70.7604C51.6025 70.6752 51.7706 70.6326 51.9765 70.6326C52.1612 70.6326 52.3228 70.6704 52.4613 70.7462C52.5998 70.8208 52.7075 70.9344 52.7844 71.0871C52.8614 71.2386 52.8998 71.4304 52.8998 71.6624V73.3953H52.4808V71.6908C52.4808 71.4765 52.4252 71.3096 52.3139 71.1901C52.2026 71.0693 52.0499 71.009 51.8558 71.009C51.722 71.009 51.6025 71.038 51.4971 71.096C51.393 71.154 51.3107 71.2386 51.2503 71.3499C51.1899 71.4612 51.1598 71.5961 51.1598 71.7547ZM54.7664 74.4749C54.564 74.4749 54.39 74.4488 54.2444 74.3968C54.0988 74.3459 53.9774 74.2784 53.8804 74.1943C53.7845 74.1115 53.7081 74.0227 53.6513 73.928L53.9851 73.6936C54.023 73.7434 54.071 73.8002 54.129 73.8641C54.187 73.9292 54.2663 73.9854 54.3669 74.0328C54.4687 74.0813 54.6019 74.1056 54.7664 74.1056C54.9866 74.1056 55.1683 74.0523 55.3115 73.9458C55.4547 73.8392 55.5263 73.6723 55.5263 73.4451V72.8911H55.4908C55.46 72.9408 55.4162 73.0023 55.3594 73.0757C55.3038 73.1479 55.2233 73.2125 55.118 73.2693C55.0138 73.3249 54.8729 73.3527 54.6954 73.3527C54.4752 73.3527 54.2775 73.3006 54.1023 73.1965C53.9283 73.0923 53.7904 72.9408 53.6886 72.7419C53.588 72.5431 53.5377 72.3016 53.5377 72.0175C53.5377 71.7381 53.5868 71.4949 53.6851 71.2877C53.7833 71.0794 53.92 70.9184 54.0952 70.8048C54.2704 70.69 54.4728 70.6326 54.7025 70.6326C54.88 70.6326 55.0209 70.6621 55.1251 70.7213C55.2304 70.7793 55.3109 70.8456 55.3665 70.9202C55.4233 70.9936 55.4671 71.054 55.4979 71.1013H55.5405V70.6681H55.9454V73.4735C55.9454 73.7078 55.8921 73.8984 55.7856 74.0452C55.6802 74.1932 55.5382 74.3015 55.3594 74.3701C55.1819 74.44 54.9842 74.4749 54.7664 74.4749ZM54.7522 72.9763C54.9203 72.9763 55.0623 72.9378 55.1783 72.8609C55.2943 72.784 55.3825 72.6733 55.4429 72.5289C55.5032 72.3844 55.5334 72.2116 55.5334 72.0104C55.5334 71.8139 55.5038 71.6405 55.4447 71.4902C55.3855 71.3398 55.2979 71.222 55.1819 71.1368C55.0659 71.0516 54.9226 71.009 54.7522 71.009C54.5746 71.009 54.4267 71.054 54.3083 71.1439C54.1911 71.2339 54.1029 71.3546 54.0437 71.5061C53.9857 71.6577 53.9567 71.8257 53.9567 72.0104C53.9567 72.1998 53.9863 72.3673 54.0455 72.5129C54.1059 72.6573 54.1947 72.7709 54.3118 72.8538C54.4302 72.9355 54.577 72.9763 54.7522 72.9763ZM57.0178 73.4237C56.9302 73.4237 56.855 73.3924 56.7923 73.3296C56.7296 73.2669 56.6982 73.1917 56.6982 73.1041C56.6982 73.0166 56.7296 72.9414 56.7923 72.8786C56.855 72.8159 56.9302 72.7845 57.0178 72.7845C57.1054 72.7845 57.1806 72.8159 57.2433 72.8786C57.306 72.9414 57.3374 73.0166 57.3374 73.1041C57.3374 73.1621 57.3226 73.2154 57.293 73.2639C57.2646 73.3125 57.2261 73.3515 57.1776 73.3811C57.1303 73.4095 57.077 73.4237 57.0178 73.4237Z" fill="#F5F5F5"/>
<path d="M8 9V27.1101H25.3827V9H8ZM17.4596 23.1242C17.4596 24.8867 16.4663 25.6912 15.0191 25.6912C13.7115 25.6912 12.9549 24.9878 12.5668 24.1348L13.8977 23.298C14.1538 23.771 14.3866 24.1712 14.9492 24.1712C15.4847 24.1712 15.8261 23.9529 15.8261 23.1V17.3153H17.4596V23.1242ZM21.3242 25.6912C19.8071 25.6912 18.8254 24.9393 18.3482 23.9529L19.679 23.1525C20.0282 23.7468 20.4861 24.1874 21.2892 24.1874C21.9644 24.1874 22.399 23.8357 22.399 23.3466C22.399 22.7644 21.9566 22.5583 21.2078 22.2147L20.8004 22.0328C19.6208 21.5113 18.8409 20.8524 18.8409 19.4658C18.8409 18.1884 19.776 17.2182 21.231 17.2182C22.2709 17.2182 23.0159 17.5942 23.5513 18.5805L22.2787 19.4295C21.9993 18.908 21.6967 18.7018 21.2272 18.7018C20.7499 18.7018 20.4473 19.0171 20.4473 19.4295C20.4473 19.9388 20.7499 20.145 21.4522 20.4643L21.8596 20.6462C23.2487 21.2647 24.0286 21.8994 24.0286 23.3223C24.0286 24.8503 22.8723 25.6912 21.3242 25.6912Z" fill="#FDB03C"/>
<path d="M10.8539 86.6655H10.3227C10.3075 86.5783 10.2796 86.5012 10.2389 86.4339C10.1981 86.3657 10.1475 86.308 10.0869 86.2606C10.0263 86.2133 9.95714 86.1778 9.87949 86.1541C9.80279 86.1295 9.71993 86.1172 9.63091 86.1172C9.47277 86.1172 9.33262 86.1569 9.21046 86.2365C9.0883 86.3151 8.99265 86.4306 8.92353 86.5831C8.8544 86.7346 8.81983 86.9197 8.81983 87.1385C8.81983 87.361 8.8544 87.5485 8.92353 87.701C8.9936 87.8525 9.08925 87.9671 9.21046 88.0447C9.33262 88.1214 9.47229 88.1598 9.62949 88.1598C9.71661 88.1598 9.79805 88.1484 9.87381 88.1257C9.95051 88.102 10.0192 88.0674 10.0798 88.022C10.1413 87.9765 10.1929 87.9207 10.2346 87.8544C10.2772 87.7881 10.3066 87.7123 10.3227 87.6271L10.8539 87.6299C10.834 87.7682 10.791 87.8979 10.7247 88.0192C10.6593 88.1404 10.5736 88.2474 10.4676 88.3402C10.3615 88.432 10.2374 88.504 10.0954 88.5561C9.95336 88.6072 9.79568 88.6328 9.62239 88.6328C9.36671 88.6328 9.13849 88.5736 8.93773 88.4552C8.73697 88.3369 8.57883 88.1659 8.4633 87.9424C8.34777 87.719 8.29 87.451 8.29 87.1385C8.29 86.825 8.34824 86.557 8.46472 86.3345C8.5812 86.111 8.73981 85.9401 8.94057 85.8217C9.14133 85.7033 9.3686 85.6442 9.62239 85.6442C9.78432 85.6442 9.93489 85.6669 10.0741 85.7123C10.2133 85.7578 10.3374 85.8246 10.4463 85.9126C10.5552 85.9997 10.6446 86.1067 10.7147 86.2336C10.7857 86.3596 10.8321 86.5035 10.8539 86.6655ZM11.828 87.3146V88.593H11.3138V85.6839H11.8166V86.7819H11.8422C11.8933 86.6588 11.9724 86.5618 12.0794 86.4907C12.1874 86.4188 12.3247 86.3828 12.4914 86.3828C12.6429 86.3828 12.775 86.4145 12.8877 86.478C13.0003 86.5414 13.0875 86.6342 13.149 86.7564C13.2115 86.8785 13.2428 87.0277 13.2428 87.2038V88.593H12.7286V87.2834C12.7286 87.1366 12.6907 87.0225 12.6149 86.941C12.5401 86.8586 12.435 86.8174 12.2996 86.8174C12.2087 86.8174 12.1272 86.8373 12.0553 86.8771C11.9843 86.9159 11.9284 86.9723 11.8877 87.0461C11.8479 87.12 11.828 87.2095 11.828 87.3146ZM14.7328 88.6356C14.5141 88.6356 14.3252 88.5902 14.1661 88.4993C14.0079 88.4074 13.8862 88.2777 13.801 88.1101C13.7158 87.9415 13.6732 87.7431 13.6732 87.5149C13.6732 87.2905 13.7158 87.0935 13.801 86.924C13.8872 86.7535 14.0075 86.621 14.1618 86.5263C14.3162 86.4306 14.4975 86.3828 14.7058 86.3828C14.8403 86.3828 14.9672 86.4046 15.0865 86.4481C15.2068 86.4907 15.3128 86.557 15.4047 86.647C15.4975 86.737 15.5704 86.8515 15.6235 86.9907C15.6765 87.129 15.703 87.2938 15.703 87.4851V87.6427H13.9146V87.2961H15.2101C15.2092 87.1977 15.1878 87.1101 15.1462 87.0334C15.1045 86.9557 15.0463 86.8946 14.9715 86.8501C14.8976 86.8056 14.8114 86.7834 14.7129 86.7834C14.6078 86.7834 14.5155 86.8089 14.436 86.8601C14.3564 86.9103 14.2944 86.9765 14.2499 87.0589C14.2063 87.1404 14.1841 87.2299 14.1831 87.3274V87.6299C14.1831 87.7568 14.2063 87.8657 14.2527 87.9567C14.2991 88.0466 14.364 88.1157 14.4473 88.164C14.5307 88.2114 14.6282 88.2351 14.7399 88.2351C14.8147 88.2351 14.8825 88.2246 14.9431 88.2038C15.0037 88.182 15.0562 88.1503 15.1007 88.1086C15.1452 88.067 15.1789 88.0154 15.2016 87.9538L15.6817 88.0078C15.6514 88.1347 15.5936 88.2455 15.5084 88.3402C15.4241 88.4339 15.3162 88.5068 15.1845 88.5589C15.0529 88.6101 14.9023 88.6356 14.7328 88.6356ZM17.0897 88.6356C16.8719 88.6356 16.6849 88.5878 16.5286 88.4922C16.3733 88.3965 16.2535 88.2644 16.1693 88.0959C16.0859 87.9264 16.0443 87.7313 16.0443 87.5106C16.0443 87.289 16.0869 87.0935 16.1721 86.924C16.2573 86.7535 16.3776 86.621 16.5329 86.5263C16.6892 86.4306 16.8738 86.3828 17.0869 86.3828C17.264 86.3828 17.4207 86.4155 17.557 86.4808C17.6944 86.5452 17.8037 86.6366 17.8852 86.7549C17.9666 86.8724 18.013 87.0097 18.0244 87.1669H17.5329C17.513 87.0618 17.4657 86.9742 17.3909 86.9041C17.317 86.8331 17.218 86.7976 17.094 86.7976C16.9889 86.7976 16.8965 86.826 16.817 86.8828C16.7374 86.9387 16.6754 87.0192 16.6309 87.1243C16.5874 87.2294 16.5656 87.3553 16.5656 87.5021C16.5656 87.6508 16.5874 87.7786 16.6309 87.8856C16.6745 87.9917 16.7356 88.0736 16.8142 88.1314C16.8937 88.1882 16.987 88.2166 17.094 88.2166C17.1697 88.2166 17.2374 88.2024 17.2971 88.174C17.3577 88.1446 17.4084 88.1025 17.4491 88.0476C17.4898 87.9926 17.5177 87.9259 17.5329 87.8473H18.0244C18.0121 88.0016 17.9666 88.1385 17.888 88.2578C17.8094 88.3762 17.7024 88.469 17.567 88.5362C17.4316 88.6025 17.2725 88.6356 17.0897 88.6356ZM18.9154 87.9084L18.9139 87.2876H18.9963L19.7804 86.4112H20.3813L19.4168 87.4851H19.3102L18.9154 87.9084ZM18.4466 88.593V85.6839H18.9608V88.593H18.4466ZM19.8159 88.593L19.1057 87.6001L19.4523 87.2379L20.431 88.593H19.8159ZM23.3198 86.4836C23.3066 86.3596 23.2507 86.263 23.1522 86.1939C23.0547 86.1247 22.9278 86.0902 22.7715 86.0902C22.6617 86.0902 22.5675 86.1067 22.4889 86.1399C22.4103 86.173 22.3501 86.218 22.3085 86.2748C22.2668 86.3317 22.2455 86.3965 22.2445 86.4694C22.2445 86.53 22.2583 86.5826 22.2857 86.6271C22.3142 86.6716 22.3525 86.7095 22.4008 86.7407C22.4491 86.771 22.5026 86.7966 22.5613 86.8174C22.62 86.8383 22.6792 86.8558 22.7389 86.87L23.0116 86.9382C23.1214 86.9638 23.227 86.9983 23.3284 87.0419C23.4306 87.0854 23.522 87.1404 23.6025 87.2067C23.6839 87.2729 23.7483 87.353 23.7957 87.4467C23.843 87.5405 23.8667 87.6503 23.8667 87.7763C23.8667 87.9467 23.8231 88.0968 23.736 88.2265C23.6489 88.3553 23.523 88.4562 23.3582 88.5291C23.1944 88.6011 22.996 88.6371 22.763 88.6371C22.5367 88.6371 22.3402 88.602 22.1735 88.5319C22.0078 88.4619 21.8781 88.3596 21.7843 88.2251C21.6915 88.0907 21.6413 87.9268 21.6338 87.7336H22.1522C22.1598 87.835 22.191 87.9192 22.246 87.9865C22.3009 88.0537 22.3724 88.1039 22.4605 88.1371C22.5495 88.1702 22.6489 88.1868 22.7588 88.1868C22.8733 88.1868 22.9737 88.1697 23.0599 88.1356C23.147 88.1006 23.2152 88.0523 23.2644 87.9907C23.3137 87.9282 23.3388 87.8553 23.3397 87.772C23.3388 87.6962 23.3165 87.6337 23.273 87.5845C23.2294 87.5343 23.1683 87.4926 23.0897 87.4595C23.0121 87.4254 22.9212 87.3951 22.817 87.3686L22.486 87.2834C22.2464 87.2218 22.057 87.1285 21.9178 87.0035C21.7796 86.8776 21.7105 86.7104 21.7105 86.5021C21.7105 86.3307 21.7569 86.1806 21.8497 86.0518C21.9434 85.923 22.0708 85.8231 22.2318 85.7521C22.3927 85.6801 22.575 85.6442 22.7786 85.6442C22.9851 85.6442 23.166 85.6801 23.3213 85.7521C23.4775 85.8231 23.6001 85.9221 23.6892 86.049C23.7782 86.1749 23.8241 86.3198 23.8269 86.4836H23.3198ZM24.6334 89.4112C24.5633 89.4112 24.4985 89.4055 24.4388 89.3942C24.3801 89.3837 24.3332 89.3714 24.2982 89.3572L24.4175 88.9567C24.4923 88.9784 24.5591 88.9889 24.6178 88.9879C24.6765 88.987 24.7281 88.9685 24.7726 88.9325C24.8181 88.8975 24.8564 88.8388 24.8877 88.7564L24.9317 88.6385L24.1405 86.4112H24.686L25.1888 88.0589H25.2115L25.7158 86.4112H26.2627L25.3891 88.8572C25.3484 88.9728 25.2944 89.0717 25.2271 89.1541C25.1599 89.2374 25.0775 89.3009 24.98 89.3444C24.8834 89.3889 24.7679 89.4112 24.6334 89.4112ZM27.1327 85.6839V88.593H26.6185V85.6839H27.1327ZM28.1757 85.6839V88.593H27.6615V85.6839H28.1757ZM29.3323 88.6371C29.194 88.6371 29.0695 88.6124 28.9587 88.5632C28.8488 88.513 28.7617 88.4391 28.6973 88.3416C28.6339 88.2441 28.6021 88.1238 28.6021 87.9808C28.6021 87.8577 28.6249 87.7559 28.6703 87.6754C28.7158 87.5949 28.7778 87.5305 28.8564 87.4822C28.935 87.4339 29.0235 87.3975 29.122 87.3728C29.2215 87.3473 29.3242 87.3288 29.4303 87.3174C29.5581 87.3042 29.6618 87.2924 29.7414 87.2819C29.8209 87.2706 29.8787 87.2535 29.9146 87.2308C29.9516 87.2071 29.97 87.1707 29.97 87.1214V87.1129C29.97 87.0059 29.9383 86.923 29.8749 86.8643C29.8114 86.8056 29.72 86.7763 29.6007 86.7763C29.4748 86.7763 29.3749 86.8037 29.301 86.8586C29.2281 86.9136 29.1789 86.9784 29.1533 87.0532L28.6732 86.9851C28.711 86.8525 28.7735 86.7417 28.8607 86.6527C28.9478 86.5627 29.0543 86.4955 29.1803 86.451C29.3062 86.4055 29.4454 86.3828 29.5979 86.3828C29.703 86.3828 29.8076 86.3951 29.9118 86.4197C30.016 86.4443 30.1111 86.4851 30.1973 86.5419C30.2835 86.5978 30.3526 86.674 30.4047 86.7706C30.4577 86.8672 30.4843 86.9879 30.4843 87.1328V88.593H29.9899V88.2933H29.9729C29.9416 88.3539 29.8976 88.4107 29.8408 88.4638C29.7849 88.5158 29.7144 88.558 29.6291 88.5902C29.5449 88.6214 29.4459 88.6371 29.3323 88.6371ZM29.4658 88.2592C29.569 88.2592 29.6585 88.2389 29.7343 88.1981C29.81 88.1565 29.8682 88.1015 29.909 88.0334C29.9506 87.9652 29.9715 87.8908 29.9715 87.8103V87.5532C29.9554 87.5665 29.9279 87.5788 29.8891 87.5902C29.8512 87.6015 29.8086 87.6115 29.7612 87.62C29.7139 87.6285 29.667 87.6361 29.6206 87.6427C29.5742 87.6494 29.534 87.655 29.4999 87.6598C29.4232 87.6702 29.3545 87.6872 29.2939 87.7109C29.2333 87.7346 29.1855 87.7677 29.1504 87.8103C29.1154 87.852 29.0979 87.906 29.0979 87.9723C29.0979 88.067 29.1325 88.1385 29.2016 88.1868C29.2707 88.2351 29.3588 88.2592 29.4658 88.2592ZM31.024 88.593V85.6839H31.5382V86.772H31.5595C31.586 86.719 31.6235 86.6626 31.6718 86.603C31.72 86.5424 31.7854 86.4907 31.8678 86.4481C31.9502 86.4046 32.0553 86.3828 32.1831 86.3828C32.3517 86.3828 32.5037 86.4259 32.6391 86.5121C32.7754 86.5973 32.8834 86.7237 32.9629 86.8913C33.0434 87.058 33.0837 87.2625 33.0837 87.5049C33.0837 87.7445 33.0444 87.9481 32.9658 88.1157C32.8872 88.2834 32.7802 88.4112 32.6448 88.4993C32.5093 88.5873 32.3559 88.6314 32.1845 88.6314C32.0595 88.6314 31.9558 88.6105 31.8735 88.5689C31.7911 88.5272 31.7248 88.477 31.6746 88.4183C31.6253 88.3586 31.587 88.3023 31.5595 88.2493H31.5297V88.593H31.024ZM31.5283 87.5021C31.5283 87.6432 31.5482 87.7668 31.5879 87.8728C31.6287 87.9789 31.6869 88.0618 31.7627 88.1214C31.8394 88.1801 31.9322 88.2095 32.0411 88.2095C32.1547 88.2095 32.2499 88.1792 32.3266 88.1186C32.4033 88.057 32.461 87.9732 32.4999 87.8672C32.5396 87.7602 32.5595 87.6385 32.5595 87.5021C32.5595 87.3667 32.5401 87.2464 32.5013 87.1413C32.4625 87.0362 32.4047 86.9538 32.328 86.8942C32.2513 86.8345 32.1557 86.8047 32.0411 86.8047C31.9312 86.8047 31.8379 86.8335 31.7612 86.8913C31.6845 86.9491 31.6263 87.03 31.5865 87.1342C31.5477 87.2384 31.5283 87.361 31.5283 87.5021ZM34.9115 87.6754V86.4112H35.4257V88.593H34.9271V88.2052H34.9043C34.8551 88.3274 34.7741 88.4273 34.6615 88.5049C34.5497 88.5826 34.4119 88.6214 34.2481 88.6214C34.1051 88.6214 33.9787 88.5897 33.8688 88.5263C33.7599 88.4619 33.6747 88.3686 33.6132 88.2464C33.5516 88.1233 33.5208 87.9746 33.5208 87.8004V86.4112H34.035V87.7209C34.035 87.8591 34.0729 87.969 34.1487 88.0504C34.2244 88.1318 34.3239 88.1726 34.447 88.1726C34.5227 88.1726 34.5961 88.1541 34.6671 88.1172C34.7382 88.0802 34.7964 88.0253 34.8418 87.9524C34.8883 87.8785 34.9115 87.7862 34.9115 87.6754ZM37.6789 86.9879L37.2101 87.039C37.1968 86.9917 37.1736 86.9472 37.1405 86.9055C37.1083 86.8639 37.0647 86.8302 37.0098 86.8047C36.9549 86.7791 36.8877 86.7663 36.8081 86.7663C36.7011 86.7663 36.6111 86.7895 36.5382 86.8359C36.4663 86.8823 36.4307 86.9424 36.4317 87.0163C36.4307 87.0798 36.4539 87.1314 36.5013 87.1711C36.5496 87.2109 36.6291 87.2436 36.7399 87.2692L37.1121 87.3487C37.3185 87.3932 37.4719 87.4638 37.5723 87.5603C37.6736 87.6569 37.7248 87.7834 37.7257 87.9396C37.7248 88.0769 37.6845 88.1981 37.605 88.3032C37.5264 88.4074 37.417 88.4889 37.2769 88.5476C37.1367 88.6063 36.9757 88.6356 36.7939 88.6356C36.5269 88.6356 36.3119 88.5798 36.149 88.468C35.9861 88.3553 35.8891 88.1986 35.8578 87.9978L36.3593 87.9496C36.382 88.048 36.4303 88.1224 36.5041 88.1726C36.578 88.2228 36.6741 88.2478 36.7925 88.2478C36.9146 88.2478 37.0127 88.2228 37.0865 88.1726C37.1613 88.1224 37.1987 88.0603 37.1987 87.9865C37.1987 87.924 37.1746 87.8724 37.1263 87.8317C37.0789 87.7909 37.0051 87.7597 36.9047 87.7379L36.5325 87.6598C36.3233 87.6162 36.1684 87.5428 36.0681 87.4396C35.9677 87.3354 35.918 87.2038 35.9189 87.0447C35.918 86.9103 35.9544 86.7938 36.0283 86.6953C36.1031 86.5959 36.2068 86.5192 36.3394 86.4652C36.4729 86.4103 36.6268 86.3828 36.801 86.3828C37.0567 86.3828 37.2579 86.4372 37.4047 86.5461C37.5524 86.655 37.6438 86.8023 37.6789 86.9879Z" fill="black" fill-opacity="0.65"/>
</svg>
