<svg width="170" height="183" viewBox="0 0 170 183" fill="none" xmlns="http://www.w3.org/2000/svg">
<path d="M91.3885 19.1925C133.072 23.5736 161.612 57.4755 157.375 97.7864C153.138 138.099 115.939 167.258 74.2574 162.877C32.5743 158.496 4.03415 124.594 8.271 84.283C12.508 43.9703 49.7073 14.8116 91.3885 19.1925Z" stroke="#F5F5F5"/>
<path d="M18.8503 116.613C24.8576 117.245 29.2014 122.419 28.6009 128.132C28.0005 133.845 22.6758 138.003 16.6685 137.372C10.6612 136.74 6.31743 131.566 6.91789 125.853C7.51835 120.14 12.843 115.982 18.8503 116.613Z" fill="white" stroke="#F5F5F5"/>
<path d="M11.3004 131.312L21.8895 131.516L23.6974 127.63L22.7398 123.426L12.3397 121.424L11.3004 131.312ZM15.5258 123.733L15.0284 128.465L16.3493 128.497L16.8245 123.976L20.7226 124.74L21.1735 127.336L21.1815 127.337L21.1785 127.365L20.1875 129.83L18.1614 129.773L18.2905 128.545L19.3102 128.561L19.8395 127.224L19.6003 125.801L17.9673 125.473L17.5157 129.771L13.6204 129.694L14.2729 123.486L15.5258 123.733Z" fill="#E31E25" fill-opacity="0.4"/>
<path d="M25.2123 35.3072C31.2196 35.9386 35.5634 41.1129 34.9629 46.8259C34.3625 52.5388 29.0378 56.697 23.0305 56.0656C17.0232 55.4342 12.6794 50.2599 13.2799 44.5469C13.8803 38.8339 19.205 34.6758 25.2123 35.3072Z" fill="white" stroke="#F5F5F5"/>
<path d="M150.791 45.5069C156.798 46.1383 161.142 51.3126 160.541 57.0256C159.941 62.7386 154.616 66.8967 148.609 66.2653C142.602 65.6339 138.258 60.4596 138.858 54.7466C139.459 49.0336 144.783 44.8755 150.791 45.5069Z" fill="white" stroke="#F5F5F5"/>
<path d="M76.2061 152.632C82.2135 153.264 86.5572 158.438 85.9568 164.151C85.3563 169.864 80.0317 174.022 74.0244 173.391C68.017 172.759 63.6733 167.585 64.2737 161.872C64.8742 156.159 70.1988 152.001 76.2061 152.632Z" fill="white" stroke="#F5F5F5"/>
<path d="M89.2193 8.04504C95.2266 8.67643 99.5704 13.8508 98.9699 19.5637C98.3694 25.2767 93.0448 29.4348 87.0375 28.8034C81.0302 28.172 76.6864 22.9977 77.2868 17.2847C77.8873 11.5718 83.2119 7.41364 89.2193 8.04504Z" fill="white" stroke="#F5F5F5"/>
<path d="M138.718 129.212C144.725 129.843 149.069 135.018 148.468 140.73C147.868 146.443 142.543 150.602 136.536 149.97C130.528 149.339 126.185 144.164 126.785 138.452C127.386 132.739 132.71 128.58 138.718 129.212Z" fill="white" stroke="#F5F5F5"/>
<path d="M69.573 158.609L68.6748 167.155C68.6072 167.798 69.1224 168.38 69.8251 168.454L79.1583 169.435C79.861 169.509 80.4859 169.046 80.5535 168.403L81.4517 159.857C81.5194 159.214 81.0042 158.632 80.3015 158.558L70.9682 157.577C70.2656 157.503 69.6406 157.965 69.573 158.609ZM78.4388 163.375C79.5948 163.496 80.0572 164.173 79.962 165.079C79.876 165.897 79.3649 166.322 78.7799 166.506L78.3186 165.615C78.6456 165.488 78.9234 165.37 78.9604 165.018C78.9956 164.683 78.8749 164.454 78.3155 164.395L74.5212 163.996L74.6286 162.974L78.4388 163.375ZM80.3766 161.134C80.2769 162.083 79.7191 162.645 79.0408 162.876L78.6033 161.988C79.016 161.81 79.3352 161.554 79.388 161.052C79.4324 160.629 79.2303 160.333 78.9095 160.299C78.5276 160.259 78.3633 160.522 78.0887 160.967L77.9426 161.209C77.523 161.911 77.0395 162.354 76.13 162.258C75.2921 162.17 74.7173 161.518 74.813 160.608C74.8814 159.957 75.1769 159.517 75.8591 159.25L76.3322 160.105C75.9718 160.244 75.8167 160.419 75.7858 160.712C75.7544 161.011 75.9413 161.222 76.2118 161.251C76.5459 161.286 76.701 161.111 76.9567 160.693L77.1028 160.451C77.5998 159.624 78.0674 159.18 79.0007 159.278C80.003 159.383 80.4785 160.165 80.3766 161.134Z" fill="#FAAF40" fill-opacity="0.49"/>
<path d="M135.932 135.612C135.871 135.733 135.813 135.853 135.757 135.974C135.661 135.943 135.565 135.914 135.469 135.885C133.919 135.434 132.629 135.488 132.143 136.077C131.679 136.644 131.991 137.682 132.887 138.793C132.975 138.903 133.068 139.011 133.162 139.115C133.086 139.17 133.011 139.228 132.937 139.286C131.755 140.227 131.194 141.237 131.549 141.914C131.888 142.563 133.065 142.87 134.587 142.772C134.738 142.762 134.887 142.75 135.039 142.733C135.071 142.886 135.108 143.038 135.15 143.18C135.51 144.469 136.191 145.438 136.992 145.522C137.819 145.609 138.748 144.751 139.387 143.518C139.438 143.418 139.489 143.318 139.534 143.215C139.69 143.266 139.843 143.313 140.002 143.358C141.448 143.756 142.634 143.688 143.099 143.123C143.578 142.541 143.264 141.444 142.346 140.312C142.272 140.222 142.196 140.132 142.114 140.042C142.239 139.952 142.359 139.856 142.476 139.761C143.556 138.872 144.054 137.933 143.717 137.286C143.37 136.617 142.137 136.281 140.582 136.385C140.463 136.393 140.341 136.404 140.217 136.417C140.201 136.34 140.182 136.265 140.163 136.191C139.797 134.8 139.079 133.746 138.239 133.657C137.436 133.573 136.56 134.404 135.932 135.612V135.612ZM133.351 138.511C132.583 137.559 132.331 136.719 132.61 136.379C132.909 136.014 133.964 135.973 135.303 136.362C135.392 136.388 135.478 136.413 135.563 136.443C135.376 136.944 135.226 137.455 135.118 137.973C134.593 138.223 134.087 138.502 133.606 138.812C133.518 138.712 133.434 138.614 133.351 138.511V138.511ZM138.775 141.792C139.018 141.698 139.262 141.602 139.5 141.498C139.417 141.855 139.313 142.207 139.188 142.553C138.817 142.411 138.436 142.242 138.048 142.051C138.293 141.969 138.535 141.884 138.775 141.792V141.792ZM135.512 142.159C135.462 141.817 135.43 141.455 135.416 141.081C135.623 141.227 135.836 141.371 136.052 141.508C136.265 141.646 136.484 141.781 136.707 141.91C136.296 142.014 135.896 142.097 135.512 142.159ZM137.405 141.716C137.055 141.525 136.715 141.32 136.381 141.107C136.047 140.894 135.725 140.668 135.409 140.433C135.416 140.083 135.438 139.726 135.476 139.365C135.514 139.003 135.567 138.648 135.633 138.306C135.987 138.144 136.349 137.992 136.718 137.851C137.087 137.709 137.462 137.58 137.842 137.46C138.191 137.654 138.534 137.859 138.871 138.075C139.205 138.288 139.527 138.511 139.846 138.744C139.839 139.093 139.814 139.453 139.776 139.817C139.738 140.181 139.688 140.532 139.628 140.87C139.27 141.036 138.905 141.19 138.534 141.331C138.163 141.473 137.787 141.599 137.405 141.716ZM139.203 137.674C138.982 137.531 138.757 137.395 138.53 137.261C138.93 137.153 139.334 137.064 139.746 136.993C139.801 137.362 139.834 137.733 139.844 138.104C139.634 137.956 139.418 137.814 139.203 137.674ZM137.209 137.127C136.965 137.211 136.72 137.298 136.479 137.39C136.242 137.48 136.007 137.574 135.774 137.674C135.866 137.307 135.975 136.957 136.098 136.633C136.479 136.781 136.848 136.946 137.209 137.127V137.127ZM133.976 139.203C134.303 138.991 134.646 138.795 134.997 138.616C134.925 139.073 134.876 139.534 134.852 139.995C134.534 139.732 134.24 139.465 133.976 139.203ZM132.068 141.72C131.849 141.303 132.311 140.478 133.329 139.664C133.394 139.612 133.463 139.561 133.533 139.508C133.938 139.913 134.375 140.294 134.837 140.65C134.835 141.179 134.873 141.708 134.949 142.236C134.81 142.252 134.67 142.263 134.529 142.274C133.223 142.357 132.27 142.111 132.068 141.72V141.72ZM138.997 143.022C138.955 143.116 138.91 143.208 138.863 143.299C138.634 143.774 138.294 144.305 137.883 144.672C137.673 144.886 137.37 145.014 137.044 145.024C136.559 144.973 136.016 144.176 135.705 143.075C135.666 142.937 135.632 142.798 135.601 142.658C136.193 142.561 136.778 142.431 137.347 142.268C137.878 142.549 138.431 142.801 138.997 143.022V143.022ZM141.879 140.593C142.239 141.018 142.511 141.494 142.678 141.999C142.791 142.271 142.773 142.569 142.626 142.82C142.344 143.163 141.392 143.218 140.154 142.877C140.008 142.836 139.863 142.792 139.72 142.745C139.902 142.239 140.045 141.724 140.146 141.198C140.674 140.945 141.184 140.658 141.667 140.346C141.741 140.429 141.813 140.511 141.879 140.593ZM141.295 139.958C140.978 140.164 140.63 140.366 140.258 140.559C140.292 140.337 140.322 140.109 140.346 139.877C140.371 139.638 140.391 139.404 140.402 139.17C140.716 139.419 141.013 139.682 141.295 139.958V139.958ZM142.408 137.013C142.73 137.067 143.017 137.238 143.198 137.482C143.403 137.876 143.003 138.628 142.081 139.389C141.975 139.476 141.862 139.563 141.745 139.651C141.334 139.25 140.894 138.873 140.427 138.524C140.432 137.988 140.395 137.45 140.315 136.914C140.426 136.903 140.537 136.893 140.645 136.886C141.229 136.832 141.828 136.876 142.408 137.013V137.013ZM139.603 136.291C139.62 136.359 139.637 136.426 139.651 136.495C139.056 136.597 138.47 136.737 137.897 136.909C137.38 136.629 136.843 136.383 136.289 136.166C136.342 136.049 136.396 135.938 136.45 135.831C136.988 134.796 137.699 134.104 138.181 134.155C138.701 134.21 139.287 135.089 139.603 136.291ZM138.84 139.719C138.902 139.132 138.408 138.6 137.738 138.53C137.067 138.459 136.473 138.877 136.412 139.463C136.35 140.05 136.844 140.582 137.514 140.652C138.185 140.723 138.779 140.305 138.84 139.719Z" fill="#BFB2F3"/>
<path d="M150.475 57.0674L150.704 54.8919L147.94 55.7012L150.475 57.0674ZM143.76 55.2619L145.289 61.4207L153.359 61.351L156.719 56.6239L154.415 51.3015L146.536 49.5554L143.76 55.2619ZM154.038 52.5838L153.892 53.9713L151.922 54.5205L151.59 57.6781L153.403 58.6249L153.257 60.0153L145.192 55.4123L154.038 52.5838Z" fill="#E31E25" fill-opacity="0.4"/>
<path d="M90.4706 17.5396C90.4835 17.5471 90.4936 17.5543 90.4706 17.5396V17.5396ZM89.0394 12.3303C88.9968 12.7342 89.0588 13.1437 89.2206 13.5271C88.9405 13.6175 88.6937 13.7154 88.5161 13.717C88.3088 13.7196 88.1846 13.733 87.9446 13.6793C87.7046 13.6256 87.3737 13.4629 87.3488 13.4623C87.3238 13.4617 87.1973 13.4749 87.1679 13.7337C87.1384 13.9926 87.1734 14.2217 87.2472 14.2556C87.3822 14.3161 87.5221 14.3668 87.6657 14.4072C87.924 14.4811 88.8148 15.0517 89.2771 15.3704C89.0766 15.4386 88.9001 15.4952 88.7634 15.4971C88.5562 15.4997 88.4319 15.513 88.1919 15.4594C87.9519 15.4057 87.621 15.243 87.5961 15.2424C87.5711 15.2418 87.4447 15.2549 87.4152 15.5136C87.3857 15.7722 87.4208 16.0015 87.4945 16.0357C87.5683 16.0698 87.7453 16.1169 87.913 16.1873C88.0807 16.2577 89.5804 17.0507 89.9703 17.258C90.1684 17.3641 90.3272 17.4539 90.4342 17.518C90.4514 17.5279 90.462 17.5351 90.4706 17.54C90.46 17.5328 90.4491 17.5276 90.4536 17.5281C90.5457 17.5825 90.597 17.6143 90.597 17.6143L90.5992 17.6145C90.6676 17.6562 90.7288 17.7012 90.7269 17.7193C90.7257 17.7313 90.534 17.7376 90.2799 17.6662C89.7454 17.5146 88.923 17.2028 88.8936 17.2017C88.8776 17.202 88.736 17.1425 88.6374 17.323C88.544 17.498 88.6608 17.5773 88.6591 17.5933C88.6574 17.6094 88.7011 17.6262 88.7011 17.6262C88.7011 17.6262 87.7686 17.3231 87.7064 17.9154C87.6675 18.2849 88.0679 18.8469 88.453 19.1428C88.5331 19.3116 88.7062 19.6771 88.8909 20.062C88.9618 20.2096 89.0345 20.3614 89.1036 20.5047C89.0913 20.5136 89.0792 20.5204 89.0669 20.5293C88.132 21.1578 87.3852 22.4211 86.237 22.2436C85.8185 22.1793 84.7277 21.9327 83.6393 19.3902C82.7484 17.3065 83.2152 15.7646 83.9141 15.5641C84.9111 15.275 86.5612 16.693 86.6028 18.7639C86.6176 19.5532 86.2371 19.9272 86.1004 20.0164C85.9565 20.1089 85.948 20.1243 85.9686 20.1671C86.0021 20.2376 86.1235 20.2077 86.1958 20.1909C86.3798 20.1494 86.7212 19.9314 86.9236 19.5204C87.1003 19.1592 87.2728 18.2538 86.9097 17.099C86.5047 15.8019 85.1147 14.6792 83.8365 14.8312C82.5374 14.9863 81.9238 16.8208 82.4435 18.6712C82.7529 19.7736 83.294 20.9876 84.0691 21.9014C84.9921 22.9871 85.8688 23.2375 86.2489 23.2124C87.598 23.1229 88.6332 21.5833 89.3407 20.9979C89.3575 21.0321 89.3724 21.0642 89.3874 21.0942C89.5352 21.4405 90.1334 22.7601 90.8701 23.1521C91.706 23.5953 92.3744 23.2513 92.4882 22.9914C92.8373 22.1795 92.4575 21.2706 91.7344 20.7278C91.0114 20.1849 89.9977 20.1351 89.5164 20.2997C89.5094 20.301 89.5045 20.3046 89.4975 20.3059C89.4502 20.2156 89.403 20.1233 89.3558 20.031C89.2631 19.853 89.179 19.6796 89.1062 19.5278C89.3407 19.6337 89.6271 19.7227 90.0468 19.7973C90.5379 19.8854 91.1983 19.77 91.4751 19.5595C91.5963 19.4667 91.6119 19.3406 91.6201 19.2622C91.6492 18.9851 91.4059 18.8336 91.1145 18.6631C90.759 18.4531 90.3406 18.2568 90.3406 18.2568C90.3406 18.2568 91.4951 18.569 91.5493 18.0529C91.5692 17.8643 91.3168 17.6469 91.1862 17.5476L91.1885 17.5479C91.1885 17.5479 91.1799 17.5429 91.1629 17.531C91.1313 17.5074 91.1121 17.4952 91.1121 17.4952L91.1054 17.4945C90.9672 17.4028 90.6495 17.2009 90.1225 16.8918C89.4413 16.4913 88.5809 16.0863 88.5809 16.0863C88.7804 16.0769 88.9787 16.0556 89.1744 16.0228C89.394 15.989 89.6404 15.8951 89.8776 15.8246C89.9865 15.9132 90.0492 15.9665 90.0492 15.9665C90.0509 15.9665 90.0526 15.966 90.0539 15.9649C90.1375 16.0346 90.2271 16.1131 90.3142 16.1933C90.6291 16.4862 90.9884 16.8328 91.0967 16.8848C91.2243 16.9469 91.3246 16.9453 91.4108 16.8609C91.4764 16.7988 91.4981 16.6792 91.5001 16.5517C91.5064 16.3188 91.4605 16.1495 91.4283 16.067C91.3854 15.9165 91.3195 15.7715 91.2324 15.6364C91.0519 15.3636 90.771 15.1797 90.3781 15.1526C90.1612 15.138 89.9387 15.1775 89.7283 15.2326C89.6946 15.2067 89.6589 15.1786 89.623 15.1525C89.0146 14.6867 88.3333 14.3044 88.3333 14.3044C88.5328 14.2949 88.7311 14.2737 88.9268 14.2408C89.1141 14.2118 89.3242 14.1386 89.529 14.0728C89.8294 14.4819 90.1988 14.7543 90.4491 14.8618C90.9126 15.0608 91.1408 14.967 91.2133 14.7533C91.2462 14.6572 91.2092 14.5112 91.1707 14.4016C91.1291 14.2404 91.0603 14.0853 90.9666 13.9417C90.786 13.6689 90.5213 13.3956 90.126 13.3702C89.9476 13.3576 89.7653 13.3831 89.5882 13.4234C89.4728 13.0924 89.4349 12.6744 89.5573 12.1593C89.821 11.0564 90.6269 10.9197 90.9487 10.9962C91.2704 11.0726 91.4279 11.3268 91.4737 11.4108C91.5194 11.4948 91.5372 11.521 91.5783 11.5192C91.6378 11.5153 91.6394 11.479 91.6328 11.4113C91.6246 11.317 91.429 10.7971 90.8262 10.7114C90.0647 10.5989 89.1544 11.167 89.0389 12.3308L89.0394 12.3303ZM91.3885 21.2923C91.8019 21.7092 91.9184 22.2453 91.751 22.4529C91.5702 22.6756 90.9147 22.5113 90.4807 22.0049C90.2174 21.697 89.985 21.3113 89.8435 21.0568C89.8132 20.9988 89.7674 20.9148 89.7123 20.8115C89.7028 20.7943 89.6991 20.7858 89.6991 20.7858C89.6875 20.7663 89.6784 20.745 89.667 20.7235C90.3684 20.6289 90.9544 20.8527 91.3881 21.2923L91.3885 21.2923ZM89.616 18.3776C89.9557 18.5433 90.8271 18.9088 90.7625 19.0685C90.7073 19.2049 90.0121 19.2191 89.3581 18.9494C89.029 18.8132 88.6464 18.5578 88.5022 18.4147C88.2693 18.1853 88.2118 17.9539 88.3185 17.9123C88.4586 17.8559 89.404 18.2741 89.616 18.3776ZM91.0426 16.2736C91.0684 16.3311 91.0834 16.3834 91.0651 16.4059C91.052 16.4228 91.0135 16.3781 91.0135 16.3781C91.0135 16.3781 90.7076 16.0637 90.5663 15.9372C90.483 15.8634 90.3851 15.778 90.2766 15.6856C90.2878 15.6868 90.2993 15.6859 90.3128 15.6873C90.7152 15.7323 90.9511 16.1061 91.0426 16.2742L91.0426 16.2736ZM90.7846 14.5086C90.7489 14.5455 90.6438 14.5283 90.3295 14.3592C90.2068 14.2935 90.0035 14.1505 89.8185 13.9197C89.8993 13.9043 89.9826 13.9 90.0655 13.9071C90.5714 13.9623 90.7264 14.3055 90.7847 14.5084L90.7846 14.5086Z" fill="#BFB2F3"/>
<path d="M25.0881 44.2639C26.1103 44.3713 25.9946 45.2455 25.9848 45.3382L25.7972 47.1235L23.8281 46.9166L24.0157 45.1313C24.1145 44.1919 24.8865 44.2427 25.0881 44.2639ZM23.209 45.1855C23.2105 45.1707 23.3222 44.3396 22.4229 44.2451C22.0488 44.2058 21.5501 44.2317 21.4691 45.0026L21.2959 46.6504L23.0358 46.8333L23.209 45.1855ZM20.5015 40.3075L27.7006 41.0641C28.1774 41.1155 28.6161 41.3376 28.9209 41.6818C29.2257 42.0261 29.3718 42.4645 29.3273 42.9013L28.6345 49.493C28.5872 49.9295 28.3531 50.328 27.9834 50.6013C27.6137 50.8746 27.1384 51.0007 26.6614 50.9518L19.4623 50.1952C18.9855 50.1437 18.5468 49.9217 18.242 49.5774C17.9372 49.2332 17.7911 48.7948 17.8356 48.358L18.5284 41.7663C18.5757 41.3298 18.8098 40.9313 19.1795 40.658C19.5492 40.3846 20.0245 40.2586 20.5015 40.3075ZM25.3371 43.2692C24.8172 43.2145 23.9166 43.2683 23.5999 44.1811L23.5823 44.1793C23.3997 43.6489 22.988 43.2836 22.3277 43.2142C22.159 43.1965 20.7709 43.0059 20.5862 44.7628L20.2916 47.5657L26.5909 48.2278C26.8883 45.3977 26.9558 45.145 26.8328 44.6026C26.7592 44.2778 26.5216 43.3937 25.3371 43.2692Z" fill="#E31E25" fill-opacity="0.4"/>
</svg>
